<svg xmlns="http://www.w3.org/2000/svg">
<defs>
<font id="Oi-Regular" horiz-adv-x="950" >
  <font-face 
    font-family="Oi"
    font-weight="400"
    font-stretch="normal"
    units-per-em="1000"
    panose-1="0 0 0 0 0 0 0 0 0 0"
    ascent="800"
    descent="-200"
    x-height="713"
    cap-height="775.001"
    bbox="-111.825 -263 2288.57 953.003"
    underline-thickness="50"
    underline-position="-75"
    unicode-range="U+0020-U+FB02"
  />
<missing-glyph horiz-adv-x="888" 
d="M16 546c-2.66699 2.66699 -4.66992 10.168 -6.00293 22.501s-2 26.333 -2 42s0.666992 30 2 43s3.33301 21.833 6 26.5c69.333 -0.666992 132.5 -1 189.5 -1s111.333 -0.166992 163 -0.5s103 -0.333008 154 0s104.833 0.5 161.5 0.5s119.334 0.333008 188.001 1
c2.66699 -2.66699 4.66699 -10.334 6 -23.001s2 -26.667 2 -42s-0.666992 -29.5 -2 -42.5s-3.66602 -21.833 -6.99902 -26.5c-68 0.666992 -130.333 1 -187 1s-110.667 0.166992 -162 0.5s-102.666 0.333008 -153.999 0s-105.5 -0.5 -162.5 -0.5
s-120.167 -0.333008 -189.5 -1zM204.997 207.001c-126 0 -189 52.667 -189 158c0 57.333 15.833 99.5 47.5 126.5s79.5 40.5 143.5 40.5c68 0 117.5 -13 148.5 -39s46.5 -65.333 46.5 -118c0 -58 -16.5 -100.5 -49.5 -127.5s-82.167 -40.5 -147.5 -40.5zM754.997 208.001
c-30 0 -51.666 6.66797 -64.999 20.001s-20.333 29.333 -21 48c-0.666992 13.333 2 25.5 8 36.5s12.667 18.833 20 23.5c5.33301 -5.33301 12.833 -10.666 22.5 -15.999s21.5 -7.66602 35.5 -6.99902c-16.667 10 -33.667 24.333 -51 43s-31.833 42.167 -43.5 70.5
s-17.834 61.166 -18.501 98.499c36 4 74.333 6.16699 115 6.5s79.334 -1.83398 116.001 -6.50098c-2 -24.667 -5.66699 -45 -11 -61s-10.333 -29.667 -15 -41c-4.66699 -12.667 -10.834 -25.334 -18.501 -38.001s-11.5 -23.667 -11.5 -33c0 -8.66699 2.5 -16.167 7.5 -22.5
s9.83301 -13.5 14.5 -21.5s7 -18.667 7 -32c0 -20.667 -7.66699 -37.167 -23 -49.5s-38 -18.5 -68 -18.5zM621.998 214.002c-11.333 1.33301 -27.3359 2.66602 -48.0029 3.99902s-41 2 -61 2c-17.333 0 -36.166 -0.666992 -56.499 -2s-36.5 -2.33301 -48.5 -3

<glyph glyph-name="fi" unicode="fi" horiz-adv-x="1457" 
d="M27 -17c-5.33301 13.333 -9.67383 30.4941 -13.0068 51.4941s-5.16602 43.167 -5.49902 66.5s0.333984 45.5 2.00098 66.5s4.83398 38.167 9.50098 51.5c9.33301 3.33301 18.5 9.33301 27.5 18s16.5 22.834 22.5 42.501s9.66699 47.834 11 84.501h-65
c-3.33301 18.667 -5.66602 40.667 -6.99902 66s-1.33301 50.5 0 75.5s3.66602 46.833 6.99902 65.5h142c-29.333 3.33301 -51.333 15.5 -66 36.5s-17 45.833 -7 74.5c13.333 39.333 52.833 72.833 118.5 100.5s156.834 41.5 273.501 41.5c92 0 165.667 -8.66699 221 -26
s95.5 -43.666 120.5 -78.999s37.5 -80 37.5 -134c0 -40.667 -9.83301 -75.667 -29.5 -105s-45.5 -51.666 -77.5 -66.999s-67.333 -23 -106 -23c-25.333 0 -52 3.33301 -80 10s-54 18 -78 34l-16 -23c23.333 -16 49.833 -28.333 79.5 -37s61.167 -13 94.5 -13
c26.667 0 51.834 3.33301 75.501 10s44.834 15.667 63.501 27c6 -18 9.83301 -38.167 11.5 -60.5s2.16699 -43.666 1.5 -63.999s-2.66699 -36.5 -6 -48.5h-279c3.33301 -13.333 13.333 -22.666 30 -27.999s44.334 -7 83.001 -5c6 -17.333 9.66699 -39 11 -65
s0.5 -52 -2.5 -78s-8.16699 -48 -15.5 -66c-30.667 3.33301 -69 6.66602 -115 9.99902s-96.333 5 -151 5s-107.5 -1.16699 -158.5 -3.5s-105.833 -6.16602 -164.5 -11.499zM895.992 -17.0059c-5.33301 13.333 -9.66211 30.5 -12.9951 51.5s-5.16602 43.167 -5.49902 66.5
s0.333984 45.5 2.00098 66.5s4.83398 38.167 9.50098 51.5c10 4 19.667 10.333 29 19s17.166 21.667 23.499 39s9.5 41 9.5 71c0 29.333 -3.83301 52.166 -11.5 68.499s-16.334 28.333 -26.001 36s-17.834 13.167 -24.501 16.5c-6 11.333 -10.333 27.5 -13 48.5
s-3.83398 43.833 -3.50098 68.5s2.16602 48.334 5.49902 71.001s8.33301 41.334 15 56.001c7.33301 -0.666992 13.666 -1.5 18.999 -2.5s11.333 -1.83301 18 -2.5c-2.66699 -41.333 5.66602 -76.833 24.999 -106.5s45.833 -50.834 79.5 -63.501s69.5 -15.334 107.5 -8.00098
c-32 1.33301 -61.5 9.83301 -88.5 25.5s-48.667 36.667 -65 63s-24.5 55.833 -24.5 88.5c0 27.333 6.5 53.833 19.5 79.5s34.833 47 65.5 64s72 25.5 124 25.5c83.333 0 144.166 -20.833 182.499 -62.5s57.5 -103.167 57.5 -184.5c0 -38 -3.16699 -72.833 -9.5 -104.5
l-19 -91c-6.33301 -29 -9.5 -58.5 -9.5 -88.5c0 -28.667 3.16699 -51.667 9.5 -69s14.333 -30.166 24 -38.499s19.167 -14.5 28.5 -18.5c4.66699 -13.333 7.83398 -30.5 9.50098 -51.5s2.33398 -43.167 2.00098 -66.5s-2.16602 -45.5 -5.49902 -66.5
s-7.66602 -38.167 -12.999 -51.5c-18.667 2 -42.834 4.16699 -72.501 6.5s-61.834 4.33301 -96.501 6s-69.334 2.5 -104.001 2.5c-32 0 -64.5 -0.833008 -97.5 -2.5s-63.833 -3.66699 -92.5 -6s-52.334 -4.5 -71.001 -6.5z" />
    <glyph glyph-name="fl" unicode="fl" horiz-adv-x="1447" 
d="M27 -17c-5.33301 13.333 -9.67383 30.4941 -13.0068 51.4941s-5.16602 43.167 -5.49902 66.5s0.333984 45.5 2.00098 66.5s4.83398 38.167 9.50098 51.5c9.33301 3.33301 18.5 9.33301 27.5 18s16.5 22.834 22.5 42.501s9.66699 47.834 11 84.501h-65
c-3.33301 18.667 -5.66602 40.667 -6.99902 66s-1.33301 50.5 0 75.5s3.66602 46.833 6.99902 65.5h142c-29.333 3.33301 -51.333 15.5 -66 36.5s-17 45.833 -7 74.5c13.333 39.333 52.833 72.833 118.5 100.5s156.834 41.5 273.501 41.5c92 0 165.667 -8.66699 221 -26
s95.5 -43.666 120.5 -78.999s37.5 -80 37.5 -134c0 -40.667 -9.83301 -75.667 -29.5 -105s-45.5 -51.666 -77.5 -66.999s-67.333 -23 -106 -23c-25.333 0 -52 3.33301 -80 10s-54 18 -78 34l-16 -23c23.333 -16 49.833 -28.333 79.5 -37s61.167 -13 94.5 -13
c26.667 0 51.834 3.33301 75.501 10s44.834 15.667 63.501 27c6 -18 9.83301 -38.167 11.5 -60.5s2.16699 -43.666 1.5 -63.999s-2.66699 -36.5 -6 -48.5h-279c3.33301 -13.333 13.333 -22.666 30 -27.999s44.334 -7 83.001 -5c6 -17.333 9.66699 -39 11 -65
s0.5 -52 -2.5 -78s-8.16699 -48 -15.5 -66c-30.667 3.33301 -69 6.66602 -115 9.99902s-96.333 5 -151 5s-107.5 -1.16699 -158.5 -3.5s-105.833 -6.16602 -164.5 -11.499zM895.992 -17.0059c-5.33301 13.333 -9.6709 30.502 -13.0039 51.502s-5.16602 43.167 -5.49902 66.5
s0.333984 45.5 2.00098 66.5s4.83398 38.167 9.50098 51.5c10 4 19.667 10.833 29 20.5s17 26.5 23 50.5s9 58.333 9 103c0 46 -3.5 80.5 -10.5 103.5s-15.333 39 -25 48s-18.167 15.167 -25.5 18.5c-6 11.333 -10.333 27.5 -13 48.5s-3.83398 43.667 -3.50098 68
s2.16602 47.666 5.49902 69.999s8.33301 40.833 15 55.5c19.333 -1.33301 43.333 -3.33301 72 -6s59.834 -4.83398 93.501 -6.50098s66.5 -2.5 98.5 -2.5c47.333 0 90.5 1.5 129.5 4.5s72.5 5.83301 100.5 8.5c6 -18.667 10.333 -36.5 13 -53.5s4 -34.167 4 -51.5
c0 -31.333 -3.16699 -62.166 -9.5 -92.499s-12.666 -63 -18.999 -98s-9.5 -75.833 -9.5 -122.5c0 -42 3 -74.333 9 -97s13.667 -38.834 23 -48.501s19 -16.5 29 -20.5c6 -20.667 9.66699 -46.167 11 -76.5s0.5 -60 -2.5 -89s-8.16699 -52.5 -15.5 -70.5
c-18.667 2 -42.667 4.16699 -72 6.5s-60.666 4.33301 -93.999 6s-65.666 2.5 -96.999 2.5c-32 0 -64.5 -0.833008 -97.5 -2.5s-63.833 -3.66699 -92.5 -6s-52.334 -4.5 -71.001 -6.5z" />
    <glyph glyph-name="f_f" unicode="ff" horiz-adv-x="1704" 
d="M27 -17c-5.33301 13.333 -9.67383 30.4941 -13.0068 51.4941s-5.16602 43.167 -5.49902 66.5s0.333984 45.5 2.00098 66.5s4.83398 38.167 9.50098 51.5c9.33301 3.33301 18.5 9.33301 27.5 18s16.5 22.834 22.5 42.501s9.66699 47.834 11 84.501h-65
c-3.33301 18.667 -5.66602 40.667 -6.99902 66s-1.33301 50.5 0 75.5s3.66602 46.833 6.99902 65.5h142c-29.333 3.33301 -51.333 15.5 -66 36.5s-17 45.833 -7 74.5c13.333 39.333 52.833 72.833 118.5 100.5s156.834 41.5 273.501 41.5c92 0 165.667 -8.66699 221 -26
s95.5 -43.666 120.5 -78.999s37.5 -80 37.5 -134c0 -40.667 -9.83301 -75.667 -29.5 -105s-45.5 -51.666 -77.5 -66.999s-67.333 -23 -106 -23c-25.333 0 -52 3.33301 -80 10s-54 18 -78 34l-16 -23c23.333 -16 49.833 -28.333 79.5 -37s61.167 -13 94.5 -13
c26.667 0 51.834 3.33301 75.501 10s44.834 15.667 63.501 27c6 -18 9.83301 -38.167 11.5 -60.5s2.16699 -43.666 1.5 -63.999s-2.66699 -36.5 -6 -48.5h-279c3.33301 -13.333 13.333 -22.666 30 -27.999s44.334 -7 83.001 -5c6 -17.333 9.66699 -39 11 -65
s0.5 -52 -2.5 -78s-8.16699 -48 -15.5 -66c-30.667 3.33301 -69 6.66602 -115 9.99902s-96.333 5 -151 5s-107.5 -1.16699 -158.5 -3.5s-105.833 -6.16602 -164.5 -11.499zM835.992 -17.0059c-7.33301 18 -12.5039 40.3291 -15.5039 66.9961s-3.83301 53.334 -2.5 80.001
s5 48.667 11 66c28.667 -1.33301 49.334 0.166992 62.001 4.5s21.334 14.5 26.001 30.5h-87c-4 18.667 -6.5 40.667 -7.5 66s-1 50.5 0 75.5s3.5 46.833 7.5 65.5h128c-28.667 12 -48.834 31.333 -60.501 58s-17.5 55 -17.5 85c0 52 11.667 94 35 126s55.5 56.5 96.5 73.5
s87.667 28.5 140 34.5s107.5 9 165.5 9c92 0 165.667 -8.66699 221 -26s95.5 -43.666 120.5 -78.999s37.5 -80 37.5 -134c0 -40.667 -9.83301 -75.667 -29.5 -105s-45.5 -51.666 -77.5 -66.999s-67.333 -23 -106 -23c-25.333 0 -52 3.33301 -80 10s-54 18 -78 34l-16 -23
c23.333 -16 49.833 -28.333 79.5 -37s61.167 -13 94.5 -13c26.667 0 51.834 3.33301 75.501 10s44.834 15.667 63.501 27c6 -18 9.83301 -38.167 11.5 -60.5s2.16699 -43.666 1.5 -63.999s-2.66699 -36.5 -6 -48.5h-279c3.33301 -13.333 13.333 -22.666 30 -27.999
s44.334 -7 83.001 -5c6 -17.333 9.66699 -39 11 -65s0.5 -52 -2.5 -78s-8.16699 -48 -15.5 -66c-30.667 3.33301 -69 6.66602 -115 9.99902s-96.333 5 -151 5c-46 0 -87.833 -0.5 -125.5 -1.5s-74.5 -2.5 -110.5 -4.5s-75.333 -5 -118 -9z" />
    <glyph glyph-name="f_f_i" unicode="ffi" horiz-adv-x="2297" 
d="M27 -17c-5.33301 13.333 -9.67383 30.4941 -13.0068 51.4941s-5.16602 43.167 -5.49902 66.5s0.333984 45.5 2.00098 66.5s4.83398 38.167 9.50098 51.5c9.33301 3.33301 18.5 9.33301 27.5 18s16.5 22.834 22.5 42.501s9.66699 47.834 11 84.501h-65
c-3.33301 18.667 -5.66602 40.667 -6.99902 66s-1.33301 50.5 0 75.5s3.66602 46.833 6.99902 65.5h142c-29.333 3.33301 -51.333 15.5 -66 36.5s-17 45.833 -7 74.5c13.333 39.333 52.833 72.833 118.5 100.5s156.834 41.5 273.501 41.5c92 0 165.667 -8.66699 221 -26
s95.5 -43.666 120.5 -78.999s37.5 -80 37.5 -134c0 -40.667 -9.83301 -75.667 -29.5 -105s-45.5 -51.666 -77.5 -66.999s-67.333 -23 -106 -23c-25.333 0 -52 3.33301 -80 10s-54 18 -78 34l-16 -23c23.333 -16 49.833 -28.333 79.5 -37s61.167 -13 94.5 -13
c26.667 0 51.834 3.33301 75.501 10s44.834 15.667 63.501 27c6 -18 9.83301 -38.167 11.5 -60.5s2.16699 -43.666 1.5 -63.999s-2.66699 -36.5 -6 -48.5h-279c3.33301 -13.333 13.333 -22.666 30 -27.999s44.334 -7 83.001 -5c6 -17.333 9.66699 -39 11 -65
s0.5 -52 -2.5 -78s-8.16699 -48 -15.5 -66c-30.667 3.33301 -69 6.66602 -115 9.99902s-96.333 5 -151 5s-107.5 -1.16699 -158.5 -3.5s-105.833 -6.16602 -164.5 -11.499zM835.992 -17.0059c-7.33301 18 -12.5039 40.3291 -15.5039 66.9961s-3.83301 53.334 -2.5 80.001
s5 48.667 11 66c28.667 -1.33301 49.334 0.166992 62.001 4.5s21.334 14.5 26.001 30.5h-87c-4 18.667 -6.5 40.667 -7.5 66s-1 50.5 0 75.5s3.5 46.833 7.5 65.5h128c-28.667 12 -48.834 31.333 -60.501 58s-17.5 55 -17.5 85c0 52 11.667 94 35 126s55.5 56.5 96.5 73.5
s87.667 28.5 140 34.5s107.5 9 165.5 9c92 0 165.667 -8.66699 221 -26s95.5 -43.666 120.5 -78.999s37.5 -80 37.5 -134c0 -40.667 -9.83301 -75.667 -29.5 -105s-45.5 -51.666 -77.5 -66.999s-67.333 -23 -106 -23c-25.333 0 -52 3.33301 -80 10s-54 18 -78 34l-16 -23
c23.333 -16 49.833 -28.333 79.5 -37s61.167 -13 94.5 -13c26.667 0 51.834 3.33301 75.501 10s44.834 15.667 63.501 27c6 -18 9.83301 -38.167 11.5 -60.5s2.16699 -43.666 1.5 -63.999s-2.66699 -36.5 -6 -48.5h-279c3.33301 -13.333 13.333 -22.666 30 -27.999
s44.334 -7 83.001 -5c6 -17.333 9.66699 -39 11 -65s0.5 -52 -2.5 -78s-8.16699 -48 -15.5 -66c-30.667 3.33301 -69 6.66602 -115 9.99902s-96.333 5 -151 5c-46 0 -87.833 -0.5 -125.5 -1.5s-74.5 -2.5 -110.5 -4.5s-75.333 -5 -118 -9zM1735.99 -17.0098
c-5.33301 13.333 -9.66113 30.5 -12.9941 51.5s-5.16602 43.167 -5.49902 66.5s0.333984 45.5 2.00098 66.5s4.83398 38.167 9.50098 51.5c10 4 19.667 10.333 29 19s17.166 21.667 23.499 39s9.5 41 9.5 71c0 29.333 -3.83301 52.166 -11.5 68.499
s-16.334 28.333 -26.001 36s-17.834 13.167 -24.501 16.5c-6 11.333 -10.333 27.5 -13 48.5s-3.83398 43.833 -3.50098 68.5s2.16602 48.334 5.49902 71.001s8.33301 41.334 15 56.001c7.33301 -0.666992 13.666 -1.5 18.999 -2.5s11.333 -1.83301 18 -2.5
c-2.66699 -41.333 5.66602 -76.833 24.999 -106.5s45.833 -50.834 79.5 -63.501s69.5 -15.334 107.5 -8.00098c-32 1.33301 -61.5 9.83301 -88.5 25.5s-48.667 36.667 -65 63s-24.5 55.833 -24.5 88.5c0 27.333 6.5 53.833 19.5 79.5s34.833 47 65.5 64s72 25.5 124 25.5
c83.333 0 144.166 -20.833 182.5 -62.5c38.333 -41.667 57.5 -103.167 57.5 -184.5c0 -38 -3.16699 -72.833 -9.5 -104.5l-19 -91c-6.33301 -29 -9.5 -58.5 -9.5 -88.5c0 -28.667 3.16699 -51.667 9.5 -69s14.333 -30.166 24 -38.499s19.167 -14.5 28.5 -18.5
c4.66699 -13.333 7.83398 -30.5 9.5 -51.5c1.66699 -21 2.33398 -43.167 2 -66.5c-0.333008 -23.333 -2.16602 -45.5 -5.5 -66.5c-3.33301 -21 -7.66602 -38.167 -13 -51.5c-18.667 2 -42.834 4.16699 -72.5 6.5c-29.667 2.33301 -61.834 4.33301 -96.5 6
c-34.667 1.66699 -69.334 2.5 -104.001 2.5c-32 0 -64.5 -0.833008 -97.5 -2.5s-63.833 -3.66699 -92.5 -6s-52.334 -4.5 -71.001 -6.5z" />
    <glyph glyph-name="f_f_l" unicode="ffl" horiz-adv-x="2287" 
d="M27 -17c-5.33301 13.333 -9.67383 30.4941 -13.0068 51.4941s-5.16602 43.167 -5.49902 66.5s0.333984 45.5 2.00098 66.5s4.83398 38.167 9.50098 51.5c9.33301 3.33301 18.5 9.33301 27.5 18s16.5 22.834 22.5 42.501s9.66699 47.834 11 84.501h-65
c-3.33301 18.667 -5.66602 40.667 -6.99902 66s-1.33301 50.5 0 75.5s3.66602 46.833 6.99902 65.5h142c-29.333 3.33301 -51.333 15.5 -66 36.5s-17 45.833 -7 74.5c13.333 39.333 52.833 72.833 118.5 100.5s156.834 41.5 273.501 41.5c92 0 165.667 -8.66699 221 -26
s95.5 -43.666 120.5 -78.999s37.5 -80 37.5 -134c0 -40.667 -9.83301 -75.667 -29.5 -105s-45.5 -51.666 -77.5 -66.999s-67.333 -23 -106 -23c-25.333 0 -52 3.33301 -80 10s-54 18 -78 34l-16 -23c23.333 -16 49.833 -28.333 79.5 -37s61.167 -13 94.5 -13
c26.667 0 51.834 3.33301 75.501 10s44.834 15.667 63.501 27c6 -18 9.83301 -38.167 11.5 -60.5s2.16699 -43.666 1.5 -63.999s-2.66699 -36.5 -6 -48.5h-279c3.33301 -13.333 13.333 -22.666 30 -27.999s44.334 -7 83.001 -5c6 -17.333 9.66699 -39 11 -65
s0.5 -52 -2.5 -78s-8.16699 -48 -15.5 -66c-30.667 3.33301 -69 6.66602 -115 9.99902s-96.333 5 -151 5s-107.5 -1.16699 -158.5 -3.5s-105.833 -6.16602 -164.5 -11.499zM835.992 -17.0059c-7.33301 18 -12.5039 40.3291 -15.5039 66.9961s-3.83301 53.334 -2.5 80.001
s5 48.667 11 66c28.667 -1.33301 49.334 0.166992 62.001 4.5s21.334 14.5 26.001 30.5h-87c-4 18.667 -6.5 40.667 -7.5 66s-1 50.5 0 75.5s3.5 46.833 7.5 65.5h128c-28.667 12 -48.834 31.333 -60.501 58s-17.5 55 -17.5 85c0 52 11.667 94 35 126s55.5 56.5 96.5 73.5
s87.667 28.5 140 34.5s107.5 9 165.5 9c92 0 165.667 -8.66699 221 -26s95.5 -43.666 120.5 -78.999s37.5 -80 37.5 -134c0 -40.667 -9.83301 -75.667 -29.5 -105s-45.5 -51.666 -77.5 -66.999s-67.333 -23 -106 -23c-25.333 0 -52 3.33301 -80 10s-54 18 -78 34l-16 -23
c23.333 -16 49.833 -28.333 79.5 -37s61.167 -13 94.5 -13c26.667 0 51.834 3.33301 75.501 10s44.834 15.667 63.501 27c6 -18 9.83301 -38.167 11.5 -60.5s2.16699 -43.666 1.5 -63.999s-2.66699 -36.5 -6 -48.5h-279c3.33301 -13.333 13.333 -22.666 30 -27.999
s44.334 -7 83.001 -5c6 -17.333 9.66699 -39 11 -65s0.5 -52 -2.5 -78s-8.16699 -48 -15.5 -66c-30.667 3.33301 -69 6.66602 -115 9.99902s-96.333 5 -151 5c-46 0 -87.833 -0.5 -125.5 -1.5s-74.5 -2.5 -110.5 -4.5s-75.333 -5 -118 -9zM1735.99 -17.0098
c-5.33301 13.333 -9.66895 30.502 -13.002 51.502s-5.16602 43.167 -5.49902 66.5s0.333984 45.5 2.00098 66.5s4.83398 38.167 9.50098 51.5c10 4 19.667 10.833 29 20.5s17 26.5 23 50.5s9 58.333 9 103c0 46 -3.5 80.5 -10.5 103.5s-15.333 39 -25 48
s-18.167 15.167 -25.5 18.5c-6 11.333 -10.333 27.5 -13 48.5s-3.83398 43.667 -3.50098 68s2.16602 47.666 5.49902 69.999s8.33301 40.833 15 55.5c19.333 -1.33301 43.333 -3.33301 72 -6s59.834 -4.83398 93.501 -6.50098s66.5 -2.5 98.5 -2.5
c47.333 0 90.5 1.5 129.5 4.5s72.5 5.83301 100.5 8.5c6 -18.667 10.333 -36.5 13 -53.5s4 -34.167 4 -51.5c0 -31.333 -3.16699 -62.166 -9.5 -92.499s-12.666 -63 -19 -98c-6.33301 -35 -9.5 -75.833 -9.5 -122.5c0 -42 3 -74.333 9 -97s13.667 -38.834 23 -48.501
s19 -16.5 29 -20.5c6 -20.667 9.66699 -46.167 11 -76.5s0.5 -60 -2.5 -89s-8.16699 -52.5 -15.5 -70.5c-18.667 2 -42.667 4.16699 -72 6.5s-60.666 4.33301 -94 6c-33.333 1.66699 -65.666 2.5 -96.999 2.5c-32 0 -64.5 -0.833008 -97.5 -2.5s-63.833 -3.66699 -92.5 -6
s-52.334 -4.5 -71.001 -6.5z" />
    <glyph glyph-name=".notdef" horiz-adv-x="888" 
d="M16 546c-2.66699 2.66699 -4.66992 10.168 -6.00293 22.501s-2 26.333 -2 42s0.666992 30 2 43s3.33301 21.833 6 26.5c69.333 -0.666992 132.5 -1 189.5 -1s111.333 -0.166992 163 -0.5s103 -0.333008 154 0s104.833 0.5 161.5 0.5s119.334 0.333008 188.001 1
c2.66699 -2.66699 4.66699 -10.334 6 -23.001s2 -26.667 2 -42s-0.666992 -29.5 -2 -42.5s-3.66602 -21.833 -6.99902 -26.5c-68 0.666992 -130.333 1 -187 1s-110.667 0.166992 -162 0.5s-102.666 0.333008 -153.999 0s-105.5 -0.5 -162.5 -0.5
s-120.167 -0.333008 -189.5 -1zM204.997 207.001c-126 0 -189 52.667 -189 158c0 57.333 15.833 99.5 47.5 126.5s79.5 40.5 143.5 40.5c68 0 117.5 -13 148.5 -39s46.5 -65.333 46.5 -118c0 -58 -16.5 -100.5 -49.5 -127.5s-82.167 -40.5 -147.5 -40.5zM754.997 208.001
c-30 0 -51.666 6.66797 -64.999 20.001s-20.333 29.333 -21 48c-0.666992 13.333 2 25.5 8 36.5s12.667 18.833 20 23.5c5.33301 -5.33301 12.833 -10.666 22.5 -15.999s21.5 -7.66602 35.5 -6.99902c-16.667 10 -33.667 24.333 -51 43s-31.833 42.167 -43.5 70.5
s-17.834 61.166 -18.501 98.499c36 4 74.333 6.16699 115 6.5s79.334 -1.83398 116.001 -6.50098c-2 -24.667 -5.66699 -45 -11 -61s-10.333 -29.667 -15 -41c-4.66699 -12.667 -10.834 -25.334 -18.501 -38.001s-11.5 -23.667 -11.5 -33c0 -8.66699 2.5 -16.167 7.5 -22.5
s9.83301 -13.5 14.5 -21.5s7 -18.667 7 -32c0 -20.667 -7.66699 -37.167 -23 -49.5s-38 -18.5 -68 -18.5zM621.998 214.002c-11.333 1.33301 -27.3359 2.66602 -48.0029 3.99902s-41 2 -61 2c-17.333 0 -36.166 -0.666992 -56.499 -2s-36.5 -2.33301 -48.5 -3
c-2.66699 7.33301 -4.66699 16.833 -6 28.5s-1.66602 23.5 -0.999023 35.5s2.33398 21.333 5.00098 28c5.33301 2.66699 10.833 8 16.5 16s8.5 23.667 8.5 47c0 24.667 -3.16699 40.667 -9.5 48s-11.833 11.333 -16.5 12c-2.66699 6 -4.5 14.833 -5.5 26.5
s-0.833008 23.834 0.5 36.501s3.66602 23 6.99902 31c11.333 -1.33301 27.666 -2.83301 48.999 -4.5s40.666 -2.5 57.999 -2.5c20 0 40.333 0.833008 61 2.5s37 2.83398 49 3.50098c5.33301 -20.667 8 -40.5 8 -59.5s-2 -30.833 -6 -35.5
c-6.66699 0 -12.167 -3.5 -16.5 -10.5s-7.16602 -22.833 -8.49902 -47.5c-0.666992 -22.667 1.66602 -38.334 6.99902 -47.001s11 -14 17 -16c2.66699 -6.66699 4.33398 -16 5.00098 -28s0.333984 -24 -0.999023 -36s-3.66602 -21.667 -6.99902 -29zM194.995 341.002h28v55
h-28v-55zM15.9951 55.002c-2.66699 3.33301 -4.66602 11.168 -5.99902 23.501s-2 26.166 -2 41.499s0.666992 29.5 2 42.5s3.66602 21.833 6.99902 26.5c68.667 -0.666992 131.667 -1 189 -1h163h153.5c51 0 104.833 0.166992 161.5 0.5s119.334 0.5 188.001 0.5
c2.66699 -2.66699 4.66699 -10.167 6 -22.5s2 -26.333 2 -42s-0.666992 -30 -2 -43s-3.33301 -21.833 -6 -26.5c-68.667 0.666992 -131.334 1 -188.001 1s-110.5 0.166992 -161.5 0.5s-102.333 0.333008 -154 0s-106 -0.5 -163 -0.5s-120.167 -0.333008 -189.5 -1z" />
    <glyph glyph-name="space" unicode=" " horiz-adv-x="220" 
 />
    <glyph glyph-name="exclam" unicode="!" horiz-adv-x="599" 
d="M300 -35c-52 0 -94.333 7.99609 -127 23.9961s-56.667 36.833 -72 62.5s-23 52.834 -23 81.501c0 37.333 8 68.833 24 94.5s34.667 42.834 56 51.501c20.667 -20.667 48 -37 82 -49s66.667 -17.333 98 -16c-34.667 12.667 -71.167 31.334 -109.5 56.001
s-74.166 55.334 -107.499 92.001s-60.5 79.334 -81.5 128.001s-31.5 103.334 -31.5 164.001c0 44.667 13.167 83.5 39.5 116.5s61.666 58.5 105.999 76.5s92.833 27 145.5 27c36 0 71.333 -4.5 106 -13.5s66 -22.667 94 -41s50.333 -41.333 67 -69s25 -59.834 25 -96.501
c0 -55.333 -6.83301 -105 -20.5 -149s-31 -83.667 -52 -119s-42.167 -68.666 -63.5 -99.999c22 -14.667 39.833 -33.834 53.5 -57.501s20.5 -52.834 20.5 -87.501c0 -51.333 -19.167 -93.5 -57.5 -126.5s-95.5 -49.5 -171.5 -49.5z" />
    <glyph glyph-name="quotedbl" unicode="&#x22;" horiz-adv-x="720" 
d="M357 431c-2.66699 9.33301 -5.49805 26.9951 -8.49805 52.9951s-5.16699 55.333 -6.5 88l-28 -1c0 -20.667 1 -40.167 3 -58.5s3.33301 -32.166 4 -41.499c-14.667 -6 -37 -10.5 -67 -13.5s-60.667 -4.5 -92 -4.5c-30.667 0 -58.834 1.5 -84.501 4.5
s-42.167 6.83301 -49.5 11.5c-2.66699 8.66699 -5.33398 25 -8.00098 49s-5 52 -7 84s-3.5 64 -4.5 96s-1.16699 60.667 -0.5 86s2.33398 43.333 5.00098 54c13.333 11.333 34.5 20 63.5 26s60.833 9 95.5 9c38 0 76.5 -3.66699 115.5 -11s71.833 -19.333 98.5 -36
c-15.333 -8 -30.833 -21.667 -46.5 -41s-23.834 -40.666 -24.501 -63.999c13.333 26.667 33.833 48 61.5 64s58.667 27.833 93 35.5s67.833 11.5 100.5 11.5c32 0 61 -3.16699 87 -9.5s44.333 -15.166 55 -26.499c-2 -34 -6.16699 -72.167 -12.5 -114.5
s-14.5 -85.166 -24.5 -128.499s-21.667 -84 -35 -122c-11.333 -5.33301 -31.333 -9.66602 -60 -12.999s-58.667 -5 -90 -5c-29.333 0 -56.5 1.5 -81.5 4.5s-42.167 7.5 -51.5 13.5z" />
    <glyph glyph-name="numbersign" unicode="#" horiz-adv-x="758" 
d="M285 -109c-12.667 -2.66699 -29.502 -4.66504 -50.502 -5.99805s-43 -1.83301 -66 -1.5s-44 1.83301 -63 4.5s-33.167 6 -42.5 10l31 183h-74c-4.66699 9.33301 -7.83398 25.166 -9.50098 47.499s-2.16699 47.166 -1.5 74.499s2.66699 53.5 6 78.5s8 44.5 14 58.5h120v29
h-78c-4.66699 9.33301 -8 25.166 -10 47.499s-2.5 47.166 -1.5 74.499s3.16699 53.5 6.5 78.5s8 44.5 14 58.5h193c-26 6 -45.667 17 -59 33s-17.666 38.333 -12.999 67l13 79c13.333 2.66699 30.5 4.5 51.5 5.5s42.833 1.33301 65.5 1s43.667 -1.66602 63 -3.99902
s33.333 -5.5 42 -9.5l-29 -175l29 -3l31 185c13.333 2.66699 30.5 4.5 51.5 5.5s43 1.33301 66 1s44.167 -1.66602 63.5 -3.99902s33.333 -5.5 42 -9.5l-29 -172h77c4.66699 -8.66699 7.83398 -24.167 9.50098 -46.5s2.16699 -47.166 1.5 -74.499s-2.66699 -53.5 -6 -78.5
s-8 -44.833 -14 -59.5h-123v-29h81c4.66699 -8.66699 8 -24.334 10 -47.001s2.5 -47.667 1.5 -75s-3.16699 -53.5 -6.5 -78.5s-8 -44.5 -14 -58.5h-107l-32 -190c-12.667 -2.66699 -29.5 -4.66699 -50.5 -6s-43 -1.83301 -66 -1.5s-44.167 1.83301 -63.5 4.5
s-33.666 6 -42.999 10l31 188l-29 4zM351.998 317.002h50v72h-50v-72z" />
    <glyph glyph-name="dollar" unicode="$" horiz-adv-x="882" 
d="M341 -116l0.00585938 190.996h-30v-74c-48 -1.33301 -88.833 -2.66602 -122.5 -3.99902s-63.167 -2.33301 -88.5 -3s-50 -1 -74 -1c-8.66699 49.333 -13.5 96.333 -14.5 141s2.5 94 10.5 148c33.333 0 67 -3.33301 101 -10s66 -16 96 -28s55.667 -26.667 77 -44l20 21
c-20.667 16.667 -43.334 30.5 -68.001 41.5s-49.334 20.5 -74.001 28.5c-31.333 10.667 -59.833 24.667 -85.5 42s-45.834 39 -60.501 65s-22 56.667 -22 92c0 41.333 9.83301 79 29.5 113s51.334 61.5 95.001 82.5s101.5 31.833 173.5 32.5h31v72
c9.33301 2.66699 22.666 4.66699 39.999 6s36 2 56 2c18 0 36 -0.5 54 -1.5s33.667 -3.16699 47 -6.5v-175c10.667 44.667 40.667 72.334 90 83.001s121.666 12 216.999 4c9.33301 -44 14.333 -90.167 15 -138.5s-3 -99.166 -11 -152.499
c-52.667 1.33301 -96.834 8.33301 -132.501 21s-71.834 32.334 -108.501 59.001l-18 -23c25.333 -17.333 49.666 -32 72.999 -44s46.333 -23 69 -33c32 -14 59.167 -29.5 81.5 -46.5s39.333 -37.667 51 -62s17.5 -54.833 17.5 -91.5c0 -48.667 -8.66699 -87.167 -26 -115.5
s-40.333 -49.333 -69 -63s-60.167 -22.667 -94.5 -27s-68.5 -6.83301 -102.5 -7.5h-23.5c-7.66699 0 -15.167 0.333008 -22.5 1v-95c-9.33301 -2.66699 -22.666 -4.66699 -39.999 -6s-36 -2 -56 -2c-18 0 -36 0.666992 -54 2s-33.667 3.33301 -47 6z" />
    <glyph glyph-name="percent" unicode="%" horiz-adv-x="1120" 
d="M279 -75c-40 27.333 -74.166 56.3311 -102.499 86.998s-49.166 59.667 -62.499 87l94 76.5l90 76.5c-100.667 3.33301 -173.834 23.833 -219.501 61.5s-68.5 94.167 -68.5 169.5c0 85.333 25.667 147.833 77 187.5s133.333 59.5 246 59.5
c62 0 113.5 -4.16699 154.5 -12.5s72.167 -21.833 93.5 -40.5c17.333 -14.667 28.666 -34 33.999 -58s2 -49.667 -10 -77c73.333 75.333 147 155 221 239c42.667 -30 77.5 -59.667 104.5 -89s47.167 -57.666 60.5 -84.999l-79.5 -68l-75.5 -67
c-8.66699 0.666992 -17.334 1.16699 -26.001 1.5s-17.667 0.5 -27 0.5c-22 0 -42.667 -1 -62 -3l1 -28c10 0.666992 20 1.16699 30 1.5s20.333 0.5 31 0.5c79.333 0 142.833 -8.66699 190.5 -26s82.334 -43.166 104.001 -77.499s32.5 -76.833 32.5 -127.5
c0 -86 -27.833 -149 -83.5 -189s-141.167 -60 -256.5 -60c-82 0 -149 12.5 -201 37.5s-87 62.167 -105 111.5l-89.5 -90zM328.001 443.998h42v72h-42v-72zM735.001 180.998h42v72h-42v-72z" />
    <glyph glyph-name="ampersand" unicode="&#x26;" horiz-adv-x="1283" 
d="M337 -34c-102.667 0 -182.833 19.499 -240.5 58.499s-86.5 102.5 -86.5 190.5c0 36.667 5.83301 69.334 17.5 98.001s26.667 53.5 45 74.5s37.166 38.167 56.499 51.5c-22.667 38 -34 79 -34 123c0 70.667 32.167 127.167 96.5 169.5s155.833 63.5 274.5 63.5
c110 0 196 -15.5 258 -46.5s93 -78.5 93 -142.5c0 -22.667 -2.66699 -43.334 -8 -62.001s-15.333 -36 -30 -52l23 -17c15.333 17.333 26.5 36.833 33.5 58.5s10.5 45.834 10.5 72.501c18.667 -1.33301 36.167 -3 52.5 -5s35.333 -3.66699 57 -5s49.834 -2 84.501 -2
c16 0 36.167 0.5 60.5 1.5s49.666 2.33301 75.999 4s50.166 3.5 71.499 5.5c6.66699 -13.333 11.667 -31.5 15 -54.5s5.16602 -47.667 5.49902 -74s-0.833984 -50.833 -3.50098 -73.5s-7 -40 -13 -52l-276 -1v-129h29l1 93c14.667 5.33301 32.834 9.5 54.501 12.5
s44.5 4.5 68.5 4.5s47 -1.5 69 -4.5s40.667 -7.16699 56 -12.5c2 -3.33301 4.66699 -11.666 8 -24.999s6.16602 -28.833 8.49902 -46.5s3.5 -35.167 3.5 -52.5c0 -11.333 -1.66699 -26.333 -5 -45s-10.666 -38.334 -21.999 -59.001s-28.5 -40 -51.5 -58
s-54.167 -32.833 -93.5 -44.5s-88.666 -17.5 -147.999 -17.5c-43.333 0 -87.166 3.66699 -131.499 11s-86.666 22.833 -126.999 46.5s-76.5 59.834 -108.5 108.501l-24 -14c8.66699 -18.667 12 -37 10 -55s-11.167 -34.333 -27.5 -49s-41.333 -26.334 -75 -35.001
s-78.167 -13 -133.5 -13zM510.001 418.999h53v64h-53v-64zM510.001 277.999h53v64h-53v-64z" />
    <glyph glyph-name="quotesingle" unicode="'" horiz-adv-x="391" 
d="M28 469c-2.66699 8.66699 -5.33496 24.9971 -8.00195 48.9971s-5 52 -7 84s-3.5 64 -4.5 96s-1.16699 60.667 -0.5 86s2.33398 43.333 5.00098 54c15.333 13.333 39.666 23.166 72.999 29.499s69 9.5 107 9.5c26.667 0 52.834 -1.66699 78.501 -5
s48.334 -8.16602 68.001 -14.499s34.167 -14.166 43.5 -23.499c-2 -34 -6.16699 -72.167 -12.5 -114.5s-14.5 -85.166 -24.5 -128.499s-21.667 -84 -35 -122c-11.333 -5.33301 -31.333 -9.66602 -60 -12.999s-58.667 -5 -90 -5c-29.333 0 -56.5 1.5 -81.5 4.5
s-42.167 7.5 -51.5 13.5z" />
    <glyph glyph-name="parenleft" unicode="(" horiz-adv-x="471" 
d="M368 -182c-60 17.333 -112.501 43.668 -157.501 79.001s-82.5 77 -112.5 125s-52.5 100.167 -67.5 156.5s-22.5 113.5 -22.5 171.5s7.5 115.333 22.5 172s37.5 109.5 67.5 158.5s67.5 91.833 112.5 128.5s97.5 64 157.5 82c29.333 -10 53 -23.167 71 -39.5
s34.333 -34.833 49 -55.5c-30.667 -58 -53.834 -125.167 -69.501 -201.5s-23.5 -154.166 -23.5 -233.499c0 -80 7.83301 -158.333 23.5 -235s38.834 -144.334 69.501 -203.001c-12 -24 -27.667 -44.833 -47 -62.5s-43.666 -31.834 -72.999 -42.501z" />
    <glyph glyph-name="parenright" unicode=")" horiz-adv-x="471" 
d="M103 -182c60 17.333 112.501 43.668 157.501 79.001s82.5 77 112.5 125s52.5 100.167 67.5 156.5s22.5 113.5 22.5 171.5s-7.5 115.333 -22.5 172s-37.5 109.5 -67.5 158.5s-67.5 91.833 -112.5 128.5s-97.5 64 -157.5 82c-29.333 -10 -53 -23.167 -71 -39.5
s-34.333 -34.833 -49 -55.5c30.667 -58 53.834 -125.167 69.501 -201.5s23.5 -154.166 23.5 -233.499c0 -80 -7.83301 -158.333 -23.5 -235s-38.834 -144.334 -69.501 -203.001c12 -24 27.667 -44.833 47 -62.5s43.666 -31.834 72.999 -42.501z" />
    <glyph glyph-name="asterisk" unicode="*" horiz-adv-x="802" 
d="M476 101c-16.667 26 -32.168 52.6689 -46.501 80.002s-26.833 60.666 -37.5 99.999l-28 -7c7.33301 -25.333 8.66602 -49 3.99902 -71s-12.334 -41.333 -23.001 -58s-22 -29.667 -34 -39c-20.667 -2 -44.334 2.83301 -71.001 14.5s-53 27.167 -79 46.5
s-48 40.166 -66 62.499s-28.333 42.833 -31 61.5c19.333 24 39.666 47 60.999 69s49.333 44 84 66l-16 25c-21.333 -14.667 -43.333 -23.167 -66 -25.5s-43.5 -0.833008 -62.5 4.5s-34.833 12 -47.5 20c-6.66699 15.333 -9.66699 34 -9 56s4 45.167 10 69.5
s14.167 48 24.5 71s21.833 43 34.5 60s26 28.833 40 35.5c28.667 -12 56.667 -24.667 84 -38s56.666 -33 87.999 -59l19 22c-20.667 16.667 -35.667 35.167 -45 55.5s-14.5 40.5 -15.5 60.5s0.5 37 4.5 51c15.333 13.333 36.666 23.166 63.999 29.499s56.333 9.5 87 9.5
c32.667 0 63.667 -3.66699 93 -11s51 -18 65 -32c-2 -30.667 -5.16699 -61.334 -9.5 -92.001s-14.166 -65 -29.499 -103l28 -11c9.33301 24.667 22.166 44.667 38.499 60s33.833 26.5 52.5 33.5s35.334 10.833 50.001 11.5c18 -10.667 34.5 -28.5 49.5 -53.5
s27.333 -53 37 -84s15.334 -60.667 17.001 -89s-2.16602 -51.166 -11.499 -68.499c-30 -7.33301 -60 -13.833 -90 -19.5s-65.333 -7.16699 -106 -4.5l-2 -29c26.667 -0.666992 49.667 -6.66699 69 -18s35.333 -24.666 48 -39.999s21.334 -30 26.001 -44
c-4.66699 -20 -16.667 -41 -36 -63s-42.166 -42.333 -68.499 -61s-52.666 -33.167 -78.999 -43.5s-49.166 -13.833 -68.499 -10.5z" />
    <glyph glyph-name="plus" unicode="+" horiz-adv-x="617" 
d="M152 69l-0.000976562 162.999l-134 -3c-2.66699 9.33301 -4.66699 25 -6 47s-2 46.667 -2 74s0.666992 53.5 2 78.5s3.33301 44.833 6 59.5c74 -2.66699 148.333 -4.66699 223 -6c-27.333 8.66699 -47.5 18.334 -60.5 29.001s-21.5 22.667 -25.5 36
s-5.66699 27.666 -5 42.999l2 60c9.33301 2.66699 28.833 4.66699 58.5 6s61.5 2 95.5 2c31.333 0 61 -0.5 89 -1.5s48.667 -3.16699 62 -6.5v-166l71 2l71 2c2.66699 -9.33301 4.66699 -25.166 6 -47.499s2 -47.166 2 -74.499s-0.5 -53.333 -1.5 -78
s-3.16699 -44.334 -6.5 -59.001l-71 2c-24 0.666992 -47.667 1 -71 1v-163c-9.33301 -2.66699 -28.833 -4.66699 -58.5 -6s-61.5 -2 -95.5 -2c-30.667 0 -60.167 0.666992 -88.5 2s-49.166 3.33301 -62.499 6z" />
    <glyph glyph-name="comma" unicode="," horiz-adv-x="473" 
d="M139 -135c-14.667 0 -29.333 0.499023 -44 1.49902s-29.667 2.83301 -45 5.5c-7.33301 19.333 -11 41 -11 65s2.33301 45 7 63c22 -1.33301 43.167 -2 63.5 -2s39.833 3 58.5 9l-8 28c-6.66699 -2 -13.334 -3.33301 -20.001 -4s-14 -1 -22 -1
c-28.667 0 -53.834 11.667 -75.501 35s-32.5 54.333 -32.5 93c0 41.333 9.83301 75.333 29.5 102s46 46.334 79 59.001s69.5 19 109.5 19c52.667 0 96.334 -9 131.001 -27s60.667 -42.667 78 -74s26 -67 26 -107c0 -45.333 -8.66699 -84.666 -26 -117.999
s-41.166 -60.833 -71.499 -82.5s-64.833 -37.834 -103.5 -48.501s-79.667 -16 -123 -16z" />
    <glyph glyph-name="hyphen" unicode="-" horiz-adv-x="448" 
d="M18 229c-2 7.33301 -3.66699 20 -5 38s-2.33301 38.833 -3 62.5s-0.833984 47.667 -0.500977 72s1.16602 46.666 2.49902 66.999s3.33301 36.166 6 47.499h412c2 -7.33301 3.66699 -20 5 -38s2.33301 -38.833 3 -62.5s0.833984 -47.667 0.500977 -72
s-1.16602 -46.666 -2.49902 -66.999s-3.33301 -36.166 -6 -47.499h-412z" />
    <glyph glyph-name="period" unicode="." horiz-adv-x="472" 
d="M232 -35c-148 0 -222 62.333 -222 187c0 60 19 105.833 57 137.5s94 47.5 168 47.5c151.333 0 227 -61.667 227 -185c0 -60.667 -19.333 -107 -58 -139s-96 -48 -172 -48z" />
    <glyph glyph-name="slash" unicode="/" horiz-adv-x="536" 
d="M239 -190c-24 2 -49.667 5.83008 -77 11.4971s-54 12.834 -80 21.501s-49.833 17.667 -71.5 27s-38.834 18.333 -51.501 27c127.333 322.667 233.666 657.334 318.999 1004c34.667 -3.33301 70.334 -9.66602 107.001 -18.999s70.5 -20 101.5 -32s54.833 -24 71.5 -36
l-113.5 -315c-37 -104 -72.667 -212 -107 -324s-67.166 -233.667 -98.499 -365z" />
    <glyph glyph-name="zero" unicode="0" horiz-adv-x="990" 
d="M487 -35c-162.667 0 -282.833 31.335 -360.5 94.002s-116.5 155.334 -116.5 278.001c0 135.333 39.333 234.666 118 297.999s200 95 364 95c115.333 0 208.833 -13.833 280.5 -41.5s124.167 -68.834 157.5 -123.501s50 -122.667 50 -204
c0 -136.667 -40.167 -236.834 -120.5 -300.501s-204.5 -95.5 -372.5 -95.5zM467.001 293.002h56v109h-56v-109z" />
    <glyph glyph-name="one" unicode="1" horiz-adv-x="597" 
d="M32 -17c-5.33301 13.333 -9.66504 30.501 -12.998 51.501s-5.16602 43.167 -5.49902 66.5s0.333984 45.5 2.00098 66.5s4.83398 38.167 9.50098 51.5c15.333 5.33301 29.333 16 42 32s19 40.333 19 73c0 35.333 -2.66699 61 -8 77s-12.5 26.5 -21.5 31.5
s-19.5 7.83301 -31.5 8.5c-6 11.333 -10.333 27.333 -13 48s-3.83398 43.167 -3.50098 67.5s2.16602 47.666 5.49902 69.999s8.33301 40.833 15 55.5c89.333 5.33301 174.666 12.166 255.999 20.499s165.333 17.5 252 27.5c6 -18.667 10.5 -38.167 13.5 -58.5
s4.5 -39.166 4.5 -56.499c0 -31.333 -3.16699 -59.833 -9.5 -85.5l-19.5 -77c-6.66699 -25.667 -10 -54.167 -10 -85.5c0 -49.333 6.5 -85 19.5 -107s26.833 -35.667 41.5 -41c6 -20.667 9.66699 -46.167 11 -76.5s0.5 -60 -2.5 -89s-8.16699 -52.5 -15.5 -70.5
c-18.667 2 -42.834 4.16699 -72.501 6.5s-62.167 4.33301 -97.5 6s-71 2.5 -107 2.5c-32 0 -64.5 -0.833008 -97.5 -2.5s-63.833 -3.66699 -92.5 -6s-52.334 -4.5 -71.001 -6.5z" />
    <glyph glyph-name="two" unicode="2" horiz-adv-x="943" 
d="M25 -17c-20.667 102.667 -22.334 182.339 -5.00098 239.006l113 27c36 8.66699 69.5 19.5 100.5 32.5s58.167 30.333 81.5 52s42 50.167 56 85.5l-28 10c-20.667 -51.333 -56.667 -88.833 -108 -112.5s-120 -35.167 -206 -34.5
c-6.66699 42.667 -11.5 85.834 -14.5 129.501s-4.33301 85.167 -4 124.5s2 74.166 5 104.499s6.5 53.5 10.5 69.5c19.333 0 43.5 -0.333008 72.5 -1s60.167 -1.5 93.5 -2.5s65.666 -1.83301 96.999 -2.5s58.666 -1.33398 81.999 -2.00098l-25 -60
c-8 -20 -8.66699 -39.333 -2 -58c8.66699 36.667 26 65.667 52 87s58.833 36.666 98.5 45.999s83.834 14 132.501 14c61.333 0 114.666 -7.5 159.999 -22.5s80.666 -39.167 105.999 -72.5s38 -78.333 38 -135c0 -38 -6.66699 -68.333 -20 -91s-31.666 -41.5 -54.999 -56.5
s-49.833 -29.167 -79.5 -42.5s-60.5 -29.666 -92.5 -48.999l18 -23c41.333 23.333 80.666 42.166 117.999 56.499s71.666 18.166 102.999 11.499c4.66699 -19.333 7.83398 -44.333 9.50098 -75s2.33398 -62.334 2.00098 -95.001s-2.16602 -63 -5.49902 -91
s-7.66602 -49 -12.999 -63c-36.667 1.33301 -71.5 2.66602 -104.5 3.99902s-66.667 3 -101 5s-71.666 3.5 -111.999 4.5s-86.833 1.5 -139.5 1.5c-68 0 -126 -0.5 -174 -1.5s-88.333 -2.33301 -121 -4s-60 -3.33398 -82 -5.00098s-41 -3.16699 -57 -4.5z" />
    <glyph glyph-name="three" unicode="3" horiz-adv-x="929" 
d="M444 -124c-92 0 -170.499 7.66895 -235.499 23.002s-114.667 40 -149 74s-51.5 79 -51.5 135c0 58 18.167 102 54.5 132s88.166 45 155.499 45c66.667 0 115.167 -12.333 145.5 -37s49.833 -59 58.5 -103l29 4c-6.66699 32.667 -15.5 57.334 -26.5 74.001
s-21.833 29.667 -32.5 39v77l38 1v54h-53v-81c-59.333 -2.66699 -117.5 -4.83398 -174.5 -6.50098s-118.167 -1.16699 -183.5 1.5c-5.33301 49.333 -8.83301 98.833 -10.5 148.5s-1.16699 96.334 1.5 140.001s7.33398 81.5 14.001 113.5c19.333 0 43 -0.333008 71 -1
s57.833 -1.5 89.5 -2.5s62.5 -1.83301 92.5 -2.5s56.667 -1.33398 80 -2.00098l-25 -60c-8 -20 -8.66699 -39.333 -2 -58c8.66699 36.667 26 65.5 52 86.5s59.167 35.833 99.5 44.5s85.5 13 135.5 13c61.333 0 114.666 -7.33301 159.999 -22s80.666 -39.334 105.999 -74.001
s38 -82 38 -142c0 -30.667 -6.66699 -59.834 -20 -87.501s-36.666 -58.167 -69.999 -91.5c23.333 -18.667 44.166 -41.834 62.499 -69.501s27.5 -60.5 27.5 -98.5c0 -89.333 -40.667 -156.166 -122 -200.499s-199.666 -66.5 -354.999 -66.5z" />
    <glyph glyph-name="four" unicode="4" horiz-adv-x="924" 
d="M369 -117c-5.33301 13.333 -8.66211 25.4951 -9.99512 36.4951s-2.33301 27.833 -3 50.5c24 7.33301 43.667 16.833 59 28.5s28.666 26.834 39.999 45.501l-25 14c-12.667 -22 -32 -39.5 -58 -52.5s-66.667 -19.5 -122 -19.5c-6.66699 0 -17.334 0.166992 -32.001 0.5
l-43 1c-14 0.333008 -23.667 0.5 -29 0.5c-30.667 0 -55.667 -0.5 -75 -1.5s-34.666 -2.16699 -45.999 -3.5c-5.33301 13.333 -9.33301 31.5 -12 54.5s-4.16699 47.833 -4.5 74.5s0.5 52.167 2.5 76.5s5.33301 43.833 10 58.5c45.333 38.667 82.833 76 112.5 112
s54.667 70.167 75 102.5s38 62.333 53 90s30.333 52.334 46 74.001s34 39.834 55 54.501s47.5 25 79.5 31c20 4 42.833 5.5 68.5 4.5s52.5 -2.66699 80.5 -5s55.667 -3.5 83 -3.5c43.333 0 81.166 0.333008 113.499 1s55.833 2.33398 70.5 5.00098
c6 -18.667 10.5 -37 13.5 -55s4.5 -38 4.5 -60c0 -23.333 -1.83301 -43.5 -5.5 -60.5s-8 -33.667 -13 -50s-9.33301 -35 -13 -56s-5.5 -47.5 -5.5 -79.5c0 -12 1 -25.5 3 -40.5s7 -28.667 15 -41s20.667 -20.5 38 -24.5c6.66699 -10.667 11.667 -27 15 -49
s5.16602 -45.667 5.49902 -71s-0.833984 -49.333 -3.50098 -72s-7 -40 -13 -52c-14.667 -0.666992 -26 -8.16699 -34 -22.5s-13.667 -30.5 -17 -48.5s-5 -33 -5 -45c-20.667 0.666992 -49.5 2.83398 -86.5 6.50098s-78.833 5.5 -125.5 5.5c-32 0 -64.667 -0.833008 -98 -2.5
s-64.333 -3.66699 -93 -6s-52.334 -4.5 -71.001 -6.5zM369.004 279.995h52v93h-52v-93z" />
    <glyph glyph-name="five" unicode="5" horiz-adv-x="867" 
d="M418 -134c-53.333 0 -102 2.66602 -146 7.99902s-85.667 9.66602 -125 12.999s-79 2.33301 -119 -3c-6.66699 22 -11.667 47.5 -15 76.5s-5.16602 58.167 -5.49902 87.5s0.833984 55.833 3.50098 79.5s6.66699 41.167 12 52.5c24.667 8 54.167 12.333 88.5 13
s71.166 -5.16602 110.499 -17.499s78 -34.833 116 -67.5l20 21c-38.667 33.333 -84.5 59.5 -137.5 78.5s-118.167 30.167 -195.5 33.5c-4.66699 36 -8 76.333 -10 121s-2.66699 89.667 -2 135s3 87.333 7 126s9.33301 69.334 16 92.001
c44.667 -2.66699 89.334 -5.83398 134.001 -9.50098s89.334 -5.5 134.001 -5.5c43.333 0 80.166 -2.16699 110.499 -6.5s53.666 -14 69.999 -29s24.833 -38.167 25.5 -69.5c8 18 11 35.167 9 51.5s-7 35.833 -15 58.5c68 1.33301 131.167 2.83301 189.5 4.5
s104.5 2.5 138.5 2.5c5.33301 -16 9.5 -39.5 12.5 -70.5s4.5 -64.167 4.5 -99.5c0 -28 -1 -55.5 -3 -82.5s-5 -50.167 -9 -69.5c-37.333 4.66699 -74.833 13.834 -112.5 27.501s-82.167 34.834 -133.5 63.501l-13 -26c17.333 -9.33301 35.666 -18.666 54.999 -27.999l57 -27
c30 -13.333 57.833 -29 83.5 -47s46.5 -41.667 62.5 -71s24 -68.333 24 -117c0 -72.667 -19 -130.834 -57 -174.501s-90.167 -75.334 -156.5 -95.001s-142.5 -29.5 -228.5 -29.5z" />
    <glyph glyph-name="six" unicode="6" horiz-adv-x="968" 
d="M496 -34c-168.667 0 -291.831 32.668 -369.498 98.001s-116.5 157.666 -116.5 276.999c0 83.333 17 154 51 212s81 104.667 141 140s129 61 207 77s160.667 24 248 24c32 0 68.667 -1 110 -3s83.333 -4.66699 126 -8c8 -10 13.833 -25 17.5 -45s5.66699 -41.667 6 -65
s-0.666992 -45 -3 -65s-5.5 -35.333 -9.5 -46c-121.333 5.33301 -219 1 -293 -13l6 -28c13.333 2 26.666 3.66699 39.999 5s27 2 41 2c45.333 0 87.666 -7.83301 126.999 -23.5s71.333 -40.667 96 -75s37 -79.5 37 -135.5c0 -62.667 -11.833 -115 -35.5 -157
s-56.667 -75.5 -99 -100.5s-91.5 -43 -147.5 -54s-116 -16.5 -180 -16.5zM457.003 291.001h54v78h-54v-78z" />
    <glyph glyph-name="seven" unicode="7" horiz-adv-x="876" 
d="M107 -117c-8.66699 49.333 -10.1631 92.333 -4.49609 129s16.834 69.667 33.501 99s37.334 57.333 62.001 84s52 54.334 82 83.001c25.333 23.333 47.833 51.166 67.5 83.499s33.167 71.833 40.5 118.5l-29 3c-7.33301 -42 -23.333 -78 -48 -108
s-60.167 -52.333 -106.5 -67s-105.833 -20.334 -178.5 -17.001c-6.66699 42.667 -11.5 85.834 -14.5 129.501s-4.33301 85.167 -4 124.5s2 74.166 5 104.499s6.5 53.5 10.5 69.5c49.333 -4 92.166 -7.16699 128.499 -9.5s69.833 -4.16602 100.5 -5.49902
s61.667 -2.33301 93 -3s67 -1 107 -1c53.333 0 105.666 1.83301 156.999 5.5s98.166 7.83398 140.499 12.501s76.166 8.66699 101.499 12c9.33301 -47.333 14.333 -94.833 15 -142.5s-2 -93.834 -8 -138.501c-40.667 -43.333 -71 -86.5 -91 -129.5s-34.333 -86.5 -43 -130.5
c-9.33301 -48.667 -16 -99.5 -20 -152.5s-13.333 -104.167 -28 -153.5c-30.667 2 -59.834 4.16699 -87.501 6.5s-57.334 4.33301 -89.001 6s-69.167 2.5 -112.5 2.5c-58.667 0 -106 -0.833008 -142 -2.5s-64.5 -3.66699 -85.5 -6s-38.5 -4.5 -52.5 -6.5z" />
    <glyph glyph-name="eight" unicode="8" horiz-adv-x="963" 
d="M473 -35c-111.333 0 -201.169 10.1641 -269.502 30.4971s-118 49 -149 86s-46.5 80.167 -46.5 129.5c0 16 4 36.333 12 61s23.5 50.834 46.5 78.501s56.833 53.5 101.5 77.5c-24 -6 -48 -4.83301 -72 3.5s-44.167 22.833 -60.5 43.5s-24.5 45.667 -24.5 75
c0 32.667 7.5 63.667 22.5 93s40.833 55.5 77.5 78.5s87.334 41 152.001 54s146.334 19.5 245.001 19.5c57.333 0 112.5 -3.83301 165.5 -11.5s100.333 -20.667 142 -39s74.834 -43.166 99.501 -74.499s37 -70.666 37 -117.999c0 -25.333 -4.83301 -51.333 -14.5 -78
s-23.834 -51.5 -42.501 -74.5s-41.667 -41.833 -69 -56.5c20 -0.666992 39.833 -5.16699 59.5 -13.5s36.167 -22.5 49.5 -42.5s20 -47.667 20 -83s-8 -67.5 -24 -96.5s-42.5 -54.167 -79.5 -75.5s-86.5 -37.833 -148.5 -49.5s-138.667 -17.5 -230 -17.5zM459.997 435.997h52
v75h-52v-75zM459.997 263.997h52v75h-52v-75z" />
    <glyph glyph-name="nine" unicode="9" horiz-adv-x="967" 
d="M310 -127c-32 0 -68.668 0.999023 -110.001 2.99902s-83.333 4.66699 -126 8c-8 10 -13.833 25 -17.5 45s-5.66699 41.667 -6 65s0.666992 45 3 65s5.5 35.333 9.5 46c121.333 -5.33301 219 -1 293 13l-6 28c-12.667 -2 -25.834 -3.66699 -39.501 -5s-27.5 -2 -41.5 -2
c-34 0 -66.5 4.5 -97.5 13.5s-58.667 23.667 -83 44s-43.666 47.5 -57.999 81.5s-21.5 75.667 -21.5 125c0 62.667 11.833 115 35.5 157s56.667 75.5 99 100.5s91.5 43 147.5 54s116 16.5 180 16.5c168.667 0 291.834 -32.667 369.501 -98s116.5 -157.666 116.5 -276.999
c0 -72.667 -11.167 -136 -33.5 -190s-53.5 -99.667 -93.5 -137s-87 -67.5 -141 -90.5s-113.167 -39.667 -177.5 -50s-131.5 -15.5 -201.5 -15.5zM455.999 327.999h54v78h-54v-78z" />
    <glyph glyph-name="colon" unicode=":" horiz-adv-x="472" 
d="M232 359c-148 0 -222 62.333 -222 187c0 60 19 105.833 57 137.5s94 47.5 168 47.5c151.333 0 227 -61.667 227 -185c0 -60.667 -19.333 -107 -58 -139s-96 -48 -172 -48zM232 -35c-148 0 -222 62.333 -222 187c0 60 19 105.833 57 137.5s94 47.5 168 47.5
c151.333 0 227 -61.667 227 -185c0 -60.667 -19.333 -107 -58 -139s-96 -48 -172 -48z" />
    <glyph glyph-name="semicolon" unicode=";" horiz-adv-x="473" 
d="M232 359c-148 0 -222 62.333 -222 187c0 60 19 105.833 57 137.5s94 47.5 168 47.5c151.333 0 227 -61.667 227 -185c0 -60.667 -19.333 -107 -58 -139s-96 -48 -172 -48zM139 -135c-14.667 0 -29.333 0.499023 -44 1.49902s-29.667 2.83301 -45 5.5
c-7.33301 19.333 -11 41 -11 65s2.33301 45 7 63c22 -1.33301 43.167 -2 63.5 -2s39.833 3 58.5 9l-8 28c-6.66699 -2 -13.334 -3.33301 -20.001 -4s-14 -1 -22 -1c-28.667 0 -53.834 11.667 -75.501 35s-32.5 54.333 -32.5 93c0 41.333 9.83301 75.333 29.5 102
s46 46.334 79 59.001s69.5 19 109.5 19c52.667 0 96.334 -9 131.001 -27s60.667 -42.667 78 -74s26 -67 26 -107c0 -45.333 -8.66699 -84.666 -26 -117.999s-41.166 -60.833 -71.499 -82.5s-64.833 -37.834 -103.5 -48.501s-79.667 -16 -123 -16z" />
    <glyph glyph-name="less" unicode="&#x3c;" horiz-adv-x="619" 
d="M546 27c4.66699 10.667 10 25.6729 16 45.0059s11.833 40.666 17.5 63.999s10.834 46.166 15.501 68.499s8.33398 42.333 11.001 60s3.66699 30.167 3 37.5l-260 71l9 28l142 -38c22.667 -6 45 -8.83301 67 -8.5s36 3.83301 42 10.5
c0.666992 7.33301 -0.333008 20.166 -3 38.499s-6.33398 39.166 -11.001 62.499s-9.83398 47.166 -15.501 71.499s-11.5 46.5 -17.5 66.5s-11.333 35.333 -16 46c-88 -34 -176 -66.333 -264 -97s-176 -59.667 -264 -87c-2.66699 -8.66699 -4.66699 -24.167 -6 -46.5
s-2 -46.833 -2 -73.5s0.5 -52.334 1.5 -77.001s3.16699 -44 6.5 -58c88 -27.333 176 -56.333 264 -87s176 -63 264 -97z" />
    <glyph glyph-name="equal" unicode="=" horiz-adv-x="617" 
d="M18 88c-2.66699 9.33301 -4.66602 25.002 -5.99902 47.002s-2 46.667 -2 74s0.666992 53.333 2 78s3.33301 44 6 58h166v31h-172c-0.666992 13.333 -1.33398 31 -2.00098 53s-0.666992 45.333 0 70s1.66699 47.5 3 68.5s3 36.833 5 47.5c194 -8 387.667 -8 581 0
c2 -6.66699 3.5 -18.834 4.5 -36.501s1.83301 -38.167 2.5 -61.5s1 -47.333 1 -72s-0.333008 -47.667 -1 -69h-191v-31h184c2.66699 -8.66699 4.66699 -24.167 6 -46.5s2 -47 2 -74s-0.5 -52.833 -1.5 -77.5s-3.16699 -44.334 -6.5 -59.001c-193.333 8 -387 8 -581 0z" />
    <glyph glyph-name="greater" unicode="&#x3e;" horiz-adv-x="619" 
d="M73 27c-4.66699 10.667 -10 25.6729 -16 45.0059s-11.833 40.666 -17.5 63.999s-10.834 46.166 -15.501 68.499s-8.33398 42.333 -11.001 60s-3.66699 30.167 -3 37.5l260 71l-9 28l-142 -38c-22.667 -6 -45 -8.83301 -67 -8.5s-36 3.83301 -42 10.5
c-0.666992 7.33301 0.333008 20.166 3 38.499s6.33398 39.166 11.001 62.499s9.83398 47.166 15.501 71.499s11.5 46.5 17.5 66.5s11.333 35.333 16 46c88 -34 176 -66.333 264 -97s176 -59.667 264 -87c2.66699 -8.66699 4.66699 -24.167 6 -46.5s2 -46.833 2 -73.5
s-0.5 -52.334 -1.5 -77.001s-3.16699 -44 -6.5 -58c-88 -27.333 -176 -56.333 -264 -87s-176 -63 -264 -97z" />
    <glyph glyph-name="question" unicode="?" horiz-adv-x="856" 
d="M403 -35c-78 0 -135.999 14.9971 -173.999 44.9971s-57 73.333 -57 130c0 24.667 4.16699 46.834 12.5 66.501s17.833 35.834 28.5 48.501c14 -23.333 32.667 -40.666 56 -51.999s47.166 -17 71.499 -17s44.166 4.33301 59.499 13
c-56 2.66699 -99.167 17.334 -129.5 44.001s-45.5 57.667 -45.5 93c0 24.667 3.66699 46.5 11 65.5s18.5 39.667 33.5 62l56.5 83.5l-25 14c-26 -38.667 -52 -69.334 -78 -92.001s-55 -38.834 -87 -48.501s-70.667 -14.834 -116 -15.501
c-4.66699 32.667 -8 69.334 -10 110.001s-2.5 82.167 -1.5 124.5s3 82 6 119s6.5 68.5 10.5 94.5c38 -1.33301 77.167 -2.83301 117.5 -4.5s83.833 -3.16699 130.5 -4.5c-12 -14.667 -21.167 -33.167 -27.5 -55.5s-6.16602 -43.166 0.500977 -62.499
c8.66699 36.667 25.667 65.667 51 87s56.5 36.666 93.5 45.999s76.5 14 118.5 14c114 0 199 -17.167 255 -51.5s84 -93.833 84 -178.5c0 -40 -7 -74.333 -21 -103s-32 -53.167 -54 -73.5s-45.5 -38.166 -70.5 -53.499l-70.5 -43c-22 -13.333 -40 -26.833 -54 -40.5
s-21 -29.5 -21 -47.5c0 -10 3.33301 -19.833 10 -29.5s14.5 -20.167 23.5 -31.5s16.833 -24.166 23.5 -38.499s10 -30.833 10 -49.5c0 -50.667 -19 -91.334 -57 -122.001s-92.667 -46 -164 -46z" />
    <glyph glyph-name="at" unicode="@" horiz-adv-x="1148" 
d="M647 -173c-88 0 -170.504 10.9951 -247.504 32.9951s-144.667 54.667 -203 98s-104 96.666 -137 159.999s-49.5 136 -49.5 218c0 88 15 165.167 45 231.5s72 121.5 126 165.5s117 77 189 99s149.667 33 233 33c78.667 0 147.5 -9.33301 206.5 -28s109.333 -44 151 -76
s75.667 -68.167 102 -108.5s45.5 -82.166 57.5 -125.499s18 -85.666 18 -126.999c0 -63.333 -9.33301 -116.333 -28 -159s-43.834 -76.834 -75.501 -102.501s-67.167 -44.167 -106.5 -55.5s-79.666 -17 -120.999 -17c-19.333 0 -37.833 1.5 -55.5 4.5
s-31.834 8.83301 -42.501 17.5s-16 21 -16 37c0 8 1.5 16.333 4.5 25s6.83301 18.334 11.5 29.001l-26 13c-8.66699 -22 -20 -42.5 -34 -61.5s-33.333 -34.5 -58 -46.5s-57.334 -18 -98.001 -18c-78 0 -138.667 23.667 -182 71s-65 112 -65 194
c0 56.667 10.167 107.334 30.5 152.001s50.166 80.167 89.499 106.5s87.333 39.5 144 39.5c40 0 74.167 -6.16699 102.5 -18.5s51.5 -28 69.5 -47s31 -38.5 39 -58.5c2.66699 8 3.16699 19 1.5 33s-4.66699 28 -9 42s-9.5 24.667 -15.5 32
c16.667 -0.666992 33.667 -1.16699 51 -1.5s40.333 -0.5 69 -0.5h30c10 0 20 0.333008 30 1c-32 28.667 -70.667 48.834 -116 60.501s-93.666 17.5 -144.999 17.5c-89.333 0 -163.666 -14.667 -222.999 -44s-103.666 -70.666 -132.999 -123.999s-44 -115.666 -44 -186.999
c0 -76 16.167 -138.333 48.5 -187s78.333 -84.5 138 -107.5s130.167 -34.5 211.5 -34.5c67.333 0 124.833 4.16699 172.5 12.5s89.834 20.166 126.501 35.499s72.334 33.666 107.001 54.999c12.667 -7.33301 23.834 -19.666 33.501 -36.999s16.667 -36.833 21 -58.5
s4.66602 -43.334 0.999023 -65.001s-13.167 -40.5 -28.5 -56.5c-31.333 -17.333 -68.666 -30.666 -111.999 -39.999s-89.666 -15.666 -138.999 -18.999s-99.333 -5 -150 -5zM929.996 287.995h32.999v102c0 11.333 -0.5 22.333 -1.5 33s-2.16699 21 -3.5 31
c-6.66699 -20.667 -13.167 -44 -19.5 -70s-9.16602 -58 -8.49902 -96zM570.995 308.995h45v76h-45v-76z" />
    <glyph glyph-name="A" unicode="A" horiz-adv-x="1106" 
d="M27 -17c-5.33301 14 -9.66797 31.666 -13.001 52.999s-5.16602 43.5 -5.49902 66.5s0.333984 45.167 2.00098 66.5s4.83398 39 9.50098 53c21.333 4.66699 37.833 14.5 49.5 29.5s20.167 33.333 25.5 55s9.66602 44.167 12.999 67.5c4 24.667 6.66699 48.5 8 71.5
s-1.16699 42.5 -7.5 58.5s-19.833 25.667 -40.5 29c-6 12 -10.333 28.333 -13 49s-3.83398 42.834 -3.50098 66.501s2.16602 46.667 5.49902 69s8.33301 41.5 15 57.5c27.333 -2.66699 61 -5.16699 101 -7.5s93.333 -3.5 160 -3.5c45.333 0 94.5 1.83301 147.5 5.5
s107.5 7.16699 163.5 10.5s110.667 5 164 5c45.333 0 81.166 -9.5 107.499 -28.5s46.166 -43.833 59.499 -74.5s22 -63.667 26 -99s5.83301 -69.833 5.5 -103.5s-0.5 -62.834 -0.5 -87.501c0 -39.333 3.66699 -70.5 11 -93.5s17.166 -40.167 29.499 -51.5
s25.5 -19.666 39.5 -24.999c4.66699 -14 7.83398 -31.667 9.50098 -53s2.33398 -43.5 2.00098 -66.5s-2.16602 -45.167 -5.49902 -66.5s-7.66602 -39 -12.999 -53l-98.5 10c-38.333 4 -84.5 6 -138.5 6c-55.333 0 -107.5 -2 -156.5 -6s-87.167 -7.33301 -114.5 -10
c-2.66699 14 -5 31.667 -7 53s-3.33301 43.5 -4 66.5s-0.666992 45.167 0 66.5s2 39 4 53h28v50h-87v-50h28c2.66699 -14 4.5 -31.667 5.5 -53s1.16699 -43.5 0.5 -66.5s-2 -45.167 -4 -66.5s-5 -39 -9 -53l-57.5 6.5c-20.333 2.33301 -44 4.5 -71 6.5s-60.167 3 -99.5 3
c-62 0 -115.333 -1.83301 -160 -5.5s-81.667 -7.16699 -111 -10.5zM511.998 418.999h72v47h-72v-47z" />
    <glyph glyph-name="B" unicode="B" horiz-adv-x="1051" 
d="M642 -23c-58.667 0 -111.83 0.998047 -159.497 2.99805s-94.167 4.16699 -139.5 6.5s-93 3.5 -143 3.5s-106.333 -2 -169 -6c-5.33301 14 -9.5 31.5 -12.5 52.5s-4.83301 43.167 -5.5 66.5s0 45.5 2 66.5s5.33301 38.5 10 52.5c10.667 4 21 10.833 31 20.5
s18.333 25.334 25 47.001s10 52.167 10 91.5c0 42.667 -3.83301 74.834 -11.5 96.501s-16.667 36.334 -27 44.001s-19.5 11.5 -27.5 11.5c-8 20 -13.167 45 -15.5 75s-2 60.5 1 91.5s9.16699 57.167 18.5 78.5c56 -2.66699 108.5 -4.16699 157.5 -4.5
s96.667 0.166992 143 1.5l141 4c47.667 1.33301 98.5 2 152.5 2c57.333 0 109.666 -2.5 156.999 -7.5s88.5 -15.167 123.5 -30.5s62 -38 81 -68s28.5 -70 28.5 -120c0 -30 -6.66699 -58.333 -20 -85s-31.333 -51.334 -54 -74.001c39.333 -23.333 66.166 -49.5 80.499 -78.5
s21.5 -60.167 21.5 -93.5c0 -38 -6 -72.167 -18 -102.5s-32.833 -56.333 -62.5 -78s-70.334 -38.167 -122.001 -49.5s-117.167 -17 -196.5 -17zM503.004 449.998h74v54h-74v-54zM503.004 261.998h82v57h-82v-57z" />
    <glyph glyph-name="C" unicode="C" horiz-adv-x="1009" 
d="M522 -35c-122 0 -220.671 17.668 -296.004 53.001s-130.166 84.833 -164.499 148.5s-51.5 137.5 -51.5 221.5c0 86 16.667 159.333 50 220s79.5 107 138.5 139s126.833 48 203.5 48c52.667 0 97.667 -5.33301 135 -16s66.166 -29 86.499 -55s30.833 -62 31.5 -108
c9.33301 25.333 12.833 51.166 10.5 77.499s-4.83301 52.833 -7.5 79.5c32 0.666992 68.333 1.5 109 2.5s80.334 2.16699 119.001 3.5s71.334 2 98.001 2c4.66699 -20.667 8.33398 -46.5 11.001 -77.5s4.16699 -64.167 4.5 -99.5s-0.5 -70 -2.5 -104
s-5.33301 -64.333 -10 -91c-20.667 -3.33301 -46.667 -6 -78 -8s-65.166 -3.16699 -101.499 -3.5s-72.333 -0.333008 -108 0s-68.5 1.5 -98.5 3.5s-54.667 4.66699 -74 8l-1 41h-53v-129h53v47c77.333 4 153.5 6 228.5 6s154.833 -2 239.5 -6
c-3.33301 -91.333 -21.5 -166.833 -54.5 -226.5s-83.5 -104 -151.5 -133s-156.667 -43.5 -266 -43.5z" />
    <glyph glyph-name="D" unicode="D" horiz-adv-x="1013" 
d="M525 -24c-53.333 0 -100.001 0.829102 -140.001 2.49609s-77.667 3.33398 -113 5.00098s-72 2.66699 -110 3s-81.667 -0.5 -131 -2.5c-5.33301 14 -9.66602 31.5 -12.999 52.5s-5.16602 43.167 -5.49902 66.5s0.333984 45.5 2.00098 66.5s4.83398 38.5 9.50098 52.5
c14 4 26 11.5 36 22.5s17.667 28.167 23 51.5s8 55 8 95c0 38 -3.16699 67 -9.5 87s-14.5 34 -24.5 42s-21 13 -33 15c-6.66699 19.333 -11.334 43.833 -14.001 73.5s-2.5 60 0.5 91s8.83301 57.5 17.5 79.5c42.667 -4 83.167 -6 121.5 -6s77.833 0.833008 118.5 2.5
s85 3.33398 133 5.00098s103 2.5 165 2.5c141.333 0 249.5 -29.333 324.5 -88s112.5 -152.667 112.5 -282c0 -43.333 -3.83301 -86.166 -11.5 -128.499s-21.334 -82 -41.001 -119s-47.5 -69.667 -83.5 -98s-81.833 -50.666 -137.5 -66.999s-123.834 -24.5 -204.501 -24.5z
M479.999 320.996h61v129h-61v-129z" />
    <glyph glyph-name="E" unicode="E" horiz-adv-x="980" 
d="M32 -17c-5.33301 14 -9.66602 31.666 -12.999 52.999s-5.16602 43.5 -5.49902 66.5s0.333984 45.167 2.00098 66.5s4.83398 39 9.50098 53c10.667 4 21 10.833 31 20.5s18.333 25.334 25 47.001s10 52.167 10 91.5c0 42.667 -3.83301 74.834 -11.5 96.501
s-16.667 36.334 -27 44.001s-19.5 11.5 -27.5 11.5c-6 12 -10.333 28.333 -13 49s-3.83398 42.834 -3.50098 66.501s2.16602 46.667 5.49902 69s8.33301 41.5 15 57.5c10.667 -0.666992 28.167 -1.5 52.5 -2.5s52.666 -2 84.999 -3s66.166 -1.83301 101.499 -2.5
s70.166 -1.16699 104.499 -1.5s65.166 -0.5 92.499 -0.5c70 0 147.833 1 233.5 3s170.834 4.66699 255.501 8c3.33301 -12.667 6.33301 -31 9 -55s4.66699 -50.667 6 -80s2 -59 2 -89s-1 -57.5 -3 -82.5s-5 -44.5 -9 -58.5c-31.333 -4 -66 -6.66699 -104 -8
s-76.5 -1.33301 -115.5 0s-75.833 4 -110.5 8c-8 31.333 -8 62.333 0 93h-116v-42h93v-139h-94v-43h117c-8 31.333 -8 62.666 0 93.999c56 3.33301 113.333 5 172 5s113.334 -1.66699 164.001 -5c2 -12 3.66699 -31.167 5 -57.5s2 -56 2 -89s-0.5 -66.167 -1.5 -99.5
s-2.5 -63 -4.5 -89s-4.66699 -44.667 -8 -56c-70 1.33301 -146 4.16602 -228 8.49902s-162.333 6.5 -241 6.5c-42.667 0 -87.5 -0.5 -134.5 -1.5s-92.333 -2.33301 -136 -4s-82 -3.33398 -115 -5.00098s-56.833 -3.16699 -71.5 -4.5z" />
    <glyph glyph-name="F" unicode="F" horiz-adv-x="954" 
d="M34 -17c-6 14 -10.666 31.6621 -13.999 52.9951s-5.33301 43.5 -6 66.5s0.166016 45.167 2.49902 66.5s5.83301 39 10.5 53c10 4 19.833 10.833 29.5 20.5s17.834 25.334 24.501 47.001s10 52.167 10 91.5c0 42.667 -3.83301 74.834 -11.5 96.501
s-16.667 36.334 -27 44.001s-19.5 11.5 -27.5 11.5c-6 12 -10.333 28.333 -13 49s-3.83398 42.834 -3.50098 66.501s2.16602 46.667 5.49902 69s8.33301 41.5 15 57.5c11.333 -0.666992 29.166 -1.5 53.499 -2.5s52.833 -2 85.5 -3s66.834 -1.83301 102.501 -2.5
s70.834 -1.16699 105.501 -1.5s66 -0.5 94 -0.5c70.667 0 143.5 1 218.5 3s155.167 4.66699 240.5 8c3.33301 -12.667 6.33301 -33.334 9 -62.001s4.66699 -61.167 6 -97.5s2 -72.833 2 -109.5s-1 -69.667 -3 -99s-5 -50.666 -9 -63.999c-46.667 -8 -93.5 -12 -140.5 -12
s-102.167 4 -165.5 12c-6 50.667 -6 101.334 0 152.001h-119v-41h97v-167h-97c0 -17.333 6.33301 -29.666 19 -36.999s39.667 -10.333 81 -9c4.66699 -12 8.16699 -29.333 10.5 -52s3.5 -47.334 3.5 -74.001s-1.16699 -52 -3.5 -76s-6.16602 -43 -11.499 -57
c-12.667 2 -33.5 4.16699 -62.5 6.5s-60.667 4.5 -95 6.5s-66.5 3 -96.5 3c-24.667 0 -51.834 -0.5 -81.501 -1.5s-59.5 -2.33301 -89.5 -4s-58 -3.5 -84 -5.5z" />
    <glyph glyph-name="G" unicode="G" horiz-adv-x="1045" 
d="M486 -24c-157.333 0 -275.999 32.498 -355.999 97.498s-120 166.5 -120 304.5c0 90.667 16.167 166.834 48.5 228.501s78.5 108.5 138.5 140.5s131.333 48 214 48c52 0 96.5 -5.16699 133.5 -15.5s65.667 -28 86 -53s31.5 -59.833 33.5 -104.5
c10 22 13.667 45.833 11 71.5l-8 78.5c24 0 51 0.5 81 1.5l92.5 3c31.667 1 61.5 1.83301 89.5 2.5s52 1 72 1c4.66699 -20 8.33398 -45.5 11.001 -76.5s4.16699 -63.833 4.5 -98.5s-0.5 -68.5 -2.5 -101.5s-5.33301 -61.833 -10 -86.5
c-16.667 -2.66699 -39.834 -4.66699 -69.501 -6s-63 -2.16602 -100 -2.49902s-74.833 -0.333008 -113.5 0s-75.5 1.16602 -110.5 2.49902s-65.167 3.33301 -90.5 6v53h-49v-205h59v36h-34c-3.33301 16 -5 30.833 -5 44.5s2.33301 29.834 7 48.501
c27.333 -2.66699 61.833 -5.5 103.5 -8.5s92.834 -4.5 153.501 -4.5c26.667 0 56 0.5 88 1.5s63.333 2.33301 94 4s56.667 3.5 78 5.5c6.66699 -13.333 11.667 -31.5 15 -54.5s5.16602 -47.667 5.49902 -74s-0.833984 -50.833 -3.50098 -73.5s-7 -40 -13 -52
c-11.333 -0.666992 -21.166 -8.66699 -29.499 -24s-14.833 -34.5 -19.5 -57.5s-7 -46.833 -7 -71.5c-54 5.33301 -108.333 7 -163 5s-108.334 -4.83301 -161.001 -8.5s-104 -5.5 -154 -5.5z" />
    <glyph glyph-name="H" unicode="H" horiz-adv-x="1112" 
d="M32 -17c-5.33301 14 -9.67676 31.666 -13.0098 52.999s-5.16602 43.5 -5.49902 66.5s0.333984 45.167 2.00098 66.5s4.83398 39 9.50098 53c10.667 4 21 10.833 31 20.5s18.333 25.334 25 47.001s10 52.167 10 91.5c0 42.667 -3.83301 74.834 -11.5 96.501
s-16.667 36.334 -27 44.001s-19.5 11.5 -27.5 11.5c-6 12 -10.333 28.333 -13 49s-3.83398 42.834 -3.50098 66.501s2.16602 46.667 5.49902 69s8.33301 41.5 15 57.5c18.667 -1.33301 42.667 -3.16602 72 -5.49902s60.5 -4.33301 93.5 -6s64.167 -2.5 93.5 -2.5
c56.667 0 104.334 1.66699 143.001 5s72 6.33301 100 9c4 -14.667 7 -33.667 9 -57s3.33301 -47.666 4 -72.999s0.5 -49.5 -0.5 -72.5s-2.83301 -42.167 -5.5 -57.5h-24v-46h80v46h-25c-2 15.333 -3.33301 34.5 -4 57.5s-0.666992 47.167 0 72.5s2 49.666 4 72.999
s4.33301 42.333 7 57c27.333 -2.66699 61.833 -5.66699 103.5 -9s92.834 -5 153.501 -5c26.667 0 55.834 0.833008 87.501 2.5s62.167 3.66699 91.5 6l71 5.5c6.66699 -16 11.667 -35.167 15 -57.5s5.16602 -45.333 5.49902 -69s-0.833984 -45.834 -3.50098 -66.501
s-7 -37 -13 -49c-8 0 -17.167 -3.83301 -27.5 -11.5s-19.333 -22.334 -27 -44.001s-11.5 -53.834 -11.5 -96.501c0 -39.333 3.33301 -69.833 10 -91.5s15 -37.334 25 -47.001s20.333 -16.5 31 -20.5c4.66699 -14 7.83398 -31.667 9.50098 -53s2.33398 -43.5 2.00098 -66.5
s-2.16602 -45.167 -5.49902 -66.5s-7.66602 -39 -12.999 -53l-99.5 10c-39 4 -88.167 6 -147.5 6c-53.333 0 -102.666 -2 -147.999 -6s-81.666 -7.33301 -108.999 -10c-2.66699 14 -5 32.167 -7 54.5s-3.33301 45.666 -4 69.999s-0.666992 47.666 0 69.999s2 40.5 4 54.5h25
v51h-80v-51h24c2.66699 -14 4.5 -32.167 5.5 -54.5s1.16699 -45.666 0.5 -69.999s-2 -47.666 -4 -69.999s-5 -40.5 -9 -54.5l-58.5 6.5c-20.333 2.33301 -45.166 4.5 -74.499 6.5s-66.333 3 -111 3c-54 0 -102.667 -1.83301 -146 -5.5s-79.666 -7.16699 -108.999 -10.5z" />
    <glyph glyph-name="I" unicode="I" horiz-adv-x="612" 
d="M33 -17c-6 14 -10.666 31.6641 -13.999 52.9971s-5.33301 43.5 -6 66.5s0.166016 45.167 2.49902 66.5s5.83301 39 10.5 53c10 4 20.167 10.833 30.5 20.5s18.833 25.334 25.5 47.001s10 52.167 10 91.5c0 42.667 -4 74.834 -12 96.501s-17.167 36.334 -27.5 44.001
s-19.166 11.5 -26.499 11.5c-6 12 -10.667 28.333 -14 49s-4.83301 42.834 -4.5 66.501s2.33301 46.667 6 69s9.16699 41.5 16.5 57.5c20 -1.33301 45.667 -3.33301 77 -6s64.5 -4.83398 99.5 -6.50098s67.5 -2.5 97.5 -2.5c33.333 0 67.666 0.833008 102.999 2.5
s68.666 3.83398 99.999 6.50098s57 4.66699 77 6c6.66699 -16 11.667 -35.167 15 -57.5s5 -45.5 5 -69.5s-1.33301 -46.333 -4 -67s-7 -37 -13 -49c-10 0 -20 -3.83301 -30 -11.5s-18.333 -22.167 -25 -43.5s-10 -53.333 -10 -96c0 -39.333 3.5 -69.833 10.5 -91.5
s15.5 -37.334 25.5 -47.001s20 -16.5 30 -20.5c5.33301 -14 9 -31.667 11 -53s2.66699 -43.5 2 -66.5s-2.66699 -45.167 -6 -66.5s-8 -39 -14 -53c-20 2 -45.667 4.16699 -77 6.5s-64.666 4.5 -99.999 6.5s-69.666 3 -102.999 3c-30.667 0 -62.834 -1 -96.501 -3
s-65.667 -4.16699 -96 -6.5s-55.5 -4.5 -75.5 -6.5z" />
    <glyph glyph-name="J" unicode="J" horiz-adv-x="883" 
d="M405 -34c-126.667 0 -224.166 24.999 -292.499 74.999s-102.5 120 -102.5 210c0 36.667 6.83301 70.667 20.5 102s35.5 56.833 65.5 76.5s69 29.5 117 29.5c17.333 0 35.666 -1.5 54.999 -4.5s38.166 -10.333 56.499 -22s35 -30.167 50 -55.5s26.5 -60 34.5 -104l27 5
c-6.66699 50 -23.167 94.167 -49.5 132.5s-62.166 68.333 -107.499 90s-100 32.5 -164 32.5c-6 12 -10.667 28.333 -14 49s-4.83301 42.834 -4.5 66.501s2.33301 46.667 6 69s9.16699 41.5 16.5 57.5c111.333 -6 202.166 -10 272.499 -12s128.166 -3 173.499 -3
c36.667 0 73.334 0.833008 110.001 2.5s70.834 3.83398 102.501 6.50098s57.5 4.66699 77.5 6c6.66699 -16 11.667 -35.167 15 -57.5s5 -45.5 5 -69.5s-1.33301 -46.333 -4 -67s-7 -37 -13 -49c-10 0 -20 -2.66699 -30 -8s-18.333 -15.833 -25 -31.5
s-10 -39.834 -10 -72.501c0 -31.333 2.16699 -61 6.5 -89s6.5 -54.333 6.5 -79c0 -68 -16.167 -123 -48.5 -165s-78.5 -72.667 -138.5 -92s-131.333 -29 -214 -29z" />
    <glyph glyph-name="K" unicode="K" horiz-adv-x="1114" 
d="M32 -17c-5.33301 14 -9.66797 31.6621 -13.001 52.9951s-5.16602 43.5 -5.49902 66.5s0.333984 45.167 2.00098 66.5s4.83398 39 9.50098 53c10.667 4 21 10.833 31 20.5s18.333 25.334 25 47.001s10 52.167 10 91.5c0 42.667 -3.83301 74.834 -11.5 96.501
s-16.667 36.334 -27 44.001s-19.5 11.5 -27.5 11.5c-6 12 -10.333 28.333 -13 49s-3.83398 42.834 -3.50098 66.501s2.16602 46.667 5.49902 69s8.33301 41.5 15 57.5c18.667 -1.33301 43 -3.16602 73 -5.49902s63.333 -4.33301 100 -6s74 -2.5 112 -2.5
c49.333 0 91.166 1.66699 125.499 5l92.5 9c4 -16 7.16699 -35.833 9.5 -59.5s3.66602 -48.5 3.99902 -74.5s-0.166992 -50.167 -1.5 -72.5s-3.66602 -39.5 -6.99902 -51.5h-33l-1 -103c30 31.333 49.333 65.333 58 102s13 76.334 13 119.001c0 20 -0.833008 41.667 -2.5 65
s-3.83398 48.333 -6.50098 75c18.667 -1.33301 39.167 -3.33301 61.5 -6s51.666 -5 87.999 -7s83.833 -3 142.5 -3c36 0 65.833 1 89.5 3s45.167 4.16699 64.5 6.5s39.666 4.5 60.999 6.5c5.33301 -14 9.66602 -31.667 12.999 -53s5.16602 -43.5 5.49902 -66.5
s-0.333984 -45.167 -2.00098 -66.5s-4.83398 -39 -9.50098 -53c-28.667 -2 -53.167 -7.66699 -73.5 -17s-38.5 -21 -54.5 -35c7.33301 -74.667 22.833 -132.167 46.5 -172.5s55.834 -70.166 96.501 -89.499c4.66699 -14 7.83398 -31.667 9.50098 -53
s2.33398 -43.5 2.00098 -66.5s-2.16602 -45.167 -5.49902 -66.5s-7.66602 -39 -12.999 -53c-27.333 2.66699 -57.666 6 -90.999 10s-74.666 6 -123.999 6c-62 0 -111.833 -1 -149.5 -3s-68 -4.16699 -91 -6.5l-62.5 -6.5c2 24 3.66699 46.167 5 66.5s2 39.166 2 56.499
c0 27.333 -1.16699 53.166 -3.5 77.499s-8.66602 47.5 -18.999 69.5s-27.166 42.667 -50.499 62v-93h37c2.66699 -12 4.5 -28.333 5.5 -49s1.16699 -43 0.5 -67s-2 -47 -4 -69s-5 -40 -9 -54c-18.667 2 -37.167 4.16699 -55.5 6.5s-40.333 4.5 -66 6.5s-58.5 3 -98.5 3
c-66.667 0 -122.834 -1.83301 -168.501 -5.5s-83.167 -7.16699 -112.5 -10.5z" />
    <glyph glyph-name="L" unicode="L" horiz-adv-x="909" 
d="M31 -17c-6 16 -10.3301 35.0078 -12.9971 57.0078s-4.33398 44.667 -5.00098 68s0.166016 45.166 2.49902 65.499s5.5 36.5 9.5 48.5c8 2.66699 17.167 8.16699 27.5 16.5s19.333 23.166 27 44.499s11.5 52.666 11.5 93.999c0 40 -3.16699 71 -9.5 93
s-14.5 37.667 -24.5 47s-20.667 14.666 -32 15.999c-6 14 -10.333 31.833 -13 53.5s-3.83398 44.167 -3.50098 67.5s2.16602 45.833 5.49902 67.5s8.33301 39.5 15 53.5c16 -1.33301 36.667 -2.83301 62 -4.5s52.5 -3.33398 81.5 -5.00098s57.167 -3 84.5 -4
s51.333 -1.5 72 -1.5c30 0 61.167 0.833008 93.5 2.5s62.333 3.83398 90 6.50098s49.834 4.66699 66.501 6c6 -14 10.167 -32.667 12.5 -56s3.16602 -47.833 2.49902 -73.5s-2.33398 -50.167 -5.00098 -73.5s-6.66699 -42 -12 -56c-16 0 -27.833 -6.16699 -35.5 -18.5
s-12.667 -28.5 -15 -48.5s-3.5 -41.333 -3.5 -64v-104h29c-1.33301 31.333 -1.16602 61.666 0.500977 90.999s3.83398 50.333 6.50098 63c30.667 5.33301 65.5 8.83301 104.5 10.5s78.333 1.66699 118 0s75.167 -5.16699 106.5 -10.5c4 -17.333 7.16699 -41.833 9.5 -73.5
s3.66602 -66.667 3.99902 -105s0.166016 -76 -0.500977 -113s-2.16699 -69.833 -4.5 -98.5s-5.16602 -49.334 -8.49902 -62.001c-66.667 1.33301 -136.167 4.16602 -208.5 8.49902s-146.166 6.5 -221.499 6.5c-37.333 0 -77.5 -0.5 -120.5 -1.5s-85.167 -2.33301 -126.5 -4
s-78 -3.33398 -110 -5.00098s-55.333 -3.16699 -70 -4.5z" />
    <glyph glyph-name="M" unicode="M" horiz-adv-x="1218" 
d="M27 -17c-5.33301 14 -9.66797 31.6709 -13.001 53.0039s-5.16602 43.5 -5.49902 66.5s0.333984 45.167 2.00098 66.5s4.83398 39 9.50098 53c10.667 4 22 10.667 34 20s23.5 24.666 34.5 45.999s19.5 51.333 25.5 90c5.33301 32 6.66602 58.167 3.99902 78.5
s-7.5 36 -14.5 47s-14.333 18.667 -22 23s-14.167 6.5 -19.5 6.5c-6 12 -10.333 28.333 -13 49s-3.83398 42.834 -3.50098 66.501s2.16602 46.667 5.49902 69s8.33301 41.5 15 57.5c25.333 -2.66699 56.166 -5.66699 92.499 -9s77.5 -5 123.5 -5
c37.333 0 76.833 0.666992 118.5 2s82.167 3 121.5 5s73.666 4.33301 102.999 7c-4 -25.333 -4.83301 -57 -2.5 -95s12.5 -74.667 30.5 -110c0.666992 36.667 1.83398 73.5 3.50098 110.5s4.83398 68.5 9.50098 94.5c28 -1.33301 54.333 -3.16602 79 -5.49902
s50.5 -4.33301 77.5 -6s57.833 -2.5 92.5 -2.5c22.667 0 48.667 0.833008 78 2.5s57.666 3.66699 84.999 6l66 5.5c6.66699 -16 11.667 -35.167 15 -57.5s5.16602 -45.333 5.49902 -69s-0.833984 -45.834 -3.50098 -66.501s-7 -37 -13 -49
c-4.66699 0 -10.834 -2.16699 -18.501 -6.5s-14.667 -12 -21 -23s-10.166 -26.333 -11.499 -46s1.33398 -45.5 8.00098 -77.5c8.66699 -38.667 18.167 -68.834 28.5 -90.501s21 -37.334 32 -47.001s21.833 -16.5 32.5 -20.5c4.66699 -14 7.83398 -31.667 9.50098 -53
s2.33398 -43.5 2.00098 -66.5s-2.16602 -45.167 -5.49902 -66.5s-7.66602 -39 -12.999 -53l-99.5 10c-39 4 -88.167 6 -147.5 6c-56.667 0 -110.5 -2 -161.5 -6s-90.167 -7.33301 -117.5 -10c-2.66699 14 -5 31.667 -7 53s-3.33301 43.5 -4 66.5s-0.666992 45.167 0 66.5
s2 39 4 53h35l-10 112l-59 -170l-194 85l-12 -27l109 -49c15.333 -6.66699 30 -13.834 44 -21.501s26 -17.834 36 -30.501s16.833 -29.834 20.5 -51.501s2.83398 -50.5 -2.49902 -86.5c-12.667 1.33301 -30.334 2.83301 -53.001 4.5s-47.834 3.33398 -75.501 5.00098
s-56 3.16699 -85 4.5s-56.167 2 -81.5 2c-74 0 -136.5 -2 -187.5 -6s-89.5 -7.33301 -115.5 -10z" />
    <glyph glyph-name="N" unicode="N" horiz-adv-x="1069" 
d="M32 -17c-5.33301 14 -9.67383 31.6631 -13.0068 52.9961s-5.16602 43.5 -5.49902 66.5s0.333984 45.167 2.00098 66.5s4.83398 39 9.50098 53c10.667 4 21 10.833 31 20.5s18.333 25.334 25 47.001s10 52.167 10 91.5c0 42.667 -3.83301 74.834 -11.5 96.501
s-16.667 36.334 -27 44.001s-19.5 11.5 -27.5 11.5c-6 12 -10.333 28.333 -13 49s-3.83398 42.834 -3.50098 66.501s2.16602 46.667 5.49902 69s8.33301 41.5 15 57.5c18.667 -1.33301 40.5 -3.16602 65.5 -5.49902s50.667 -4.33301 77 -6s50.833 -2.5 73.5 -2.5
c48.667 0 99.834 1.16699 153.501 3.5s116.167 5.83301 187.5 10.5c-10.667 -44 -14.834 -80 -12.501 -108s14.5 -52.333 36.5 -73s56 -42 102 -64l13 26c-42 20 -72.5 38.833 -91.5 56.5s-29.167 39 -30.5 64s3 57.833 13 98.5
c28.667 -0.666992 61.167 -3.33398 97.5 -8.00098s77.833 -7 124.5 -7c41.333 0 78.833 1.83301 112.5 5.5s64.167 6.83398 91.5 9.50098c6 -16 10.667 -35.167 14 -57.5s5 -45.5 5 -69.5s-1.33301 -46.333 -4 -67s-6.66699 -37 -12 -49c-8 0 -17.167 -3.83301 -27.5 -11.5
s-19.166 -22.167 -26.499 -43.5s-11 -53.333 -11 -96c0 -39.333 3.33301 -69.833 10 -91.5s15 -37.334 25 -47.001s20.333 -16.5 31 -20.5c4.66699 -14 7.83398 -31.667 9.50098 -53s2.33398 -43.5 2.00098 -66.5s-2.16602 -45.167 -5.49902 -66.5s-7.66602 -39 -12.999 -53
c-26.667 3.33301 -60.167 6.83301 -100.5 10.5s-82.166 5.5 -125.499 5.5c-56 0 -110.333 -2 -163 -6s-109.667 -7.33301 -171 -10c9.33301 44 13 81 11 111s-11 56.5 -27 79.5s-40 44.833 -72 65.5l-16 -24c28.667 -19.333 49.667 -39.5 63 -60.5s20.5 -45.333 21.5 -73
s-2.83301 -60.5 -11.5 -98.5l-80.5 10c-31.667 4 -69.167 6 -112.5 6c-40.667 0 -81.167 -2 -121.5 -6z" />
    <glyph glyph-name="O" unicode="O" horiz-adv-x="1008" 
d="M495 -35c-160 0 -280.833 33.999 -362.5 101.999s-122.5 168.667 -122.5 302c0 146.667 41.333 254.334 124 323.001s204.667 103 366 103c172 0 298 -33.833 378 -101.5s120 -167.167 120 -298.5c0 -148.667 -42.333 -257.5 -127 -326.5s-210 -103.5 -376 -103.5z
M473 315.999h61v129h-61v-129z" />
    <glyph glyph-name="P" unicode="P" horiz-adv-x="1024" 
d="M34 -17c-6 14 -10.667 31.6621 -14 52.9951s-5.33301 43.5 -6 66.5s0.166016 45.167 2.49902 66.5s5.83301 39 10.5 53c10 4 19.833 10.833 29.5 20.5s17.834 25.334 24.501 47.001s10 52.167 10 91.5c0 42.667 -3.83301 74.834 -11.5 96.501s-16.667 36.334 -27 44.001
s-19.5 11.5 -27.5 11.5c-6 12 -10.333 28.333 -13 49s-3.83398 42.834 -3.50098 66.501s2.16602 46.667 5.49902 69s8.33301 41.5 15 57.5c49.333 -2 93.833 -2.33301 133.5 -1s79.334 3.33301 119.001 6s83 5.16699 130 7.5s102.5 3.5 166.5 3.5
c94 0 173.333 -8.16699 238 -24.5s113.834 -46 147.501 -89s50.5 -104.167 50.5 -183.5c0 -68.667 -12.833 -123.667 -38.5 -165s-62.5 -71.166 -110.5 -89.499s-105.667 -27.5 -173 -27.5c-42.667 0 -76.667 3.5 -102 10.5s-48.666 22.833 -69.999 47.5l-21 -19
c17.333 -20.667 38.333 -36.5 63 -47.5s55.334 -17.167 92.001 -18.5c6 -18.667 9.83301 -40 11.5 -64s1 -48 -2 -72s-8.16699 -45.667 -15.5 -65c-32.667 2.66699 -77.834 6 -135.501 10s-123.5 5.66699 -197.5 5c-37.333 0 -74 -1 -110 -3s-68.833 -4.16699 -98.5 -6.5
s-53.834 -4.5 -72.501 -6.5zM499 423.995h61v67h-61v-67z" />
    <glyph glyph-name="Q" unicode="Q" horiz-adv-x="1008" 
d="M767 -173c-70.667 0 -127.67 11.9961 -171.003 35.9961s-65 61.667 -65 113c0 25.333 3.16699 45.833 9.5 61.5s15.833 30.834 28.5 45.501c-25.333 -8 -45 -23 -59 -45s-22.667 -46.333 -26 -73c-150.667 0 -267.334 34.667 -350.001 104s-124 172.333 -124 309
c0 141.333 41.333 246.166 124 314.499s204.667 102.5 366 102.5c172 0 298 -33.167 378 -99.5s120 -160.166 120 -281.499c0 -55.333 -7.33301 -101.666 -22 -138.999s-33 -67.666 -55 -90.999s-44 -41.666 -66 -54.999v-80h31l1 87
c16.667 3.33301 34.334 5.66602 53.001 6.99902s36 0.333008 52 -3c5.33301 -40 7.83301 -78.833 7.5 -116.5s-7.16602 -71.167 -20.499 -100.5s-36.666 -52.666 -69.999 -69.999s-80.666 -26 -141.999 -26zM472.997 315.996h61v129h-61v-129z" />
    <glyph glyph-name="R" unicode="R" horiz-adv-x="1066" 
d="M34 -17c-6 14 -10.6709 31.6631 -14.0039 52.9961s-5.33301 43.5 -6 66.5s0.166016 45.167 2.49902 66.5s5.83301 39 10.5 53c10 4 19.833 10.833 29.5 20.5s17.834 25.334 24.501 47.001s10 52.167 10 91.5c0 42.667 -3.83301 74.834 -11.5 96.501
s-16.667 36.334 -27 44.001s-19.5 11.5 -27.5 11.5c-6 12 -10.333 28.333 -13 49s-3.83398 42.834 -3.50098 66.501s2.16602 46.667 5.49902 69s8.33301 41.5 15 57.5c49.333 -2 93.833 -2.33301 133.5 -1s79.334 3.33301 119.001 6s83 5.16699 130 7.5s102.5 3.5 166.5 3.5
c94 0 174.167 -8.16699 240.5 -24.5s117.166 -45.166 152.499 -86.499s52.666 -100 51.999 -176c0 -38.667 -6.16699 -73.5 -18.5 -104.5s-30.166 -57.167 -53.499 -78.5c13.333 -26.667 28.666 -48 45.999 -64s33.666 -27.667 48.999 -35
c4.66699 -14 7.83398 -31.667 9.50098 -53s2.33398 -43.5 2.00098 -66.5s-2.16602 -45.167 -5.49902 -66.5s-7.66602 -39 -12.999 -53l-49.5 6.5c-18.333 2.33301 -40.166 4.5 -65.499 6.5s-56.666 3 -93.999 3c-50 0 -91.167 -1 -123.5 -3s-59.333 -4.16699 -81 -6.5
l-58.5 -6.5c7.33301 54 10.833 101.333 10.5 142s-6.16602 76.334 -17.499 107.001s-30.666 58 -57.999 82v-92l36 -1c6 -22.667 9.5 -48.834 10.5 -78.501s0 -58.667 -3 -87s-7.83301 -52.166 -14.5 -71.499l-110 10c-45.333 4 -94.666 5.66699 -147.999 5
c-46.667 -0.666992 -91.334 -2.83398 -134.001 -6.50098s-77.667 -6.83398 -105 -9.50098zM497.996 420.996h61v69h-61v-69z" />
    <glyph glyph-name="S" unicode="S" horiz-adv-x="934" 
d="M611 -32c-94.667 0 -165.172 11.502 -211.505 34.502s-70.166 63.833 -71.499 122.5c-8.66699 -24.667 -11.5 -47.667 -8.5 -69s8.16699 -42.333 15.5 -63c-71.333 -2 -130.666 -4.16699 -177.999 -6.5s-90.333 -3.16602 -129 -2.49902
c-10 53.333 -15.5 106.166 -16.5 158.499s2.83301 107.833 11.5 166.5c36.667 0 73.334 -3.66699 110.001 -11s71.334 -17.5 104.001 -30.5s60.667 -28.833 84 -47.5l20 21c-22.667 18 -47.167 33.167 -73.5 45.5s-52.833 22.833 -79.5 31.5c-34 12 -64.833 27.333 -92.5 46
s-49.5 42 -65.5 70s-24 61.333 -24 100c0 48 11 91.5 33 130.5s58.167 70 108.5 93s118.166 34.5 203.499 34.5c84.667 0 149.334 -11.833 194.001 -35.5s67.667 -67.167 69 -130.5c9.33301 25.333 12.333 49 9 71s-8.66602 45.333 -15.999 70c48 0.666992 88 1.5 120 2.5
s60.333 2.16699 85 3.5s49.667 2 75 2c10 -48 15.5 -99.833 16.5 -155.5s-2.83301 -112.5 -11.5 -170.5c-38 0.666992 -71.833 4.16699 -101.5 10.5s-57.167 15.833 -82.5 28.5s-51.333 28.334 -78 47.001l-18 -23c25.333 -18.667 51.333 -34.5 78 -47.5l75 -35.5
c34.667 -15.333 64 -32.333 88 -51s42.5 -41.334 55.5 -68.001s19.5 -60 19.5 -100c0 -55.333 -9.5 -99.333 -28.5 -132s-44.167 -56.834 -75.5 -72.501s-65.5 -25.834 -102.5 -30.501s-73.833 -7 -110.5 -7z" />
    <glyph glyph-name="T" unicode="T" horiz-adv-x="1001" 
d="M239 -17c-5.33301 14 -9.67285 31.666 -13.0059 52.999s-5.16602 43.5 -5.49902 66.5s0.333984 45.167 2.00098 66.5s4.83398 39 9.50098 53c21.333 5.33301 37.666 20.166 48.999 44.499s17 65.833 17 124.5v72h-32c6 -50.667 5 -100.667 -3 -150
c-26 -5.33301 -50.667 -8.83301 -74 -10.5s-48 -1.66699 -74 0s-56.333 5.16699 -91 10.5c-4 23.333 -7 52.166 -9 86.499s-3 70.666 -3 108.999s0.666992 75.5 2 111.5s3.33301 67.833 6 95.5s5.66699 47.834 9 60.501c39.333 0 98.666 -2.5 177.999 -7.5
s180.333 -7.5 303 -7.5c83.333 0 154.666 1.33301 213.999 4s109.5 5.16699 150.5 7.5s74.833 3.5 101.5 3.5c3.33301 -14.667 6.33301 -36.5 9 -65.5s4.66699 -61.667 6 -98s2 -73.333 2 -111s-1 -73 -3 -106s-5 -60.5 -9 -82.5
c-34.667 -5.33301 -64.667 -8.83301 -90 -10.5s-49.833 -1.66699 -73.5 0s-50.5 5.16699 -80.5 10.5c-8 48.667 -9 98.334 -3 149.001h-32v-71c0 -39.333 3.5 -70.666 10.5 -93.999s16.167 -40.666 27.5 -51.999s24 -19 38 -23c4.66699 -14 7.83398 -31.667 9.50098 -53
s2.33398 -43.5 2.00098 -66.5s-2.16602 -45.167 -5.49902 -66.5s-7.66602 -39 -12.999 -53c-29.333 3.33301 -66.166 6.83301 -110.499 10.5s-96.166 5.5 -155.499 5.5c-62 0 -114.5 -1.83301 -157.5 -5.5s-79.167 -7.16699 -108.5 -10.5z" />
    <glyph glyph-name="U" unicode="U" horiz-adv-x="1076" 
d="M533 -35c-79.333 0 -150.165 6.33496 -212.498 19.002s-113.166 35.167 -152.499 67.5s-64.333 77.833 -75 136.5c-6.66699 38.667 -8.66699 75.667 -6 111s4 72.666 4 111.999c0 32.667 -3.16699 57.667 -9.5 75s-14.5 29.5 -24.5 36.5s-20.667 10.5 -32 10.5
c-6 12 -10.333 28.333 -13 49s-3.83398 42.834 -3.50098 66.501s2.16602 46.667 5.49902 69s8.33301 41.5 15 57.5c18.667 -1.33301 41.834 -3.16602 69.501 -5.49902s57.667 -4.33301 90 -6s64.166 -2.5 95.499 -2.5c45.333 0 87.333 1.66699 126 5s72 6.33301 100 9
c8 -31.333 12.5 -68.833 13.5 -112.5s-2.16699 -92.834 -9.5 -147.501v-196h42v196c-8.66699 54.667 -12 103.834 -10 147.501s7.33301 81.167 16 112.5l98.5 -9c37.667 -3.33301 81.5 -5 131.5 -5c31.333 0 63.166 0.833008 95.499 2.5s62.5 3.66699 90.5 6
s51 4.16602 69 5.49902c6.66699 -16 11.667 -35.167 15 -57.5s5.16602 -45.333 5.49902 -69s-0.833984 -45.834 -3.50098 -66.501s-7 -37 -13 -49c-16.667 -0.666992 -31.834 -8 -45.501 -22s-20.5 -40.667 -20.5 -80c0 -42 1.33301 -82.167 4 -120.5
s0.333984 -74.5 -6.99902 -108.5c-13.333 -61.333 -38.166 -109.333 -74.499 -144s-85.166 -58.834 -146.499 -72.501s-137.333 -20.5 -228 -20.5z" />
    <glyph glyph-name="V" unicode="V" horiz-adv-x="1096" 
d="M341 -19c-36.667 0 -65.3242 8.49219 -85.9912 25.4922s-38 38.833 -52 65.5c-16 30.667 -29.333 65.334 -40 104.001s-19.834 78.334 -27.501 119.001l-22.5 116c-8.66699 47.333 -21.167 79.333 -37.5 96s-33.166 25.334 -50.499 26.001c-6 12 -10.333 28.333 -13 49
s-3.83398 42.834 -3.50098 66.501s2.16602 46.667 5.49902 69s8.33301 41.5 15 57.5c27.333 -2.66699 66.166 -5.66699 116.499 -9s106.5 -5 168.5 -5c45.333 0 90.166 1.66699 134.499 5s80.166 6.33301 107.499 9c-12 -47.333 -17.167 -98.333 -15.5 -153
s8.66699 -109.667 21 -165s28.166 -107.666 47.499 -156.999l-1 215h-29c-8 54.667 -10.833 103.834 -8.5 147.501s7.83301 81.167 16.5 112.5l59 -6.5c20.667 -2.33301 46.5 -4.16602 77.5 -5.49902s70.5 -2 118.5 -2c21.333 0 46 0.833008 74 2.5s55.667 3.66699 83 6
s50 4.16602 68 5.49902c6.66699 -16 11.667 -35.167 15 -57.5s5.16602 -45.333 5.49902 -69s-0.833984 -45.834 -3.50098 -66.501s-7 -37 -13 -49c-16.667 -0.666992 -31.334 -8.16699 -44.001 -22.5s-23.334 -40.833 -32.001 -79.5
c-14 -61.333 -26.5 -119.166 -37.5 -173.499s-23.833 -102.166 -38.5 -143.499s-33.667 -73.666 -57 -96.999s-54 -35 -92 -35c-20 0 -37.667 0.666992 -53 2s-30.5 3 -45.5 5s-32.333 3.66699 -52 5s-43.834 2 -72.501 2c-36.667 0 -66.667 -1.33301 -90 -4
s-43.666 -5.16699 -60.999 -7.5s-35.666 -3.5 -54.999 -3.5z" />
    <glyph glyph-name="W" unicode="W" horiz-adv-x="1336" 
d="M290 -19c-38 0 -68.4951 11.502 -91.4951 34.502s-40.667 54.333 -53 94s-21.5 85.334 -27.5 137.001s-11 106.5 -15 164.5c-2 32.667 -7.83301 57.667 -17.5 75s-20.167 29.5 -31.5 36.5s-21 10.5 -29 10.5c-6 12 -10.333 28.333 -13 49
s-3.83398 42.834 -3.50098 66.501s2.16602 46.667 5.49902 69s8.33301 41.5 15 57.5c14 -1.33301 32.667 -2.83301 56 -4.5s48.833 -3.16699 76.5 -4.5s55.5 -2.5 83.5 -3.5s53.333 -1.5 76 -1.5c24 0 49.667 0.833008 77 2.5s53.833 3.66699 79.5 6
s47.5 4.16602 65.5 5.49902c-8 -28 -13.167 -59 -15.5 -93s-1.66602 -68.667 2.00098 -104s10.334 -68.666 20.001 -99.999s22.5 -58 38.5 -80v117h-23c-8 53.333 -10.833 102.166 -8.5 146.499s7.83301 82.166 16.5 113.499c11.333 -2.66699 28.166 -5 50.499 -7
s47.833 -3.5 76.5 -4.5s57.334 -1.5 86.001 -1.5c17.333 0 38.166 0.5 62.499 1.5s48 2.5 71 4.5s41.167 4.33301 54.5 7c-4 -20.667 -7.5 -43.834 -10.5 -69.501s-3.66699 -52 -2 -79s7.33398 -53.167 17.001 -78.5s25.167 -48 46.5 -68l21 20
c-32.667 29.333 -50.834 67.666 -54.501 114.999s0.166016 100.666 11.499 159.999c24.667 -4 49.834 -6.83301 75.501 -8.5s50.834 -2.5 75.501 -2.5c29.333 0 57.333 1 84 3s49.667 4.66699 69 8c6.66699 -16 11.667 -35.167 15 -57.5s5.16602 -45.333 5.49902 -69
s-0.833984 -45.834 -3.50098 -66.501s-7 -37 -13 -49c-12.667 -0.666992 -26.167 -8 -40.5 -22s-23.5 -40.667 -27.5 -80c-6 -60.667 -12.333 -118.167 -19 -172.5s-15.834 -102.166 -27.501 -143.499s-28.667 -73.833 -51 -97.5s-52.5 -35.5 -90.5 -35.5
c-19.333 0 -43 0.833008 -71 2.5s-58.167 3.83398 -90.5 6.50098s-65.166 4.83398 -98.499 6.50098s-64.666 2.5 -93.999 2.5c-4.66699 14.667 -8.83398 33 -12.501 55s-6.33398 45.5 -8.00098 70.5s-2.5 48.5 -2.5 70.5c-9.33301 -22.667 -15.833 -46.334 -19.5 -71.001
s-5 -48 -4 -70s3.83301 -40.667 8.5 -56c-102.667 -2 -186.334 -5.5 -251.001 -10.5s-105.334 -7.5 -122.001 -7.5z" />
    <glyph glyph-name="X" unicode="X" horiz-adv-x="1086" 
d="M29 -15c-6.66699 16 -11.6641 35.1631 -14.9971 57.4961s-5.16602 45.333 -5.49902 69s0.833984 45.834 3.50098 66.501s7 37 13 49c31.333 -1.33301 61.333 8 90 28s57.667 51.333 87 94c-26 49.333 -54 91.5 -84 126.5s-61 54.167 -93 57.5
c-6 12 -10.333 28.333 -13 49s-3.83398 42.834 -3.50098 66.501s2.16602 46.667 5.49902 69s8.33301 41.5 15 57.5c27.333 -2.66699 66.166 -5.66699 116.499 -9s106.5 -5 168.5 -5c27.333 0 56.166 0.833008 86.499 2.5s59.5 3.66699 87.5 6s51.333 4.16602 70 5.49902
c2 -26.667 5.83301 -55.667 11.5 -87s16.167 -60.833 31.5 -88.5s38.333 -50.5 69 -68.5l16 26c-26 15.333 -45.5 34.333 -58.5 57s-22 47.834 -27 75.501s-8.83301 56.5 -11.5 86.5c19.333 -2.66699 39 -5.16699 59 -7.5s44.5 -4.16602 73.5 -5.49902s65.833 -2 110.5 -2
c21.333 0 46 0.833008 74 2.5s55.667 3.66699 83 6s50 4.16602 68 5.49902c6.66699 -16 11.667 -35.167 15 -57.5s5.16602 -45.333 5.49902 -69s-0.833984 -45.834 -3.50098 -66.501s-7 -37 -13 -49c-14 -1.33301 -30 -3.66602 -48 -6.99902s-37.833 -12.666 -59.5 -27.999
s-45.834 -42 -72.501 -80c29.333 -60.667 57.666 -107.334 84.999 -140.001s59 -49.667 95 -51c6 -12 10.333 -28.333 13 -49s3.83398 -42.834 3.50098 -66.501s-2.16602 -46.667 -5.49902 -69s-8.33301 -41.5 -15 -57.5c-27.333 2.66699 -66.166 5.66699 -116.499 9
s-106.5 5 -168.5 5c-45.333 0 -90.166 -1.66699 -134.499 -5s-80.833 -6.33301 -109.5 -9c-1.33301 24 -5 51 -11 81s-17 59 -33 87s-40.333 50.667 -73 68l-15 -26c28 -15.333 48.833 -34.166 62.5 -56.499s23.167 -46.666 28.5 -72.999s9 -53.166 11 -80.499
c-18.667 2.66699 -38.334 5 -59.001 7s-45.5 3.66699 -74.5 5s-65.833 2 -110.5 2c-21.333 0 -46 -0.833008 -74 -2.5s-55.5 -3.5 -82.5 -5.5s-49.833 -4 -68.5 -6z" />
    <glyph glyph-name="Y" unicode="Y" horiz-adv-x="1096" 
d="M282 -17c-7.33301 19.333 -12.5029 43.3359 -15.5029 72.0029s-3.83301 57.167 -2.5 85.5s5 51.5 11 69.5c15.333 -3.33301 30.666 -6 45.999 -8s31 -3.66699 47 -5l3 28c-41.333 2.66699 -80.166 10.167 -116.499 22.5s-67.166 32.833 -92.499 61.5s-43 69 -53 121
c-5.33301 29.333 -15.166 53.666 -29.499 72.999s-32.5 29.333 -54.5 30c-6 12 -10.333 28.333 -13 49s-3.83398 42.834 -3.50098 66.501s2.16602 46.667 5.49902 69s8.33301 41.5 15 57.5c27.333 -2.66699 66.166 -5.66699 116.499 -9s106.5 -5 168.5 -5
c45.333 0 86.833 1.66699 124.5 5s70.167 6.33301 97.5 9c-4 -20.667 -7.5 -44.834 -10.5 -72.501s-3 -56 0 -85s11.167 -56.667 24.5 -83s34 -48.833 62 -67.5l17 24c-28 18.667 -47.833 42.5 -59.5 71.5s-17.167 61.667 -16.5 98s5.33398 74.5 14.001 114.5
c27.333 -3.33301 63.333 -6.5 108 -9.5s100.334 -4.5 167.001 -4.5c21.333 0 46 0.833008 74 2.5s55.667 3.66699 83 6s50 4.16602 68 5.49902c6.66699 -16 11.667 -35.167 15 -57.5s5.16602 -45.333 5.49902 -69s-0.833984 -45.834 -3.50098 -66.501s-7 -37 -13 -49
c-16.667 2 -30.5 -2.83301 -41.5 -14.5s-19.5 -25.5 -25.5 -41.5s-10.333 -29.667 -13 -41c-15.333 -66 -42.5 -114.833 -81.5 -146.5s-85.5 -53.167 -139.5 -64.5l8 -27c16 3.33301 31 7.33301 45 12c4.66699 -11.333 7.83398 -26.666 9.50098 -45.999
s2.33398 -40.333 2.00098 -63s-2.16602 -44.5 -5.49902 -65.5s-7.66602 -38.5 -12.999 -52.5c-29.333 3.33301 -66.5 6.83301 -111.5 10.5s-99.833 5.5 -164.5 5.5c-44.667 0 -82.5 -0.833008 -113.5 -2.5s-57.833 -3.83398 -80.5 -6.50098s-44 -5 -64 -7z" />
    <glyph glyph-name="Z" unicode="Z" horiz-adv-x="975" 
d="M29 -17c-5.33301 14 -9.66699 32.166 -13 54.499s-5.16602 45.666 -5.49902 69.999s0.333984 47.666 2.00098 69.999s4.83398 40.5 9.50098 54.5l64 25c23.333 9.33301 47.333 24.166 72 44.499s48.5 50 71.5 89s43.167 91.5 60.5 157.5l-30 6
c-12 -45.333 -26.667 -85.333 -44 -120s-40.833 -62.667 -70.5 -84s-68.834 -35.333 -117.501 -42c-6.66699 42.667 -11.5 87.834 -14.5 135.501s-4.33301 93.834 -4 138.501s2 84.167 5 118.5s6.5 59.5 10.5 75.5l162 -5.5c51.333 -1.66699 102.833 -3 154.5 -4
s105.5 -1.5 161.5 -1.5c38.667 0 80.167 0.333008 124.5 1s87.666 1.5 129.999 2.5s79.833 2 112.5 3s56.667 2.16699 72 3.5c6.66699 -16 11.667 -35.667 15 -59s5.16602 -47.5 5.49902 -72.5s-0.833984 -48.333 -3.50098 -70s-7 -38.5 -13 -50.5
c-55.333 -12.667 -103.166 -45 -143.499 -97s-73.166 -126.667 -98.499 -224l30 -7c13.333 48.667 29.166 92 47.499 130s41.333 67.667 69 89s61.834 30.666 102.501 27.999c4 -27.333 7 -58.5 9 -93.5s3 -71.167 3 -108.5s-0.666992 -73.166 -2 -107.499
s-3.33301 -64.666 -6 -90.999s-5.66699 -45.833 -9 -58.5c-50.667 0.666992 -98.5 2.16699 -143.5 4.5l-139.5 7c-48 2.33301 -102 3.5 -162 3.5c-130.667 0 -234.334 -1.66699 -311.001 -5s-131 -6.66602 -163 -9.99902z" />
    <glyph glyph-name="bracketleft" unicode="[" horiz-adv-x="455" 
d="M443 -151c-34 3.33301 -65.333 6.00098 -94 8.00098s-61.334 3 -98.001 3c-18 0 -37.833 -0.333008 -59.5 -1s-43 -1.5 -64 -2.5s-39.5 -2 -55.5 -3s-27 -2.16699 -33 -3.5c-12 104 -20.333 212.667 -25 326s-5.16699 228.166 -1.5 344.499s12.167 230.833 25.5 343.5
c8 -1.33301 23.667 -2.83301 47 -4.5s49.333 -3 78 -4s54.667 -1.5 78 -1.5c36.667 0 70.334 1 101.001 3s63 4.66699 97 8c3.33301 -14 5.66602 -33.5 6.99902 -58.5s1.5 -50.667 0.5 -77s-3.5 -48.833 -7.5 -67.5h-68c-6.66699 -104.667 -10.167 -206 -10.5 -304
s2.5 -200 8.5 -306h74c4 -18.667 6.5 -41.167 7.5 -67.5s0.833008 -52 -0.5 -77s-3.66602 -44.5 -6.99902 -58.5z" />
    <glyph glyph-name="backslash" unicode="\" horiz-adv-x="536" 
d="M297 -190c24 2 49.667 5.83008 77 11.4971s54 12.834 80 21.501s49.833 17.667 71.5 27s38.834 18.333 51.501 27c-127.333 322.667 -233.666 657.334 -318.999 1004c-34.667 -3.33301 -70.334 -9.66602 -107.001 -18.999s-70.5 -20 -101.5 -32s-54.833 -24 -71.5 -36
l113.5 -315c37 -104 72.667 -212 107 -324s67.166 -233.667 98.499 -365z" />
    <glyph glyph-name="bracketright" unicode="]" horiz-adv-x="455" 
d="M12 -151c34 3.33301 65.333 6.00098 94 8.00098s61.334 3 98.001 3c18 0 37.833 -0.333008 59.5 -1s43 -1.5 64 -2.5s39.5 -2 55.5 -3s27 -2.16699 33 -3.5c12 104 20.333 212.667 25 326s5.16699 228.166 1.5 344.499s-12.167 230.833 -25.5 343.5
c-8 -1.33301 -23.667 -2.83301 -47 -4.5s-49.333 -3 -78 -4s-54.667 -1.5 -78 -1.5c-36.667 0 -70.334 1 -101.001 3s-63 4.66699 -97 8c-3.33301 -14 -5.66602 -33.5 -6.99902 -58.5s-1.5 -50.667 -0.5 -77s3.5 -48.833 7.5 -67.5h68
c6.66699 -104.667 10.167 -206 10.5 -304s-2.5 -200 -8.5 -306h-74c-4 -18.667 -6.5 -41.167 -7.5 -67.5s-0.833008 -52 0.5 -77s3.66602 -44.5 6.99902 -58.5z" />
    <glyph glyph-name="asciicircum" unicode="^" horiz-adv-x="749" 
d="M339 184c-46 0.666992 -91.333 4.66797 -136 12.001s-84.167 17 -118.5 29s-59.5 25.333 -75.5 40c38 86 73.167 171.333 105.5 256s61.5 170.334 87.5 257.001c13.333 3.33301 36.666 5.66602 69.999 6.99902s68.333 2 105 2c26 0 50.833 -0.333008 74.5 -1
s44 -1.66699 61 -3s28.5 -3 34.5 -5c26 -86.667 55.167 -172.334 87.5 -257.001s67.5 -170 105.5 -256c-11.333 -10.667 -29.666 -21.167 -54.999 -31.5s-54.5 -19.333 -87.5 -27s-67.167 -13.5 -102.5 -17.5s-69 -5.66699 -101 -5c-6 24 -8 55.5 -6 94.5
s7.33301 88.833 16 149.5l-29 5z" />
    <glyph glyph-name="underscore" unicode="_" horiz-adv-x="581" 
d="M0 -263c-2.66699 9.33301 -4.66699 23.499 -6 42.499s-2 40.167 -2 63.5s0.666992 45.833 2 67.5s3.33301 39.5 6 53.5h581c2.66699 -8.66699 4.66699 -22.667 6 -42s2 -40.666 2 -63.999s-0.5 -45.833 -1.5 -67.5s-3.16699 -39.5 -6.5 -53.5h-581z" />
    <glyph glyph-name="grave" unicode="`" horiz-adv-x="456" 
d="M229 515c-22.667 10.667 -46.167 26 -70.5 46s-47.333 43.167 -69 69.5s-40 54.333 -55 84s-25.167 59.167 -30.5 88.5c11.333 14.667 29.833 27.5 55.5 38.5s55.167 19.667 88.5 26s67.333 9.5 102 9.5c24.667 0 48.667 -1.83301 72 -5.5s44.666 -9.5 63.999 -17.5
c12.667 -16.667 24.334 -39 35.001 -67s17.834 -58.167 21.501 -90.5s1.16699 -64 -7.5 -95s-26.334 -57.5 -53.001 -79.5c-12 -3.33301 -27.667 -6 -47 -8s-38.5 -3 -57.5 -3s-35.167 1.33301 -48.5 4z" />
    <glyph glyph-name="a" unicode="a" horiz-adv-x="967" 
d="M325 -34c-80 0 -143.166 10.3301 -189.499 30.9971s-79.5 47.667 -99.5 81s-30 69.333 -30 108c0 58.667 20.667 106.334 62 143.001s107.333 55.334 198 56.001l212 2v53h-55v-27l-201 -8c-66 -2.66699 -131.667 -1.66699 -197 3c-16.667 104 -15 204.667 5 302
c19.333 0 42.833 -0.333008 70.5 -1s57 -1.5 88 -2.5s61.5 -1.83301 91.5 -2.5s56.667 -1.33398 80 -2.00098c-8.66699 -20 -13.5 -40 -14.5 -60s1.83301 -39.333 8.5 -58c3.33301 55.333 24.333 93.666 63 114.999s93.334 32 164.001 32
c91.333 0 161.333 -13.167 210 -39.5s81 -65.5 97 -117.5c8 -24.667 11.5 -51.167 10.5 -79.5s-3.16699 -55.833 -6.5 -82.5s-5 -50.667 -5 -72c0 -40.667 6.5 -69.5 19.5 -86.5s26.833 -28.167 41.5 -33.5c6 -19.333 9.5 -43.666 10.5 -72.999
s0.166992 -58.666 -2.5 -87.999s-7.33398 -54.666 -14.001 -75.999c-29.333 -6.66699 -60 -11.167 -92 -13.5s-58 -3.5 -78 -3.5c-50.667 0 -90.334 6 -119.001 18s-43 34 -43 66c0 11.333 2.16699 23.333 6.5 36s9.5 26.334 15.5 41.001l-26 13
c-12 -29.333 -28.5 -57.333 -49.5 -84s-50 -48.334 -87 -65.001s-85.167 -25 -144.5 -25zM423.001 258.997h55v63h-55v-63z" />
    <glyph glyph-name="b" unicode="b" horiz-adv-x="991" 
d="M552 -34c-65.333 0 -119.166 5.33691 -161.499 16.0039s-76.333 26.167 -102 46.5s-46.5 44.833 -62.5 73.5l-26 -13c4.66699 -10 8.33398 -19.667 11.001 -29s4 -18.333 4 -27c0 -15.333 -5.5 -27.333 -16.5 -36s-24.5 -14.667 -40.5 -18s-32 -5 -48 -5
c-24 0 -50.667 3 -80 9c-6.66699 18 -11.5 41.167 -14.5 69.5s-3.83301 57.666 -2.5 87.999s4.66602 56.833 9.99902 79.5c10 3.33301 19.667 9.66602 29 18.999s17 25.833 23 49.5s9 57.5 9 101.5c0 37.333 -2.16699 67.166 -6.5 89.499s-9.66602 39.666 -15.999 51.999
s-13 21.166 -20 26.499s-13.167 9.33301 -18.5 12c-6.66699 22 -11.167 47.333 -13.5 76s-2 57.167 1 85.5s8.5 52.166 16.5 71.499c33.333 -4 70.666 -7.16699 111.999 -9.5s87.333 -3.5 138 -3.5c49.333 0 95.666 1.5 138.999 4.5s79 5.83301 107 8.5
c5.33301 -13.333 9.16602 -29.666 11.499 -48.999s3.5 -37.333 3.5 -54c-20.667 -11.333 -39.667 -24.5 -57 -39.5s-33.333 -30.5 -48 -46.5l22 -19c31.333 33.333 67 62 107 86s82.667 36 128 36c94.667 0 166.834 -32.333 216.501 -97s74.5 -154.667 74.5 -270
c0 -80.667 -14.833 -149.667 -44.5 -207s-76.167 -101.166 -139.5 -131.499s-145 -45.5 -245 -45.5zM490 301.004h54v93h-54v-93z" />
    <glyph glyph-name="c" unicode="c" horiz-adv-x="956" 
d="M488 -35c-113.333 0 -205.166 16.167 -275.499 48.5s-121.666 77.666 -153.999 135.999s-48.5 126.5 -48.5 204.5c0 77.333 15.5 143.833 46.5 199.5s74.5 98.667 130.5 129s121.333 45.5 196 45.5c72.667 0 129.167 -11.5 169.5 -34.5s61.5 -66.167 63.5 -129.5
c7.33301 23.333 10.166 46.833 8.49902 70.5s-3.83398 46.834 -6.50098 69.501c22 0 47.167 0.333008 75.5 1s57.5 1.5 87.5 2.5s58.333 1.83301 85 2.5s49.334 1 68.001 1c4 -18 7.16699 -40.833 9.5 -68.5s3.83301 -57.667 4.5 -90s0 -64.166 -2 -95.499
s-5 -59.333 -9 -84c-19.333 -2.66699 -44 -4.83398 -74 -6.50098s-62.333 -2.83398 -97 -3.50098s-69.334 -0.666992 -104.001 0s-66.5 1.83398 -95.5 3.50098s-52.167 3.83398 -69.5 6.50098l-1 37h-48v-117h48v41c142.667 6.66699 291.667 6.66699 447 0
c-2.66699 -83.333 -19.5 -152.333 -50.5 -207s-79.167 -95.334 -144.5 -122.001s-152 -40 -260 -40z" />
    <glyph glyph-name="d" unicode="d" horiz-adv-x="987" 
d="M349 -34c-70 0 -130.336 15.167 -181.003 45.5s-89.667 74.166 -117 131.499s-41 126.333 -41 207c0 116.667 24.833 206.834 74.5 270.501s121.834 95.5 216.501 95.5c45.333 0 88 -11.833 128 -35.5s75.333 -52.5 106 -86.5l22 19c-14.667 16.667 -32 33.5 -52 50.5
s-47.667 34.833 -83 53.5c1.33301 16.667 3.66602 33 6.99902 49s7.33301 29 12 39c28.667 -2.66699 66.334 -5.83398 113.001 -9.50098s94.334 -5.5 143.001 -5.5c47.333 0 90.5 1.5 129.5 4.5s72.5 5.83301 100.5 8.5c6 -18.667 10.333 -36.5 13 -53.5s4 -34.167 4 -51.5
c0 -31.333 -3.16699 -62.166 -9.5 -92.499s-12.666 -63 -18.999 -98s-9.5 -75.833 -9.5 -122.5c0 -42 3 -74.333 9 -97s13.667 -38.834 23 -48.501s19 -16.5 29 -20.5c6 -22.667 9.66699 -49 11 -79s0.666016 -59.167 -2.00098 -87.5s-7.66699 -51.5 -15 -69.5
c-26.667 3.33301 -55.334 6.33301 -86.001 9s-63.667 4.33398 -99 5.00098c-34 0.666992 -62.667 0.666992 -86 0s-43.333 -1.66699 -60 -3l-49 -4c8 10 14.5 23.167 19.5 39.5s8.33301 33.5 10 51.5s1.83398 34.333 0.500977 49c-7.33301 -28 -20.666 -54.5 -39.999 -79.5
s-46.833 -45.333 -82.5 -61s-82.167 -23.5 -139.5 -23.5zM447.997 301h54v93h-54v-93z" />
    <glyph glyph-name="e" unicode="e" horiz-adv-x="959" 
d="M474 -34c-108.667 0 -197.166 15.166 -265.499 45.499s-118.5 73.833 -150.5 130.5s-48 125 -48 205c0 92 17.167 166 51.5 222s87.833 96.833 160.5 122.5s166.334 38.5 281.001 38.5c85.333 0 161.5 -9 228.5 -27s119.833 -44.5 158.5 -79.5s58 -78.167 58 -129.5
c0 -18.667 -2.83301 -37.5 -8.5 -56.5s-17.167 -36.167 -34.5 -51.5s-43.333 -27.666 -78 -36.999s-81 -14 -139 -14c-38.667 0 -73.5 0.5 -104.5 1.5s-59.5 2.83301 -85.5 5.5h-50v-74h49v40c141.333 6.66699 290.666 6.66699 447.999 0c0 -74 -16 -136.333 -48 -187
s-82.333 -89.167 -151 -115.5s-159.334 -39.5 -272.001 -39.5zM448.001 393.999h49v58h-49v-58z" />
    <glyph glyph-name="f" unicode="f" horiz-adv-x="864" 
d="M27 -17c-5.33301 13.333 -9.67383 30.4941 -13.0068 51.4941s-5.16602 43.167 -5.49902 66.5s0.333984 45.5 2.00098 66.5s4.83398 38.167 9.50098 51.5c9.33301 3.33301 18.5 9.33301 27.5 18s16.5 22.834 22.5 42.501s9.66699 47.834 11 84.501h-65
c-3.33301 18.667 -5.66602 40.667 -6.99902 66s-1.33301 50.5 0 75.5s3.66602 46.833 6.99902 65.5h142c-29.333 3.33301 -51.333 15.5 -66 36.5s-17 45.833 -7 74.5c13.333 39.333 52.833 72.833 118.5 100.5s156.834 41.5 273.501 41.5c92 0 165.667 -8.66699 221 -26
s95.5 -43.666 120.5 -78.999s37.5 -80 37.5 -134c0 -40.667 -9.83301 -75.667 -29.5 -105s-45.5 -51.666 -77.5 -66.999s-67.333 -23 -106 -23c-25.333 0 -52 3.33301 -80 10s-54 18 -78 34l-16 -23c23.333 -16 49.833 -28.333 79.5 -37s61.167 -13 94.5 -13
c26.667 0 51.834 3.33301 75.501 10s44.834 15.667 63.501 27c6 -18 9.83301 -38.167 11.5 -60.5s2.16699 -43.666 1.5 -63.999s-2.66699 -36.5 -6 -48.5h-279c3.33301 -13.333 13.333 -22.666 30 -27.999s44.334 -7 83.001 -5c6 -17.333 9.66699 -39 11 -65
s0.5 -52 -2.5 -78s-8.16699 -48 -15.5 -66c-30.667 3.33301 -69 6.66602 -115 9.99902s-96.333 5 -151 5s-107.5 -1.16699 -158.5 -3.5s-105.833 -6.16602 -164.5 -11.499z" />
    <glyph glyph-name="g" unicode="g" horiz-adv-x="974" 
d="M293 -173c-90 0 -159.661 17.3291 -208.994 51.9961s-74 92 -74 172c0 33.333 6.5 66.666 19.5 99.999s32.5 62.333 58.5 87c34 -24 77.333 -42.667 130 -56l8 28c-57.333 14.667 -101.666 34.667 -132.999 60s-53 54.333 -65 87s-18 66.667 -18 102
c0 48 11.667 92.167 35 132.5s59 72.833 107 97.5s109 37 183 37c39.333 0 71.666 -4.33301 96.999 -13s45.666 -19.5 60.999 -32.5s26.333 -26.833 33 -41.5c6.66699 54 21.834 98.333 45.501 133s53.167 60.5 88.5 77.5s73.666 25.5 114.999 25.5
c34.667 0 66 -7.5 94 -22.5s50.167 -36.5 66.5 -64.5s24.5 -62 24.5 -102c0 -39.333 -7.16699 -72 -21.5 -98s-33.5 -45.5 -57.5 -58.5s-50.667 -19.5 -80 -19.5c-26.667 0 -50.667 2.16699 -72 6.5s-40 10.166 -56 17.499l-14 -25c12 -6.66699 26 -12 42 -16
c25.333 -7.33301 50.666 -12 75.999 -14s49 -3.5 71 -4.5s41.5 -4.16699 58.5 -9.5s30.333 -15 40 -29s14.5 -35 14.5 -63c0 -42.667 -16.833 -78.167 -50.5 -106.5s-79.5 -49.666 -137.5 -63.999s-124 -23.166 -198 -26.499l1 -29
c48.667 0.666992 93.167 0.333984 133.5 -0.999023s76.166 -6.66602 107.499 -15.999s57.666 -25 78.999 -47s37.5 -52.833 48.5 -92.5s16.5 -90.5 16.5 -152.5c-36.667 -8.66699 -75.834 -13.167 -117.501 -13.5s-81.834 3.5 -120.501 11.5c-14 10 -33.5 15.333 -58.5 16
s-55.5 -1.16602 -91.5 -5.49902s-77.333 -8.66602 -124 -12.999s-98.667 -6.5 -156 -6.5zM459.006 435.996h53v77h-53v-77z" />
    <glyph glyph-name="h" unicode="h" horiz-adv-x="1021" 
d="M30 -17c-6.66699 18 -11.5 41.1719 -14.5 69.5049s-3.83301 57.666 -2.5 87.999s4.66602 56.833 9.99902 79.5c10 3.33301 19.667 9.66602 29 18.999s17 25.833 23 49.5s9 57.5 9 101.5c0 37.333 -2.16699 67.166 -6.5 89.499s-9.66602 39.666 -15.999 51.999
s-13 21.166 -20 26.499s-13.167 9.33301 -18.5 12c-6.66699 22 -11.167 47.333 -13.5 76s-2 57.167 1 85.5s8.5 52.166 16.5 71.499c33.333 -4 70.666 -7.16699 111.999 -9.5s87.333 -3.5 138 -3.5c49.333 0 95.666 1.5 138.999 4.5s79 5.83301 107 8.5
c6.66699 -18.667 11.834 -40.667 15.501 -66s2.83398 -46.666 -2.49902 -63.999c-15.333 -12 -31.833 -27.667 -49.5 -47s-34.167 -42.333 -49.5 -69l25 -13c20.667 35.333 45.5 66.166 74.5 92.499s60.333 46.833 94 61.5s67.5 22 101.5 22
c38.667 0 71.334 -3.16699 98.001 -9.5s49 -17.833 67 -34.5s32 -41 42 -73c9.33301 -27.333 13.666 -55.166 12.999 -83.499s-2.66699 -56.666 -6 -84.999s-5 -56.5 -5 -84.5c0 -30.667 3 -54.834 9 -72.501s13.833 -30.834 23.5 -39.501s19.167 -14.667 28.5 -18
c6 -22.667 9.5 -49.167 10.5 -79.5s0.166992 -59.666 -2.5 -87.999s-7.33398 -51.5 -14.001 -69.5l-92 9.5c-36 3.66699 -81.333 5.5 -136 5.5c-49.333 0 -95.166 -1.83301 -137.499 -5.5s-75.5 -6.83398 -99.5 -9.50098c-3.33301 18 -6 41.833 -8 71.5s-2.5 60.5 -1.5 92.5
s3.5 59.667 7.5 83v138h-37v-138c4.66699 -23.333 7.5 -51 8.5 -83s0.5 -62.833 -1.5 -92.5s-5.33301 -53.5 -10 -71.5l-52.5 6.5c-19 2.33301 -42.167 4.33301 -69.5 6s-61.333 2.5 -102 2.5c-50 0 -94.833 -1.66699 -134.5 -5s-73.167 -6.66602 -100.5 -9.99902z" />
    <glyph glyph-name="i" unicode="i" horiz-adv-x="593" 
d="M32 -17c-5.33301 13.333 -9.66211 30.5 -12.9951 51.5s-5.16602 43.167 -5.49902 66.5s0.333984 45.5 2.00098 66.5s4.83398 38.167 9.50098 51.5c10 4 19.667 10.333 29 19s17.166 21.667 23.499 39s9.5 41 9.5 71c0 29.333 -3.83301 52.166 -11.5 68.499
s-16.334 28.333 -26.001 36s-17.834 13.167 -24.501 16.5c-6 11.333 -10.333 27.5 -13 48.5s-3.83398 43.833 -3.50098 68.5s2.16602 48.334 5.49902 71.001s8.33301 41.334 15 56.001c7.33301 -0.666992 13.666 -1.5 18.999 -2.5s11.333 -1.83301 18 -2.5
c-2.66699 -41.333 5.66602 -76.833 24.999 -106.5s45.833 -50.834 79.5 -63.501s69.5 -15.334 107.5 -8.00098c-32 1.33301 -61.5 9.83301 -88.5 25.5s-48.667 36.667 -65 63s-24.5 55.833 -24.5 88.5c0 27.333 6.5 53.833 19.5 79.5s34.833 47 65.5 64s72 25.5 124 25.5
c83.333 0 144.166 -20.833 182.499 -62.5s57.5 -103.167 57.5 -184.5c0 -38 -3.16699 -72.833 -9.5 -104.5l-19 -91c-6.33301 -29 -9.5 -58.5 -9.5 -88.5c0 -28.667 3.16699 -51.667 9.5 -69s14.333 -30.166 24 -38.499s19.167 -14.5 28.5 -18.5
c4.66699 -13.333 7.83398 -30.5 9.50098 -51.5s2.33398 -43.167 2.00098 -66.5s-2.16602 -45.5 -5.49902 -66.5s-7.66602 -38.167 -12.999 -51.5c-18.667 2 -42.834 4.16699 -72.501 6.5s-61.834 4.33301 -96.501 6s-69.334 2.5 -104.001 2.5
c-32 0 -64.5 -0.833008 -97.5 -2.5s-63.833 -3.66699 -92.5 -6s-52.334 -4.5 -71.001 -6.5z" />
    <glyph glyph-name="j" unicode="j" horiz-adv-x="578" 
d="M166 -173c-21.333 0 -43.9951 0.332031 -67.9951 0.999023s-48.667 2.33398 -74 5.00098c-8 18.667 -13.333 40.167 -16 64.5s-3.16699 49 -1.5 74s5.5 47.167 11.5 66.5c25.333 21.333 46.666 52.333 63.999 93s26 94.667 26 162c0 37.333 -5.5 68.333 -16.5 93
s-23 43.834 -36 57.501s-22.833 22.167 -29.5 25.5c-6 11.333 -10.5 27.5 -13.5 48.5s-4.33301 43.833 -4 68.5s2.16602 48.334 5.49902 71.001s8.33301 41.334 15 56.001l58 -5c-2.66699 -41.333 5.66602 -76.833 24.999 -106.5s45.833 -50.834 79.5 -63.501
s69.5 -15.334 107.5 -8.00098c-32 1.33301 -61.5 9.83301 -88.5 25.5s-48.667 36.667 -65 63s-24.5 55.833 -24.5 88.5c0 27.333 6.5 53.833 19.5 79.5s34.833 47 65.5 64s72 25.5 124 25.5c83.333 0 144.166 -20.833 182.499 -62.5s57.5 -103.167 57.5 -184.5
c0 -29.333 -1.83301 -55.333 -5.5 -78s-8.16699 -44.834 -13.5 -66.501s-9.83301 -45.5 -13.5 -71.5s-5.5 -57.333 -5.5 -94c0 -46 2.66699 -89.5 8 -130.5s9.33301 -78.833 12 -113.5s-0.333008 -66 -9 -94c-18.667 -58.667 -58.334 -99 -119.001 -121
s-146.667 -33 -258 -33z" />
    <glyph glyph-name="k" unicode="k" horiz-adv-x="1093" 
d="M32 -17c-5.33301 13.333 -9.6709 30.4971 -13.0039 51.4971s-5.16602 43.167 -5.49902 66.5s0.333984 45.5 2.00098 66.5s4.83398 38.167 9.50098 51.5c10 4 19.667 10.833 29 20.5s17 26.334 23 50.001s9 57.834 9 102.501c0 46 -3.5 80.333 -10.5 103
s-15.333 38.5 -25 47.5s-18.167 15.167 -25.5 18.5c-6 11.333 -10.333 27.5 -13 48.5s-3.83398 43.833 -3.50098 68.5s2.16602 48.334 5.49902 71.001s8.33301 41.334 15 56.001c19.333 -1.33301 43.333 -3.33301 72 -6s59.834 -4.83398 93.501 -6.50098
s66.5 -2.5 98.5 -2.5c47.333 0 90.5 1.5 129.5 4.5s72.5 5.83301 100.5 8.5c6 -18.667 10.333 -36.5 13 -53.5s4 -34.167 4 -51.5c0 -24.667 -3.16699 -53 -9.5 -85l-19.5 -96c-6.66699 -32 -10 -60.667 -10 -86v-18c22 32 38.5 72.5 49.5 121.5s15.833 109.5 14.5 181.5
c18.667 -1.33301 38.834 -3.33301 60.501 -6s48.5 -5 80.5 -7s72 -3 120 -3c39.333 0 71.666 1 96.999 3s47.5 4.16699 66.5 6.5s39.5 4.5 61.5 6.5c5.33301 -14 9.66602 -31.5 12.999 -52.5s5.16602 -43.167 5.49902 -66.5s-0.333984 -45.5 -2.00098 -66.5
s-4.83398 -38.5 -9.50098 -52.5c-33.333 -9.33301 -61.833 -19.666 -85.5 -30.999s-44.834 -23.666 -63.501 -36.999c16.667 -50.667 39.834 -90.834 69.501 -120.501s61.167 -53.167 94.5 -70.5c4.66699 -13.333 7.83398 -30.333 9.50098 -51s2.33398 -42.5 2.00098 -65.5
s-2.16602 -45.167 -5.49902 -66.5s-7.66602 -39 -12.999 -53c-27.333 2.66699 -57.666 6 -90.999 10s-74.666 6 -123.999 6c-54.667 0 -99.334 -1 -134.001 -3s-63.167 -4.16699 -85.5 -6.5l-61.5 -6.5c2 24 3.66699 46.167 5 66.5s2 39.166 2 56.499
c0 28 -1.33301 53.667 -4 77s-9.33398 45.333 -20.001 66s-28 40.667 -52 60v-90h36c4.66699 -13.333 7.83398 -30.5 9.50098 -51.5s2.33398 -43.167 2.00098 -66.5s-2.16602 -45.5 -5.49902 -66.5s-7.66602 -38.167 -12.999 -51.5l-104.5 9.5
c-41.667 3.66699 -85.834 5.5 -132.501 5.5c-32 0 -64.5 -0.833008 -97.5 -2.5s-63.833 -3.66699 -92.5 -6s-52.334 -4.5 -71.001 -6.5z" />
    <glyph glyph-name="l" unicode="l" horiz-adv-x="583" 
d="M32 -17c-5.33301 13.333 -9.6709 30.502 -13.0039 51.502s-5.16602 43.167 -5.49902 66.5s0.333984 45.5 2.00098 66.5s4.83398 38.167 9.50098 51.5c10 4 19.667 10.833 29 20.5s17 26.5 23 50.5s9 58.333 9 103c0 46 -3.5 80.5 -10.5 103.5s-15.333 39 -25 48
s-18.167 15.167 -25.5 18.5c-6 11.333 -10.333 27.5 -13 48.5s-3.83398 43.667 -3.50098 68s2.16602 47.666 5.49902 69.999s8.33301 40.833 15 55.5c19.333 -1.33301 43.333 -3.33301 72 -6s59.834 -4.83398 93.501 -6.50098s66.5 -2.5 98.5 -2.5
c47.333 0 90.5 1.5 129.5 4.5s72.5 5.83301 100.5 8.5c6 -18.667 10.333 -36.5 13 -53.5s4 -34.167 4 -51.5c0 -31.333 -3.16699 -62.166 -9.5 -92.499s-12.666 -63 -18.999 -98s-9.5 -75.833 -9.5 -122.5c0 -42 3 -74.333 9 -97s13.667 -38.834 23 -48.501
s19 -16.5 29 -20.5c6 -20.667 9.66699 -46.167 11 -76.5s0.5 -60 -2.5 -89s-8.16699 -52.5 -15.5 -70.5c-18.667 2 -42.667 4.16699 -72 6.5s-60.666 4.33301 -93.999 6s-65.666 2.5 -96.999 2.5c-32 0 -64.5 -0.833008 -97.5 -2.5s-63.833 -3.66699 -92.5 -6
s-52.334 -4.5 -71.001 -6.5z" />
    <glyph glyph-name="m" unicode="m" horiz-adv-x="1467" 
d="M26 -17c-6.66699 21.333 -11.4951 46.668 -14.4951 76.001s-3.83301 58.666 -2.5 87.999s4.66602 53.666 9.99902 72.999c15.333 4 29.333 14.5 42 31.5s19 45.5 19 85.5c0 34 -3.5 60.5 -10.5 79.5s-14.833 32.5 -23.5 40.5s-16.334 12.333 -23.001 13
c-6.66699 22 -11.167 48.167 -13.5 78.5s-2 60.5 1 90.5s8.5 54.667 16.5 74c31.333 -4 66.666 -7.16699 105.999 -9.5s79.666 -3.5 120.999 -3.5c46 0 89.5 0.5 130.5 1.5s74.5 2.16699 100.5 3.5c-8.66699 -9.33301 -17.834 -25.166 -27.501 -47.499
s-17.334 -45.833 -23.001 -70.5s-7.5 -46.334 -5.5 -65.001c18 59.333 51.833 107.166 101.5 143.499s115.834 54.5 198.501 54.5c44.667 0 82 -5.5 112 -16.5s53.333 -33.167 70 -66.5c-11.333 -12.667 -22.666 -26.167 -33.999 -40.5s-22 -30.5 -32 -48.5l25 -14
c31.333 55.333 73.5 100.166 126.5 134.499s110.5 51.5 172.5 51.5c41.333 0 76.166 -3.16699 104.499 -9.5s51.5 -17.833 69.5 -34.5s32 -41 42 -73c9.33301 -27.333 13.666 -55.166 12.999 -83.499s-2.66699 -56.666 -6 -84.999s-5 -56.5 -5 -84.5
c0 -30.667 3 -54.834 9 -72.501s13.833 -30.834 23.5 -39.501s19.167 -14.667 28.5 -18c6 -19.333 9.5 -43.666 10.5 -72.999s0.166992 -58.666 -2.5 -87.999s-7.33398 -54.666 -14.001 -75.999l-93.5 9.5c-37 3.66699 -85.167 5.5 -144.5 5.5
c-54.667 0 -103 -1.83301 -145 -5.5s-75.333 -6.83398 -100 -9.50098c-3.33301 18 -6 41.833 -8 71.5s-2.5 60.5 -1.5 92.5s3.5 59.667 7.5 83v128h-37v-128c4.66699 -23.333 7.5 -51 8.5 -83s0.5 -62.833 -1.5 -92.5s-5.33301 -53.5 -10 -71.5c-16 2 -32 4.16699 -48 6.5
s-34.167 4.5 -54.5 6.5s-45.166 3 -74.499 3c-37.333 0 -74.5 -2 -111.5 -6l-92.5 -10c-3.33301 18 -6 41.833 -8 71.5s-2.5 60.5 -1.5 92.5s3.5 59.667 7.5 83v128h-37v-128c4.66699 -23.333 7.5 -51 8.5 -83s0.5 -62.833 -1.5 -92.5s-5.33301 -53.5 -10 -71.5l-53 6.5
c-19.333 2.33301 -43.166 4.33301 -71.499 6s-64.5 2.5 -108.5 2.5c-50 0 -94.833 -1.66699 -134.5 -5s-73.167 -6.66602 -100.5 -9.99902z" />
    <glyph glyph-name="n" unicode="n" horiz-adv-x="1017" 
d="M26 -17c-6.66699 21.333 -11.4932 46.667 -14.4932 76s-3.83301 58.666 -2.5 87.999s4.66602 53.666 9.99902 72.999c15.333 4 29.333 14.5 42 31.5s19 45.5 19 85.5c0 34 -3.5 60.5 -10.5 79.5s-14.833 32.5 -23.5 40.5s-16.334 12.333 -23.001 13
c-6.66699 22 -11.167 48.167 -13.5 78.5s-2 60.5 1 90.5s8.5 54.667 16.5 74c31.333 -4 66.666 -7.16699 105.999 -9.5s79.666 -3.5 120.999 -3.5s82 0.5 122 1.5s73 2.16699 99 3.5c-8.66699 -9.33301 -17.834 -25.166 -27.501 -47.499s-17.334 -45.833 -23.001 -70.5
s-7.5 -46.334 -5.5 -65.001c18 59.333 52.333 107.166 103 143.499s119.667 54.5 207 54.5c38 0 70.5 -3.16699 97.5 -9.5s49.333 -17.833 67 -34.5s31.5 -41 41.5 -73c9.33301 -27.333 13.666 -55.166 12.999 -83.499s-2.66699 -56.666 -6 -84.999s-5 -56.5 -5 -84.5
c0 -30.667 3 -54.834 9 -72.501s13.833 -30.834 23.5 -39.501s19.167 -14.667 28.5 -18c6 -19.333 9.5 -43.666 10.5 -72.999s0.166992 -58.666 -2.5 -87.999s-7.33398 -54.666 -14.001 -75.999l-92 9.5c-36 3.66699 -81.333 5.5 -136 5.5
c-49.333 0 -95.166 -1.83301 -137.499 -5.5s-75.5 -6.83398 -99.5 -9.50098c-3.33301 18 -6 41.833 -8 71.5s-2.5 60.5 -1.5 92.5s3.5 59.667 7.5 83v138h-37v-138c4.66699 -23.333 7.5 -51 8.5 -83s0.5 -62.833 -1.5 -92.5s-5.33301 -53.5 -10 -71.5l-52.5 6.5
c-19 2.33301 -42.167 4.33301 -69.5 6s-61.333 2.5 -102 2.5c-50 0 -94.833 -1.66699 -134.5 -5s-73.167 -6.66602 -100.5 -9.99902z" />
    <glyph glyph-name="o" unicode="o" 
d="M467 -35c-304.667 0 -456.999 124.001 -456.999 372.001c0 135.333 38.5 234.666 115.5 297.999s192.5 95 346.5 95c163.333 0 282.166 -31.167 356.499 -93.5s111.5 -154.166 111.5 -275.499c0 -136.667 -39.333 -236.834 -118 -300.501s-197 -95.5 -355 -95.5z
M448.001 293.001h54v109h-54v-109z" />
    <glyph glyph-name="p" unicode="p" horiz-adv-x="991" 
d="M530 -153c-46 5.33301 -87.8359 9.16895 -125.503 11.502s-74.834 3.5 -111.501 3.5c-30.667 0 -62.667 -0.5 -96 -1.5s-65.333 -2.5 -96 -4.5s-57.667 -4.33301 -81 -7c-7.33301 19.333 -12.166 44 -14.499 74s-2.5 60.167 -0.5 90.5s6.33301 56.5 13 78.5
c8 4 16.833 11 26.5 21s18 26.667 25 50s10.5 56 10.5 98c0 44 -2 79.667 -6 107s-9.16699 48.333 -15.5 63s-12.666 24.667 -18.999 30s-11.833 8.33301 -16.5 9c-6.66699 22 -11.167 48.167 -13.5 78.5s-2 60.5 1 90.5s8.5 54.667 16.5 74
c21.333 -2.66699 43.166 -5 65.499 -7s42.166 -3.5 59.499 -4.5s28 -1.5 32 -1.5c41.333 0 82 0.5 122 1.5s73 2.16699 99 3.5c-8.66699 -9.33301 -17.167 -23 -25.5 -41s-14.5 -36.333 -18.5 -55s-4.66699 -34.334 -2 -47.001c8.66699 26 23.834 51.833 45.501 77.5
s51.5 47 89.5 64s85.667 25.5 143 25.5c74 0 136.667 -15.333 188 -46s90.166 -74.334 116.499 -131.001s39.5 -124 39.5 -202c0 -120.667 -25 -214.834 -75 -282.501s-125.333 -101.5 -226 -101.5c-43.333 0 -80.666 5.16699 -111.999 15.5s-58.666 24.166 -81.999 41.499
s-44.666 37 -63.999 59l-22 -20c19.333 -21.333 40.333 -40.666 63 -57.999s48.334 -31.666 77.001 -42.999c1.33301 -50.667 -2 -88.667 -10 -114zM488.997 302.003h54v93h-54v-93z" />
    <glyph glyph-name="q" unicode="q" horiz-adv-x="995" 
d="M459 -153c-1.33301 19.333 -2.17188 38.8301 -2.50488 58.4971s0.166992 39.167 1.5 58.5c27.333 11.333 51.666 25.333 72.999 42s41.333 35.667 60 57l-22 19c-19.333 -22 -40.666 -41.667 -63.999 -59s-50.666 -31.166 -81.999 -41.499s-68.666 -15.5 -111.999 -15.5
c-100.667 0 -176 33.833 -226 101.5s-75 161.834 -75 282.501c0 78 13.333 145.333 40 202s65.5 100.334 116.5 131.001s113.5 46 187.5 46c58 0 105.833 -8.5 143.5 -25.5s67.334 -38.333 89.001 -64s36.834 -51.5 45.501 -77.5c2.66699 12.667 2 28.334 -2 47.001
s-10 37 -18 55s-16.667 31.667 -26 41c22.667 -1.33301 43.834 -2.33301 63.501 -3s38.5 -1 56.5 -1c37.333 0 73.333 1.16699 108 3.5s74.334 5.5 119.001 9.5c6 -18.667 10.333 -36.5 13 -53.5s4 -34.167 4 -51.5c0 -31.333 -3.16699 -62.166 -9.5 -92.499l-19.5 -97.5
c-6.66699 -34.667 -10 -74.667 -10 -120c0 -42.667 2 -77.334 6 -104.001s9.33301 -47.5 16 -62.5s13.667 -25.833 21 -32.5s14.333 -11.334 21 -14.001c6 -20 9.83301 -44.833 11.5 -74.5s1.16699 -59.334 -1.5 -89.001s-8.33398 -54.167 -17.001 -73.5
c-22 2.66699 -48.333 5 -79 7s-62.5 3.5 -95.5 4.5s-64.833 1.5 -95.5 1.5c-36.667 0 -74.167 -1.16699 -112.5 -3.5s-80.5 -6.16602 -126.5 -11.499zM447.994 300.997h54v93h-54v-93z" />
    <glyph glyph-name="r" unicode="r" horiz-adv-x="944" 
d="M26 -17c-6.66699 21.333 -11.4961 46.668 -14.4961 76.001s-3.83301 58.666 -2.5 87.999s4.66602 53.666 9.99902 72.999c15.333 4 29.333 14.5 42 31.5s19 45.5 19 85.5c0 34 -3.5 60.5 -10.5 79.5s-14.833 32.5 -23.5 40.5s-16.334 12.333 -23.001 13
c-6.66699 22 -11.167 48.167 -13.5 78.5s-2 60.5 1 90.5s8.5 54.667 16.5 74c31.333 -4 66.666 -7.16699 105.999 -9.5s79.666 -3.5 120.999 -3.5s82 0.5 122 1.5s73 2.16699 99 3.5c-6.66699 -7.33301 -13.667 -18.166 -21 -32.499s-13.833 -29.833 -19.5 -46.5
s-9.83398 -32.5 -12.501 -47.5s-3 -26.5 -1 -34.5c11.333 32 29 62 53 90s55.167 50.833 93.5 68.5s83.833 26.5 136.5 26.5c68 0 122 -19 162 -57s60 -97.667 60 -179c0 -78.667 -22.833 -140.334 -68.5 -185.001s-107.167 -67 -184.5 -67
c-48.667 0 -87.5 11.833 -116.5 35.5s-43.167 57.5 -42.5 101.5h-29c-0.666992 -37.333 6.16602 -68.333 20.499 -93s35.833 -45.667 64.5 -63c4.66699 -14 7.83398 -31.667 9.50098 -53s2.16699 -43.833 1.5 -67.5s-2.66699 -46 -6 -67s-7.66602 -38.167 -12.999 -51.5
c-22 2 -50 4.16699 -84 6.5s-70 4.33301 -108 6s-74.333 2.5 -109 2.5c-50 0 -94.833 -1.66699 -134.5 -5s-73.167 -6.66602 -100.5 -9.99902z" />
    <glyph glyph-name="s" unicode="s" horiz-adv-x="876" 
d="M597 -32c-85.333 0 -150.499 10.6689 -195.499 32.002s-68.167 59 -69.5 113c-8 -22.667 -10.5 -43.834 -7.5 -63.501s7.83301 -39.167 14.5 -58.5c-66 -2 -126 -4 -180 -6s-98.667 -2.66699 -134 -2c-8.66699 49.333 -13.5 98.333 -14.5 147s2.5 100 10.5 154
c48.667 0 95.5 -5.83301 140.5 -17.5s84.833 -30.167 119.5 -55.5l19 23c-19.333 14 -39.5 25.5 -60.5 34.5s-43.167 17.167 -66.5 24.5c-31.333 10.667 -59.833 24.667 -85.5 42s-45.834 39.333 -60.501 66s-22 59.334 -22 98.001c0 41.333 9.5 79.333 28.5 114
s49.167 62.5 90.5 83.5s94.666 31.5 159.999 31.5c84.667 0 149.834 -11.167 195.501 -33.5s69.167 -62.166 70.5 -119.499c8.66699 23.333 11.834 45.166 9.50098 65.499s-7.5 41.833 -15.5 64.5c47.333 0.666992 88.166 1.5 122.499 2.5s65.5 2 93.5 3s55 1.5 81 1.5
c9.33301 -44 14.333 -91.667 15 -143s-2.66602 -103.666 -9.99902 -156.999c-48.667 0.666992 -89.667 5.66699 -123 15s-65.666 23.666 -96.999 42.999l-17 -24c16.667 -10.667 32 -19.167 46 -25.5s26.667 -11.833 38 -16.5c40.667 -16.667 74 -34.5 100 -53.5
s45.333 -42 58 -69s19 -60.5 19 -100.5c0 -48.667 -8.66699 -87.334 -26 -116.001s-39.833 -49.834 -67.5 -63.501s-57.334 -22.667 -89.001 -27s-61.834 -6.5 -90.501 -6.5z" />
    <glyph glyph-name="t" unicode="t" horiz-adv-x="811" 
d="M413 -34c-99.333 0 -175.666 13.165 -228.999 39.498s-88 65.5 -104 117.5c-7.33301 23.333 -10.833 49 -10.5 77s2.16602 59.667 5.49902 95s5.33301 74.666 6 117.999h-65c-3.33301 18.667 -5.66602 39.667 -6.99902 63s-1.33301 46.833 0 70.5
s3.66602 44.834 6.99902 63.501l50.5 41.5c16.333 13.667 30.833 29.834 43.5 48.501s21.334 42.667 26.001 72c24 -3.33301 53.167 -5.66602 87.5 -6.99902s71 -1.83301 110 -1.5s77.167 1.33301 114.5 3s70.333 3.83398 99 6.50098c4 -12.667 7.33301 -25.334 10 -38.001
s4.66699 -25 6 -37h218c3.33301 -12 5.66602 -30 6.99902 -54s1.5 -49.167 0.5 -75.5s-3.5 -48.833 -7.5 -67.5l-276 -1v-209h29l1 173c14.667 5.33301 32.834 9.5 54.501 12.5s44.5 4.5 68.5 4.5s47 -1.5 69 -4.5s40.667 -7.16699 56 -12.5
c2 -3.33301 4.66699 -14.5 8 -33.5s6.16602 -42 8.49902 -69s3.5 -54.167 3.5 -81.5c0 -29.333 -3.16699 -59 -9.5 -89s-17.5 -58.5 -33.5 -85.5s-38.667 -51 -68 -72s-66.833 -37.5 -112.5 -49.5s-101.167 -18 -166.5 -18z" />
    <glyph glyph-name="u" unicode="u" horiz-adv-x="1014" 
d="M299 -23c-57.333 0 -103.997 7.66602 -139.997 22.999s-61.667 46.666 -77 93.999c-8.66699 28 -12.834 55.333 -12.501 82s2.16602 53.334 5.49902 80.001s5 53.667 5 81c0 34 -3.5 60.5 -10.5 79.5s-14.833 32.5 -23.5 40.5s-16.334 12.333 -23.001 13
c-6.66699 22 -11.167 48.167 -13.5 78.5s-2 60.5 1 90.5s8.5 54.667 16.5 74c31.333 -4 66.666 -7.16699 105.999 -9.5s79.666 -3.5 120.999 -3.5c49.333 0 94.833 1.66699 136.5 5s74.834 6.33301 99.501 9v-385h36v138c-4 23.333 -6.5 51 -7.5 83s-0.5 63 1.5 93
s5.33301 53.667 10 71c16 -1.33301 33.333 -3.33301 52 -6s41.667 -4.83398 69 -6.50098s61.333 -2.5 102 -2.5c50 0 93 1.66699 129 5s60.333 6.33301 73 9c6 -18.667 10 -36.5 12 -53.5s3 -33.833 3 -50.5c0 -31.333 -3.16699 -61.5 -9.5 -90.5l-19 -86
c-6.33301 -28.333 -9.5 -57.5 -9.5 -87.5c0 -28.667 3.16699 -51.667 9.5 -69s14.333 -30.166 24 -38.499s19.167 -14.5 28.5 -18.5c4.66699 -13.333 7.83398 -30.5 9.50098 -51.5s2.33398 -43.167 2.00098 -66.5s-2.16602 -45.5 -5.49902 -66.5
s-7.66602 -38.167 -12.999 -51.5c-26.667 3.33301 -55.334 6.5 -86.001 9.5s-63.667 4.5 -99 4.5c-47.333 0 -86.333 -0.333008 -117 -1s-56 -1.5 -76 -2.5s-38 -2.16699 -54 -3.5c13.333 16 24.333 38.667 33 68s11.667 59.666 9 90.999
c-6.66699 -31.333 -21.834 -60.166 -45.501 -86.499s-56.334 -47.166 -98.001 -62.499s-93.167 -23 -154.5 -23z" />
    <glyph glyph-name="v" unicode="v" horiz-adv-x="1026" 
d="M311 -19c-34 0 -60.4941 7.83203 -79.4941 23.499s-35.167 35.834 -48.5 60.501c-14.667 28.667 -26.667 60.5 -36 95.5s-17.166 70.5 -23.499 106.5s-12.833 69.333 -19.5 100c-8 39.333 -19.5 66.166 -34.5 80.499s-30.5 21.833 -46.5 22.5
c-5.33301 11.333 -9.33301 27.5 -12 48.5s-3.83398 43.667 -3.50098 68s2.16602 47.833 5.49902 70.5s8 41.334 14 56.001c25.333 -2 61.166 -4.66699 107.499 -8s98.166 -5 155.499 -5c43.333 0 85.5 1.66699 126.5 5l99.5 8
c-16.667 -65.333 -19.334 -136.5 -8.00098 -213.5s31.333 -153.833 60 -230.5l-1 207h-28c-7.33301 49.333 -9.83301 94 -7.5 134s7.16602 74.333 14.499 103c17.333 -2 35.833 -4 55.5 -6s44.667 -3.66699 75 -5s69.166 -2 116.499 -2c20 0 42.833 0.833008 68.5 2.5
s51 3.5 76 5.5l62.5 5c6 -14.667 10.5 -33.334 13.5 -56.001s4.5 -46.167 4.5 -70.5s-1.33301 -47 -4 -68s-6.66699 -37.167 -12 -48.5c-15.333 -0.666992 -28.666 -7.66699 -39.999 -21s-21.666 -38 -30.999 -74c-12.667 -51.333 -24.167 -100.5 -34.5 -147.5
s-22.333 -89 -36 -126s-31.334 -66.167 -53.001 -87.5s-50.167 -32 -85.5 -32c-22.667 0 -42.167 0.666992 -58.5 2s-31.833 2.83301 -46.5 4.5s-31 3.16699 -49 4.5s-40.333 2 -67 2c-32.667 0 -59.834 -1.16699 -81.501 -3.5s-40.667 -4.66602 -57 -6.99902
s-33.5 -3.5 -51.5 -3.5z" />
    <glyph glyph-name="w" unicode="w" horiz-adv-x="1340" 
d="M307 -19c-34.667 0 -63.1641 10.4971 -85.4971 31.4971s-40.5 49.333 -54.5 85s-26 76.334 -36 122.001l-30 141.5c-6 29.333 -13.667 51.833 -23 67.5s-19 26.834 -29 33.501s-18.667 10 -26 10c-5.33301 11.333 -9.33301 27.5 -12 48.5s-3.83398 43.667 -3.50098 68
s2.16602 47.666 5.49902 69.999s8 40.833 14 55.5c12.667 -1.33301 29.667 -2.83301 51 -4.5s44.833 -3.16699 70.5 -4.5s51.5 -2.5 77.5 -3.5s49.333 -1.5 70 -1.5c41.333 0 80.166 1.66699 116.499 5s67.166 6.33301 92.499 9c-8.66699 -29.333 -13 -65.333 -13 -108
s5.5 -86.667 16.5 -132s28.5 -87.333 52.5 -126l-1 129h-30c-7.33301 48.667 -10.166 93 -8.49902 133s6.5 74.667 14.5 104c16.667 -2 39.334 -4 68.001 -6s59.5 -3.66699 92.5 -5s64.167 -2 93.5 -2c16.667 0 36.167 0.5 58.5 1.5s44 2.5 65 4.5s37.833 4 50.5 6
c-4.66699 -22.667 -8.83398 -50.167 -12.501 -82.5s-3.33398 -65.666 0.999023 -99.999s15.833 -66.166 34.5 -95.499l25 15c-20.667 32.667 -31.5 71.834 -32.5 117.501s3.83301 94.5 14.5 146.5c40 -6.66699 90.667 -10 152 -10c40 0 73.5 1 100.5 3s49.5 4.33301 67.5 7
c6 -14.667 10.5 -33.167 13.5 -55.5s4.66699 -45.666 5 -69.999s-0.833984 -47 -3.50098 -68s-6.66699 -37.167 -12 -48.5c-12 -0.666992 -23.333 -7.83398 -34 -21.501s-20.667 -38.834 -30 -75.501l-37.5 -147c-12.333 -47.333 -26 -89.333 -41 -126
s-33 -65.834 -54 -87.501s-46.5 -32.5 -76.5 -32.5c-26 0 -58.5 1.33301 -97.5 4s-80.5 5.33398 -124.5 8.00098s-86.333 4 -127 4c-4.66699 14 -8.66699 31.167 -12 51.5s-6 41.833 -8 64.5s-3 44 -3 64c-13.333 -31.333 -21.166 -64 -23.499 -98
s-0.166016 -61.333 6.50098 -82c-94.667 -2 -172.5 -5.33301 -233.5 -10s-99.167 -7 -114.5 -7z" />
    <glyph glyph-name="x" unicode="x" horiz-adv-x="1011" 
d="M27 -17c-5.33301 14.667 -9.50488 32.832 -12.5049 54.499s-4.5 44.334 -4.5 68.001s1 45.667 3 66s5.33301 36.166 10 47.499c28 -0.666992 53.5 10.333 76.5 33s47.5 51.334 73.5 86.001c-21.333 34.667 -44.5 64.167 -69.5 88.5s-51.833 39.166 -80.5 44.499
c-5.33301 11.333 -9.33301 27.333 -12 48s-3.83398 43.334 -3.50098 68.001s2.16602 48.167 5.49902 70.5s8 40.833 14 55.5c25.333 -2.66699 61.166 -5.5 107.499 -8.5s97.833 -4.5 154.5 -4.5c25.333 0 52.166 0.666992 80.499 2s55.666 3.16602 81.999 5.49902
s48.833 4.16602 67.5 5.49902c-1.33301 -26 -0.166016 -53.333 3.50098 -82s12 -55.667 25 -81s32.5 -47 58.5 -65l18 23c-32.667 23.333 -54 53 -64 89s-14 74.667 -12 116c16.667 -2 34.334 -4 53.001 -6s41.834 -3.66699 69.501 -5s62.834 -2 105.501 -2
c20 0 42.833 0.666992 68.5 2s51 3.16602 76 5.49902s45.833 4.16602 62.5 5.49902c6 -13.333 10.5 -31.166 13.5 -53.499s4.5 -45.666 4.5 -69.999s-1.33301 -47.166 -4 -68.499s-6.66699 -37.666 -12 -48.999c-18.667 -2 -40.667 -10.167 -66 -24.5
s-53.333 -43.166 -84 -86.499c24.667 -44 48.834 -77.333 72.501 -100s51.167 -36 82.5 -40c5.33301 -12.667 9 -29.667 11 -51s2.66699 -43.833 2 -67.5s-2.66699 -46.167 -6 -67.5s-7.66602 -38.666 -12.999 -51.999c-26 4 -62.167 7.5 -108.5 10.5
s-98.166 4.5 -155.499 4.5c-41.333 0 -81.166 -1.5 -119.499 -4.5s-72.833 -5.83301 -103.5 -8.5c-0.666992 25.333 -3.33398 51.166 -8.00098 77.499s-13.334 52 -26.001 77s-31.667 47.833 -57 68.5l-20 -21c32.667 -26.667 53.834 -56.834 63.501 -90.501
s15.834 -70.5 18.501 -110.5c-37.333 4.66699 -72.166 8 -104.499 10s-63.166 3 -92.499 3c-39.333 0 -78.5 -1.5 -117.5 -4.5s-81.167 -6.83301 -126.5 -11.5z" />
    <glyph glyph-name="y" unicode="y" horiz-adv-x="1026" 
d="M352 -173c-70 0 -126.996 6.00391 -170.996 18.0039s-77.833 27.833 -101.5 47.5s-40 41 -49 64s-13.5 45.833 -13.5 68.5c0 41.333 8.83301 75 26.5 101s41 45.167 70 57.5s60.833 18.5 95.5 18.5c14.667 0 31.5 -2 50.5 -6s38.167 -11.167 57.5 -21.5
s36.666 -25.5 51.999 -45.5l22 18c-20.667 25.333 -44 44.666 -70 57.999s-52.333 21.333 -79 24c-19.333 2 -37.666 7 -54.999 15s-33 21.667 -47 41s-25.667 46.333 -35 81c-10 37.333 -22.167 63.833 -36.5 79.5s-29.5 23.834 -45.5 24.501
c-5.33301 11.333 -9.33301 27.5 -12 48.5s-3.83398 43.667 -3.50098 68s2.16602 47.833 5.49902 70.5s8 41.334 14 56.001c25.333 -2 61.166 -4.66699 107.499 -8s98.166 -5 155.499 -5c43.333 0 85.5 1.66699 126.5 5l99.5 8c-10.667 -43.333 -14.834 -90.333 -12.501 -141
s9.5 -102 21.5 -154s26.333 -102 43 -150l-1 208h-28c-7.33301 49.333 -9.66602 94 -6.99902 134s7.66699 74.333 15 103c17.333 -2 35.833 -4 55.5 -6s44.5 -3.66699 74.5 -5s68.667 -2 116 -2c20 0 42.833 0.833008 68.5 2.5s51 3.5 76 5.5l62.5 5
c6 -14.667 10.5 -33.334 13.5 -56.001s4.5 -46.167 4.5 -70.5s-1.33301 -47 -4 -68s-6.66699 -37.167 -12 -48.5c-20 -0.666992 -35.333 -10.334 -46 -29.001s-19.5 -43.834 -26.5 -75.501s-15.5 -67.167 -25.5 -106.5c-16.667 -76.667 -38.334 -142.334 -65.001 -197.001
s-61 -99.334 -103 -134.001s-94.167 -60.167 -156.5 -76.5s-138.166 -24.5 -227.499 -24.5z" />
    <glyph glyph-name="z" unicode="z" horiz-adv-x="893" 
d="M27 -17c-5.33301 13.333 -9.33008 30.1719 -11.9971 50.5049s-4.33398 41.833 -5.00098 64.5s0 44.667 2 66s5.33301 39.333 10 54c10 4 25.333 9.66699 46 17s43.667 19.666 69 36.999s50.666 43.166 75.999 77.499s48 80.833 68 139.5l-27 8
c-13.333 -39.333 -29.333 -73.833 -48 -103.5s-42.334 -52.834 -71.001 -69.501s-64.334 -25.667 -107.001 -27c-6.66699 35.333 -11.5 73.666 -14.5 114.999s-4.5 82 -4.5 122s1.33301 75.667 4 107s6 54.333 10 69l148.5 -5.5c47 -1.66699 94.167 -2.83398 141.5 -3.50098
s96.666 -1 147.999 -1c35.333 0 73.333 0.333008 114 1s80.334 1.5 119.001 2.5s73 2.33301 103 4s52 3.5 66 5.5c6 -15.333 10.5 -34.333 13.5 -57s4.5 -45.834 4.5 -69.501s-1.33301 -45.667 -4 -66s-6.66699 -36.166 -12 -47.499c-12.667 -4 -28.5 -10.5 -47.5 -19.5
s-39.5 -23.333 -61.5 -43s-44 -47 -66 -82s-42 -80.167 -60 -135.5l28 -8c8 24 17.667 48.667 29 74s25.333 48.666 42 69.999s36.834 39 60.501 53s51.5 21.333 83.5 22c4.66699 -33.333 7.83398 -71.166 9.50098 -113.499s2.16699 -84.166 1.5 -125.499
s-2.33398 -78.333 -5.00098 -111s-6 -56.334 -10 -71.001c-46.667 0.666992 -90.667 2.16699 -132 4.5s-83.833 4.5 -127.5 6.5s-93.167 3 -148.5 3c-120 0 -215 -1.66699 -285 -5s-119.667 -6.33301 -149 -9z" />
    <glyph glyph-name="braceleft" unicode="{" horiz-adv-x="549" 
d="M533 -151c-34 3.33301 -65.3359 5.99902 -94.0029 7.99902s-61.334 3 -98.001 3c-18 0 -37.833 -0.333008 -59.5 -1s-43 -1.5 -64 -2.5s-39.5 -2 -55.5 -3s-27 -2.16699 -33 -3.5l-2 143.5c-0.666992 46.333 -3.83398 89.166 -9.50098 128.499s-16.167 73 -31.5 101
s-38.666 48 -69.999 60c-5.33301 28 -8 57.667 -8 89s2.66699 61 8 89c30 13.333 52.5 32.5 67.5 57.5s25.167 55 30.5 90s8.5 74.167 9.5 117.5s2.5 89.333 4.5 138c8 -1.33301 23.667 -2.83301 47 -4.5s49.333 -3 78 -4s54.667 -1.5 78 -1.5c36.667 0 70.334 1 101.001 3
s63 4.66699 97 8c3.33301 -14 5.66602 -33.5 6.99902 -58.5s1.5 -50.667 0.5 -77s-3.5 -48.833 -7.5 -67.5h-63c0 -40 -1.16699 -77.833 -3.5 -113.5s-8 -67.5 -17 -95.5s-23.333 -50 -43 -66s-47.167 -24.333 -82.5 -25c42.667 -25.333 74.334 -53.666 95.001 -84.999
s34.334 -65.666 41.001 -102.999s10.334 -78 11.001 -122h66c4 -18.667 6.5 -41.167 7.5 -67.5s0.833008 -52 -0.5 -77s-3.66602 -44.5 -6.99902 -58.5z" />
    <glyph glyph-name="bar" unicode="|" horiz-adv-x="277" 
d="M10 -164c6.66699 344 6.66699 686 0 1026c9.33301 2.66699 26.166 4.66699 50.499 6s50.166 2 77.499 2c25.333 0 49.833 -0.5 73.5 -1.5s42.167 -3.16699 55.5 -6.5c-6.66699 -340 -6.66699 -682 0 -1026c-9.33301 -2.66699 -26.166 -4.66699 -50.499 -6
s-50.166 -2 -77.499 -2c-25.333 0 -49.833 0.666992 -73.5 2s-42.167 3.33301 -55.5 6z" />
    <glyph glyph-name="braceright" unicode="}" horiz-adv-x="549" 
d="M16 -151c-3.33301 14 -5.66309 33.499 -6.99609 58.499s-1.5 50.667 -0.5 77s3.5 48.833 7.5 67.5h63c0 40 1.16699 77.833 3.5 113.5s8 67.5 17 95.5s23.333 50 43 66s47.167 24.333 82.5 25c-42 25.333 -73.5 53.666 -94.5 84.999s-34.833 65.833 -41.5 103.5
s-10.334 78.167 -11.001 121.5h-58c-4 18.667 -6.5 41.167 -7.5 67.5s-0.833008 52 0.5 77s3.66602 44.5 6.99902 58.5c34 -3.33301 66.333 -6 97 -8s64.334 -3 101.001 -3c24 0 50.167 0.5 78.5 1.5s54.166 2.33301 77.499 4s39 3.16699 47 4.5
c2 -48.667 3.5 -94.667 4.5 -138s4.16699 -82.5 9.5 -117.5s15.5 -65 30.5 -90s37.5 -44.167 67.5 -57.5c5.33301 -28 8 -57.667 8 -89s-2.66699 -61 -8 -89c-30.667 -12 -53.834 -32 -69.501 -60s-26.334 -61.667 -32.001 -101s-8.66699 -82.166 -9 -128.499
s-1.16602 -94.166 -2.49902 -143.499c-6 1.33301 -17 2.5 -33 3.5s-34.5 2 -55.5 3s-42.333 1.83301 -64 2.5s-41.5 1 -59.5 1c-36.667 0 -69.334 -1 -98.001 -3s-60 -4.66699 -94 -8z" />
    <glyph glyph-name="asciitilde" unicode="~" horiz-adv-x="676" 
d="M101 183c-22 12 -40.8359 30.002 -56.5029 54.002s-26.667 51 -33 81s-6.5 59.333 -0.5 88c51.333 41.333 96.833 69.166 136.5 83.499s74.834 21.5 105.501 21.5c26.667 0 51 -3 73 -9s43.167 -12.167 63.5 -18.5s40.833 -9.5 61.5 -9.5c16 0 36.5 4.66699 61.5 14
s47.167 22 66.5 38c22 -12 40.5 -30.167 55.5 -54.5s25.5 -51.5 31.5 -81.5s5.66699 -59.333 -1 -88c-51.333 -40.667 -96.666 -68.334 -135.999 -83.001s-74.666 -22 -105.999 -22c-26 0 -50.167 3.16699 -72.5 9.5l-64 18.5c-20.333 6 -40.833 9 -61.5 9
c-16 0 -35.833 -4.5 -59.5 -13.5s-45.167 -21.5 -64.5 -37.5z" />
    <glyph glyph-name="uni00A0" unicode="&#xa0;" horiz-adv-x="220" 
 />
    <glyph glyph-name="exclamdown" unicode="&#xa1;" horiz-adv-x="599" 
d="M299 731c52 0 94.333 -7.99609 127 -23.9961s56.667 -36.833 72 -62.5s23 -52.834 23 -81.501c0 -37.333 -8 -68.833 -24 -94.5s-34.667 -42.834 -56 -51.501c-20.667 20.667 -48 37 -82 49s-66.667 17.333 -98 16c34.667 -12.667 71.167 -31.334 109.5 -56.001
s74.166 -55.334 107.499 -92.001s60.5 -79.334 81.5 -128.001s31.5 -103.334 31.5 -164.001c0 -44.667 -13.167 -83.5 -39.5 -116.5s-61.666 -58.5 -105.999 -76.5s-92.833 -27 -145.5 -27c-36 0 -71.333 4.5 -106 13.5s-66 22.667 -94 41s-50.333 41.333 -67 69
s-25 59.834 -25 96.501c0 55.333 6.83301 105 20.5 149s31 83.667 52 119s42.167 68.666 63.5 99.999c-22 14.667 -39.833 33.834 -53.5 57.501s-20.5 52.834 -20.5 87.501c0 51.333 19.167 93.5 57.5 126.5s95.5 49.5 171.5 49.5z" />
    <glyph glyph-name="cent" unicode="&#xa2;" horiz-adv-x="897" 
d="M361 -89l0.00292969 103.001c-86.667 8.66699 -155.834 27.667 -207.501 57s-88.834 67.833 -111.501 115.5s-34 103.167 -34 166.5c0 102.667 29.333 182.667 88 240s145 87.333 259 90v79c9.33301 2.66699 22.666 4.66699 39.999 6s36 2 56 2c18 0 36 -0.5 54 -1.5
s33.667 -3.16699 47 -6.5v-216c7.33301 36 17.166 63.667 29.499 83s30.166 32.333 53.499 39s54.5 9.5 93.5 8.5s88.5 -3.5 148.5 -7.5c3.33301 -14.667 6 -34.667 8 -60s3.33301 -52.333 4 -81s0.166992 -56.834 -1.5 -84.501s-4.16699 -51.5 -7.5 -71.5
c-16 -2.66699 -38 -5 -66 -7s-58.667 -3.33301 -92 -4s-66.666 -0.666992 -99.999 0s-63.5 2 -90.5 4s-47.833 4.33301 -62.5 7l-1 31h-44v-108h44v38c40 3.33301 84 5.5 132 6.5s96.5 1 145.5 0s95.5 -3.16699 139.5 -6.5c-2 -66 -13.667 -121.5 -35 -166.5
s-55.5 -80 -102.5 -105s-110.167 -40.833 -189.5 -47.5v-103c-9.33301 -2.66699 -22.666 -4.66699 -39.999 -6s-36 -2 -56 -2c-18 0 -36 0.666992 -54 2s-33.667 3.33301 -47 6z" />
    <glyph glyph-name="sterling" unicode="&#xa3;" horiz-adv-x="1008" 
d="M205 -34c-66 0 -115.33 14.5029 -147.997 43.5029s-49 65.5 -49 109.5c0 40 8 72.5 24 97.5s37.333 43.333 64 55s56 17.5 88 17.5v27h-145c-5.33301 28 -8.16602 52.5 -8.49902 73.5s2.16699 45.5 7.5 73.5h115c-20.667 5.33301 -38 17.333 -52 36
s-21 39.334 -21 62.001c0 36 10.167 65.167 30.5 87.5s46.833 39.166 79.5 50.499s68.5 19 107.5 23s76.833 6 113.5 6c48 0 92.5 -4.83301 133.5 -14.5s74.333 -26 100 -49s39.167 -55.167 40.5 -96.5c8 23.333 11 46.5 9 69.5s-4.33301 46.5 -7 70.5c50 0 90 0.5 120 1.5
l73 2.5c18.667 0.666992 35.167 1.33398 49.5 2.00098s30.5 1 48.5 1c4 -18.667 7.33301 -42.834 10 -72.501s4.16699 -60.167 4.5 -91.5s-0.333984 -59.333 -2.00098 -84s-4.83398 -41.667 -9.50098 -51c-48 -7.33301 -102.5 -11 -163.5 -11s-120.5 3.66699 -178.5 11
c-1.33301 6 -2.16602 12.167 -2.49902 18.5s0.166992 12.5 1.5 18.5h-46v-37h33v-72h-33v-63h40c0 18.667 0.666992 36 2 52s3 29 5 39c21.333 4 47.166 6.83301 77.499 8.5s62.166 2.5 95.499 2.5s65.166 -0.833008 95.499 -2.5s56.5 -4.5 78.5 -8.5
c12 -62.667 17 -118.834 15 -168.501s-13.333 -91.834 -34 -126.501s-52.5 -61.167 -95.5 -79.5s-99.167 -27.5 -168.5 -27.5c-72.667 0 -134.667 9.16699 -186 27.5s-88.666 41.166 -111.999 68.499c-13.333 -24.667 -36.833 -47.5 -70.5 -68.5
s-76.834 -31.5 -129.501 -31.5z" />
    <glyph glyph-name="currency" unicode="&#xa4;" horiz-adv-x="808" 
d="M164 -41c-11.333 5.33301 -26.998 14.8359 -46.998 28.5029s-40 29 -60 46s-36.333 32.833 -49 47.5l64 83c-18.667 23.333 -32.667 49.166 -42 77.499s-14 58.166 -14 89.499c0 74 20.667 133 62 177l-70 90c12.667 14.667 29 30.5 49 47.5s40 32.5 60 46.5
s35.667 23.333 47 28l165 -197c-14.667 39.333 -11.667 68.666 9 87.999s55.334 29 104.001 29c46.667 0 89 -5.66699 127 -17l75 97c12 -4.66699 27.833 -14 47.5 -28s39.667 -29.5 60 -46.5s36.5 -32.833 48.5 -47.5l-142 -183h1c21.333 21.333 42.166 32.833 62.499 34.5
s37.166 -5.83301 50.499 -22.5s20 -42.667 20 -78c0 -73.333 -19.333 -134.333 -58 -183l66 -85c-12 -14.667 -28.167 -30.5 -48.5 -47.5s-40.333 -32.333 -60 -46s-35.5 -23.167 -47.5 -28.5l-82 105c-23.333 -6 -48.5 -10.667 -75.5 -14s-56.167 -5 -87.5 -5
c-56.667 0 -108.334 5.66699 -155.001 17zM381.002 299.003h45v78h-45v-78z" />
    <glyph glyph-name="yen" unicode="&#xa5;" horiz-adv-x="1034" 
d="M245 -17c-6 15.333 -10.5 31.999 -13.5 49.999s-4.16699 40 -3.5 66c21.333 3.33301 37.666 6.5 48.999 9.5s25.333 8.83301 42 17.5l-13 26c-15.333 -8.66699 -31.833 -15.167 -49.5 -19.5s-42.834 -6.5 -75.501 -6.5h-160c-5.33301 28 -8.33301 52.5 -9 73.5
s1.66602 45.5 6.99902 73.5h175v26h-175c-5.33301 28 -8.16602 52.5 -8.49902 73.5s2.16699 45.5 7.5 73.5h112c-18.667 9.33301 -38.5 16.166 -59.5 20.499s-36.833 6.5 -47.5 6.5c-5.33301 11.333 -9.33301 27.333 -12 48s-3.83398 43 -3.50098 67s2.16602 47 5.49902 69
s8 40.333 14 55c25.333 -2 61.166 -4.66699 107.499 -8s97.833 -5 154.5 -5c47.333 0 91.833 1.66699 133.5 5l99.5 8c-3.33301 -17.333 -6.66602 -36.5 -9.99902 -57.5s-4.66602 -42.833 -3.99902 -65.5s5 -44.667 13 -66s21.333 -40.666 40 -57.999l22 20
c-28 25.333 -43 57.333 -45 96s2.33301 82.334 13 131.001c16.667 -2 34.834 -4 54.501 -6s44.834 -3.66699 75.501 -5s70.334 -2 119.001 -2c20 0 42.833 0.833008 68.5 2.5s51.167 3.5 76.5 5.5l63 5c6 -14.667 10.5 -33 13.5 -55s4.66699 -45 5 -69
s-0.833984 -46.333 -3.50098 -67s-6.66699 -36.667 -12 -48c-10.667 -1.33301 -23.167 -4.33301 -37.5 -9s-31.833 -10.667 -52.5 -18h89c5.33301 -28 7.83301 -52.5 7.5 -73.5s-3.16602 -45.5 -8.49902 -73.5h-163v-26h163c5.33301 -28 7.66602 -52.5 6.99902 -73.5
s-3.66699 -45.5 -9 -73.5h-148c-32.667 0 -57.834 2.16699 -75.501 6.5s-34.167 10.833 -49.5 19.5l-13 -26c16.667 -8.66699 30.667 -14.5 42 -17.5s27.666 -6.16699 48.999 -9.5c0.666992 -8.66699 0.333984 -20.167 -0.999023 -34.5s-3.33301 -29 -6 -44
s-6 -27.5 -10 -37.5c-27.333 3.33301 -62.666 6.66602 -105.999 9.99902s-99.666 5 -168.999 5c-72 0 -129 -1.66699 -171 -5s-76.667 -6.66602 -104 -9.99902z" />
    <glyph glyph-name="brokenbar" unicode="&#xa6;" horiz-adv-x="277" 
d="M10 366c2.66699 52 4.33301 106.333 5 163s0.666992 113.5 0 170.5s-2.33398 111.167 -5.00098 162.5c9.33301 1.33301 25.166 2.33301 47.499 3s46.833 1 73.5 1s52.5 -0.333008 77.5 -1s44.5 -1.66699 58.5 -3c-2 -51.333 -3.5 -105.5 -4.5 -162.5
s-1 -113.833 0 -170.5s2.5 -111 4.5 -163c-9.33301 -1.33301 -26.166 -2.33301 -50.499 -3s-50.166 -1 -77.499 -1c-25.333 0 -49.833 0.333008 -73.5 1s-42.167 1.66699 -55.5 3zM9.99902 -166c2.66699 52 4.33301 106.167 5 162.5s0.666992 112.5 0 168.5
s-2.33398 109.333 -5.00098 160c9.33301 1.33301 25.166 2.33301 47.499 3s46.833 1 73.5 1s52.5 -0.333008 77.5 -1s44.5 -1.66699 58.5 -3c-2 -50.667 -3.5 -104 -4.5 -160s-1 -112.167 0 -168.5s2.5 -110.5 4.5 -162.5c-9.33301 -2 -25.833 -3.5 -49.5 -4.5
s-49.167 -1.5 -76.5 -1.5c-25.333 0 -50.166 0.5 -74.499 1.5s-43.166 2.5 -56.499 4.5z" />
    <glyph glyph-name="section" unicode="&#xa7;" horiz-adv-x="916" 
d="M466 -170c-77.333 0 -145.002 5.33398 -203.002 16.001s-105.833 23.5 -143.5 38.5s-65.167 28.833 -82.5 41.5c-8 9.33301 -14 23.833 -18 43.5s-6.5 41 -7.5 64s-0.5 44.833 1.5 65.5s5 36.334 9 47.001c48.667 1.33301 95 -6.83398 139 -24.501s83 -41.167 117 -70.5
l19 22c-15.333 13.333 -29.666 24.333 -42.999 33s-25.666 16 -36.999 22c-24 13.333 -48.333 28.166 -73 44.499s-47.334 36.666 -68.001 60.999s-37.167 54.333 -49.5 90s-18.5 79.167 -18.5 130.5c0 109.333 37.667 193.333 113 252s185 88 329 88
c77.333 0 145.666 -5 204.999 -15s108 -21.667 146 -35s64 -24.666 78 -33.999c8 -12 14.167 -28.5 18.5 -49.5s7 -43.333 8 -67s0.333008 -45.667 -2 -66s-6.16602 -36.166 -11.499 -47.499c-48 -1.33301 -93.667 7 -137 25s-82.333 41.333 -117 70l-20 -21
c16.667 -14.667 33 -27.167 49 -37.5l47 -29.5c20 -12 41.167 -25.667 63.5 -41s43.333 -34.5 63 -57.5s35.834 -51.833 48.501 -86.5s19 -77.334 19 -128.001c0 -110.667 -37.833 -195.667 -113.5 -255s-185.167 -89 -328.5 -89zM446.998 264.001h44v118h-44v-118z" />
    <glyph glyph-name="dieresis" unicode="&#xa8;" horiz-adv-x="703" 
d="M230 529c-72.667 0 -127.838 16.9971 -165.505 50.9971s-56.5 76.333 -56.5 127c0 26.667 7 52.834 21 78.501s37.167 47.167 69.5 64.5s75.833 26 130.5 26c16.667 0 32.167 -1 46.5 -3s27.5 -4.33301 39.5 -7c-22 -14.667 -36.5 -31.667 -43.5 -51
s-8.5 -37.666 -4.5 -54.999c10.667 31.333 32.667 58.5 66 81.5s82 34.5 146 34.5c52.667 0 94.834 -8.5 126.501 -25.5s54.5 -39 68.5 -66s21 -55.833 21 -86.5c0 -28 -6.83301 -55 -20.5 -81s-36.167 -47.167 -67.5 -63.5s-73.666 -24.5 -126.999 -24.5
c-47.333 0 -87.166 7.5 -119.499 22.5s-57.166 35.167 -74.499 60.5l-25 -17c14.667 -21.333 34.334 -39.666 59.001 -54.999c-26 -7.33301 -56 -11 -90 -11z" />
    <glyph glyph-name="copyright" unicode="&#xa9;" horiz-adv-x="1004" 
d="M489 -50c-104 0 -191.499 16.667 -262.499 50s-124.833 80.333 -161.5 141s-55 132 -55 214c0 102.667 20.667 186 62 250s99 110.833 173 140.5s159.667 44.5 257 44.5s183 -14.833 257 -44.5s131.667 -76.5 173 -140.5s62 -147.333 62 -250
c0 -82 -18.667 -153.333 -56 -214s-93.333 -107.667 -168 -141s-168.334 -50 -281.001 -50zM503.001 206c123.333 0 186.332 46.334 188.999 139.001c-21.333 1.33301 -39.333 2.16602 -54 2.49902s-29 0.333008 -43 0s-31 -1.16602 -51 -2.49902v-29h-83v94h83l1 -26
c12 -1.33301 26.833 -2.33301 44.5 -3s35.5 -0.666992 53.5 0s33.333 1.66699 46 3c2.66699 13.333 4.16699 28.333 4.5 45s0.166016 32.667 -0.500977 48s-2 27.666 -4 36.999c-16 0 -35.667 -0.333008 -59 -1s-41.666 -1 -54.999 -1v-76h-29c0 30.667 -10 52.667 -30 66
s-42 20 -66 20c-41.333 0 -75.666 -13.667 -102.999 -41s-41 -65.333 -41 -114c0 -48 15.167 -86.833 45.5 -116.5s80.833 -44.5 151.5 -44.5z" />
    <glyph glyph-name="ordfeminine" unicode="&#xaa;" horiz-adv-x="801" 
d="M269 192c-66 0 -118.168 8.50195 -156.501 25.502s-65.666 39.333 -81.999 67s-24.5 57.5 -24.5 89.5c0 48.667 17 88.167 51 118.5s88.667 45.833 164 46.5l175 1v48h-46v-22c-56 -2.66699 -111.167 -5 -165.5 -7s-108.833 -1 -163.5 3c-14 84 -12.333 165.667 5 245
c20.667 0 47 -0.5 79 -1.5s64.667 -1.83301 98 -2.5s63 -1.33398 89 -2.00098c-6.66699 -16.667 -9.5 -33.334 -8.5 -50.001s4.16699 -32.667 9.5 -48c2.66699 45.333 20 77 52 95s77.333 27 136 27c75.333 0 133.166 -10.833 173.499 -32.5s67.166 -54.167 80.499 -97.5
c6.66699 -20 9.5 -41.667 8.5 -65s-2.83301 -46.166 -5.5 -68.499s-4 -42.5 -4 -60.5c0 -33.333 5.33301 -57 16 -71s22 -23.333 34 -28c4.66699 -16 7.5 -36 8.5 -60s0.5 -48.167 -1.5 -72.5s-6 -45.5 -12 -63.5c-24.667 -4.66699 -50 -8.16699 -76 -10.5
s-47.333 -3.5 -64 -3.5c-42.667 0 -75.667 5 -99 15s-35 28.333 -35 55c0 9.33301 1.83301 19.166 5.5 29.499s7.83398 21.5 12.501 33.5l-27 12c-10 -24 -23.333 -47.167 -40 -69.5s-39.667 -40.5 -69 -54.5s-68.666 -21 -117.999 -21zM349.999 435.002h46v52h-46v-52z" />
    <glyph glyph-name="guillemotleft" unicode="&#xab;" horiz-adv-x="935" 
d="M339 -34l-161.501 131.001c-43 35.333 -76.833 66.166 -101.5 92.499s-42.167 51.5 -52.5 75.5s-15.5 50.667 -15.5 80s5.83301 56.166 17.5 80.499s30.5 50.333 56.5 78s60.167 61.334 102.5 101.001l154.5 149.5c35.333 -7.33301 70.5 -21.833 105.5 -43.5
s63.5 -45.167 85.5 -70.5c-23.333 -22.667 -41.666 -47 -54.999 -73s-20.666 -47 -21.999 -63c26 28.667 60 62.5 102 101.5l154 148.5c26.667 -5.33301 54.667 -16 84 -32s56.166 -34.167 80.499 -54.5s42.166 -39.833 53.499 -58.5
c-0.666992 -8 -5.16699 -21.5 -13.5 -40.5s-18.5 -40.833 -30.5 -65.5l-37 -74.5l-34 -68.5l34 -68.5l37 -74.5c12 -24.667 22.167 -46.5 30.5 -65.5s12.833 -32.5 13.5 -40.5c-7.33301 -16.667 -19.5 -33 -36.5 -49s-36.167 -30.667 -57.5 -44s-43 -24.5 -65 -33.5
s-41.667 -15.167 -59 -18.5c-62.667 50 -115 93.5 -157 130.5s-75.667 68.833 -101 95.5l-23 -19c13.333 -14 29.5 -29.667 48.5 -47l56.5 -52c-15.333 -17.333 -34.5 -33.5 -57.5 -48.5s-46.667 -27.833 -71 -38.5s-46.166 -17.667 -65.499 -21z" />
    <glyph glyph-name="logicalnot" unicode="&#xac;" horiz-adv-x="618" 
d="M298 69l0.000976562 158.002c-46.667 0 -93.334 -0.333008 -140.001 -1s-93.334 -1.66699 -140.001 -3c-2.66699 9.33301 -4.66699 25.666 -6 48.999s-2 49.166 -2 77.499s0.666992 55.5 2 81.5s3.33301 46 6 60c194 -4.66699 387.667 -4.66699 581 0
c5.33301 -70.667 8.33301 -141 9 -211s-1 -140.333 -5 -211c-9.33301 -2.66699 -28.833 -4.66699 -58.5 -6s-61.5 -2 -95.5 -2c-30.667 0 -60.167 0.666992 -88.5 2s-49.166 3.33301 -62.499 6z" />
    <glyph glyph-name="uni00AD" unicode="&#xad;" horiz-adv-x="448" 
d="M18 229c-2 7.33301 -3.66699 20 -5 38s-2.33301 38.833 -3 62.5s-0.833984 47.667 -0.500977 72s1.16602 46.666 2.49902 66.999s3.33301 36.166 6 47.499h412c2 -7.33301 3.66699 -20 5 -38s2.33301 -38.833 3 -62.5s0.833984 -47.667 0.500977 -72
s-1.16602 -46.666 -2.49902 -66.999s-3.33301 -36.166 -6 -47.499h-412z" />
    <glyph glyph-name="registered" unicode="&#xae;" horiz-adv-x="856" 
d="M422 177c-96 0 -174.502 14.667 -235.502 44s-106 69.666 -135 120.999s-43.5 110 -43.5 176c0 121.333 37 210.666 111 267.999s177 86 309 86c132.667 0 235.834 -28.667 309.501 -86s110.5 -146.666 110.5 -267.999c0 -66 -14.667 -124.667 -44 -176
s-75.166 -91.666 -137.499 -120.999s-143.833 -44 -244.5 -44zM254.998 393c29.333 3.33301 55.3311 5 77.998 5s49.334 -1.66699 80.001 -5c3.33301 10 5 23.5 5 40.5s-1.66699 29.833 -5 38.5h-13v28c23.333 -2.66699 41.166 -13.834 53.499 -33.501
s18.166 -44.167 17.499 -73.5c24 3.33301 46.667 5 68 5s45.333 -1.66699 72 -5c2.66699 10 4.5 21.833 5.5 35.5s1.33301 27 1 40s-1.5 22.833 -3.5 29.5l-47 11.5c-17.333 4.33301 -32.333 9.83301 -45 16.5l10 22c13.333 -6 27 -8.83301 41 -8.5
s25.833 5.16602 35.5 14.499s14.5 24 14.5 44c0 22.667 -7.66699 40.334 -23 53.001s-36.166 21.5 -62.499 26.5s-55.833 7.5 -88.5 7.5c-29.333 0 -54.5 -0.666992 -75.5 -2s-40.667 -2.5 -59 -3.5s-38.833 -1.16699 -61.5 -0.5
c-2.66699 -7.33301 -4.66699 -17.166 -6 -29.499s-1.5 -24.333 -0.5 -36s2.83301 -20.5 5.5 -26.5c4.66699 0 9.83398 -3 15.501 -9s8.5 -18.333 8.5 -37c0 -17.333 -2.66699 -29.5 -8 -36.5s-10.666 -11.5 -15.999 -13.5c-2 -6.66699 -3.16699 -16.5 -3.5 -29.5
s0 -26 1 -39s2.83301 -22.833 5.5 -29.5zM398.996 525v75h67v-75h-67z" />
    <glyph glyph-name="macron" unicode="&#xaf;" horiz-adv-x="553" 
d="M16 552c-2 7.33301 -3.66699 20.5 -5 39.5s-2.33301 41 -3 66s-0.833984 50.5 -0.500977 76.5s1.16602 49.667 2.49902 71s3.33301 37.666 6 48.999c34 -2.66699 73.667 -4.5 119 -5.5s92.5 -1.5 141.5 -1.5s96.167 0.5 141.5 1.5s85 2.83301 119 5.5
c2 -7.33301 3.66699 -20.5 5 -39.5s2.33301 -41 3 -66s0.833984 -50.5 0.500977 -76.5s-1.16602 -49.667 -2.49902 -71s-3.33301 -37.666 -6 -48.999c-34 1.33301 -73.667 2.5 -119 3.5s-92.5 1.5 -141.5 1.5s-96.167 -0.5 -141.5 -1.5s-85 -2.16699 -119 -3.5z" />
    <glyph glyph-name="degree" unicode="&#xb0;" horiz-adv-x="687" 
d="M338 270c-111.333 0 -193.834 21.333 -247.501 64s-80.5 106 -80.5 190c0 93.333 27 161.833 81 205.5s137 65.5 249 65.5c119.333 0 205.333 -21.5 258 -64.5s79 -106.167 79 -189.5c0 -93.333 -27.667 -161.833 -83 -205.5s-140.666 -65.5 -255.999 -65.5zM320.999 498
h42v70h-42v-70z" />
    <glyph glyph-name="plusminus" unicode="&#xb1;" horiz-adv-x="618" 
d="M19 31c-2.66699 9.33301 -4.66797 24.999 -6.00098 46.999s-2 46.333 -2 73s0.666992 52.334 2 77.001s3.33301 44 6 58h224v31h-227c-2 4 -3.5 15.833 -4.5 35.5s-1.5 42.334 -1.5 68.001s0.833008 50.667 2.5 75s3.83398 43.5 6.50098 57.5
c74 -2.66699 148.333 -4.66699 223 -6c-27.333 8.66699 -47.5 18.334 -60.5 29.001s-21.5 22.667 -25.5 36s-5.66699 27.666 -5 42.999l2 60c6.66699 2 18.5 3.66699 35.5 5s36.833 2.33301 59.5 3s45.667 1 69 1c29.333 0 57 -0.5 83 -1.5s45.333 -2.83301 58 -5.5v-168
l71 2l71 2c2.66699 -8.66699 4.66699 -24 6 -46s2 -45.833 2 -71.5s-0.666992 -49.5 -2 -71.5s-3.33301 -37.667 -6 -47h-142v-31h142c2.66699 -8.66699 4.66699 -24.167 6 -46.5s2 -46.833 2 -73.5s-0.5 -52.334 -1.5 -77.001s-3.16699 -44 -6.5 -58
c-193.333 4.66699 -387 4.66699 -581 0z" />
    <glyph glyph-name="uni00B2" unicode="&#xb2;" horiz-adv-x="762" 
d="M22 159c-8.66699 43.333 -13.3291 82.666 -13.9961 117.999s2.66602 65 9.99902 89c40.667 10 79.5 20.167 116.5 30.5s70 25.333 99 45s51.167 48.834 66.5 87.501l-29 9c-17.333 -42.667 -45.833 -73.167 -85.5 -91.5s-93.167 -27.166 -160.5 -26.499
c-6 35.333 -10 72.666 -12 111.999s-2.83301 77.666 -2.5 114.999s1.66602 70.333 3.99902 99s5.16602 49.334 8.49902 62.001c16 -0.666992 35.833 -1.33398 59.5 -2.00098s49 -1.16699 76 -1.5s53.167 -0.833008 78.5 -1.5s47.666 -1.33398 66.999 -2.00098
c-8.66699 -14.667 -15.334 -30.667 -20.001 -48s-4 -33.666 2 -48.999c7.33301 30 21.333 53.833 42 71.5s46 30.334 76 38.001s62 11.5 96 11.5c50.667 0 94.667 -6.33301 132 -19s66.5 -34 87.5 -64s31.5 -71 31.5 -123c0 -34 -5.5 -61.5 -16.5 -82.5
s-26.167 -38.5 -45.5 -52.5s-41.166 -27 -65.499 -39s-49.833 -25.667 -76.5 -41l18 -24c34 19.333 65.833 35.5 95.5 48.5s57.5 17.167 83.5 12.5c4 -16 6.83301 -37.333 8.5 -64s2.16699 -54.5 1.5 -83.5s-2.16699 -55.667 -4.5 -80s-5.83301 -42.5 -10.5 -54.5
c-40.667 1.33301 -78.667 2.83301 -114 4.5l-110 5c-38 1.66699 -82.667 2.5 -134 2.5c-74.667 0 -135.167 -0.666992 -181.5 -2s-83 -2.83301 -110 -4.5s-49.5 -3.5 -67.5 -5.5z" />
    <glyph glyph-name="uni00B3" unicode="&#xb3;" horiz-adv-x="767" 
d="M373 154c-116.667 0 -206.667 14.1689 -270 42.502s-95 75.833 -95 142.5c0 48 15 84.333 45 109s72.667 37 128 37c53.333 0 91.666 -10.167 114.999 -30.5s38.666 -48.833 45.999 -85.5l29 4c-5.33301 27.333 -12.666 47.833 -21.999 61.5s-18.333 24.167 -27 31.5v64
h38v45h-54v-63l-141 -5.5c-44.667 -1.66699 -94 -1.16699 -148 1.5c-6.66699 61.333 -9.66699 117.166 -9 167.499s5 95.166 13 134.499c21.333 0 48 -0.5 80 -1.5s64.833 -1.83301 98.5 -2.5s63.5 -1.33398 89.5 -2.00098c-7.33301 -12 -13.5 -27.5 -18.5 -46.5
s-4.83301 -36.167 0.5 -51.5c10.667 45.333 37.5 76.5 80.5 93.5s97.5 25.5 163.5 25.5c21.333 0 44.833 -1.83301 70.5 -5.5s50 -11.167 73 -22.5s42 -28.666 57 -51.999s22.5 -54.666 22.5 -93.999c0 -18.667 -3.16699 -37.834 -9.5 -57.501s-14.166 -37.5 -23.499 -53.5
s-19.333 -28.667 -30 -38c32 -19.333 54 -41 66 -65s18 -49.667 18 -77c0 -42 -13 -78.333 -39 -109s-67.167 -54.5 -123.5 -71.5s-130.833 -25.5 -223.5 -25.5z" />
    <glyph glyph-name="acute" unicode="&#xb4;" horiz-adv-x="456" 
d="M223 515c-12.667 -2.66699 -28.667 -4 -48 -4s-38.5 1 -57.5 3s-34.833 4.66699 -47.5 8c-26.667 22 -44.334 48.5 -53.001 79.5s-11.167 62.667 -7.5 95s10.834 62.5 21.501 90.5s22.334 50.333 35.001 67c19.333 8 40.666 13.833 63.999 17.5s47.333 5.5 72 5.5
c34.667 0 68.667 -3.16699 102 -9.5s62.833 -15 88.5 -26s44.167 -23.833 55.5 -38.5c-4.66699 -29.333 -14.667 -58.833 -30 -88.5s-33.833 -57.667 -55.5 -84s-44.5 -49.5 -68.5 -69.5s-47.667 -35.333 -71 -46z" />
    <glyph glyph-name="uni00B5" unicode="&#xb5;" horiz-adv-x="961" 
d="M28 -149c-7.33301 40.667 -11.8271 86.1582 -13.4941 136.491s-1.66699 102.5 0 156.5s3.83398 106.333 6.50098 157c3.33301 51.333 5.16602 98 5.49902 140s-0.833984 83.5 -3.50098 124.5s-7 84.833 -13 131.5c31.333 4 67.666 7 108.999 9s83 3 125 3
c37.333 0 73.166 -0.833008 107.499 -2.5s63.833 -4.5 88.5 -8.5c6 -61.333 6 -126 0 -194v-165h36v163c-6 35.333 -8.5 71 -7.5 107s4.83301 65.667 11.5 89c25.333 3.33301 54.166 5.83301 86.499 7.5s65.833 2.5 100.5 2.5c43.333 0 86.666 -1 129.999 -3
s81.333 -4.66699 114 -8c2.66699 -36.667 3.16699 -69.167 1.5 -97.5s-4.16699 -55.166 -7.5 -80.499s-6.5 -51.666 -9.5 -78.999s-4.5 -59 -4.5 -95c0 -28.667 3.16699 -49.834 9.5 -63.501s13.5 -23 21.5 -28l20 -12.5c6 -19.333 9.5 -43.666 10.5 -72.999
s0.166992 -58.666 -2.5 -87.999s-7.33398 -54.666 -14.001 -75.999c-18 -9.33301 -44 -18 -78 -26s-70.333 -12 -109 -12c-54 0 -95.5 6 -124.5 18s-43.5 34 -43.5 66c0 11.333 2.16699 23.333 6.5 36s9.5 26.334 15.5 41.001l-26 13
c-14.667 -35.333 -37 -64.666 -67 -87.999s-75 -38.333 -135 -45l4 -29c11.333 1.33301 22.666 2.83301 33.999 4.5s22.333 3.83398 33 6.50098c8 -11.333 14.167 -25.166 18.5 -41.499s7.33301 -32.5 9 -48.5s2.16699 -28.667 1.5 -38
c-12 -3.33301 -32.167 -6.66602 -60.5 -9.99902s-61 -5.83301 -98 -7.5s-74.833 -2.5 -113.5 -2.5c-32.667 0 -64.167 0.833008 -94.5 2.5s-57.166 4.16699 -80.499 7.5z" />
    <glyph glyph-name="paragraph" unicode="&#xb6;" horiz-adv-x="967" 
d="M290 -173c-58.667 0 -106.5 7.33496 -143.5 22.002s-65.5 34 -85.5 58s-33.833 50.167 -41.5 78.5s-11.5 55.833 -11.5 82.5c0 17.333 1 33.833 3 49.5s4.33301 29.834 7 42.501c17.333 3.33301 37.166 4.16602 59.499 2.49902s44.166 -3.83398 65.499 -6.50098l1 -97h31
v103c-28.667 18 -55.334 40.333 -80.001 67s-44.5 58 -59.5 94s-22.5 77 -22.5 123c0 82.667 15.833 148.667 47.5 198s78.5 84.833 140.5 106.5s138.333 32.5 229 32.5c52.667 0 107.334 -1.66699 164.001 -5s117 -5 181 -5c50.667 0 104.334 2 161.001 6
c14 -40 21 -78 21 -114c0 -22.667 -1.83301 -42.5 -5.5 -59.5s-8.16699 -33.833 -13.5 -50.5s-9.83301 -35.167 -13.5 -55.5s-5.5 -45.166 -5.5 -74.499c0 -40.667 3.16699 -82.5 9.5 -125.5l19 -125.5c6.33301 -40.667 9.5 -78.334 9.5 -113.001
c0 -52 -9.66699 -93 -29 -123s-46.5 -51.167 -81.5 -63.5s-76.5 -18.5 -124.5 -18.5c-14 0 -24.333 0.666992 -31 2s-17 3 -31 5c-12 32 -18.333 64.5 -19 97.5s4 68.833 14 107.5v320h-36v-203c10.667 -72.667 10.5 -132.334 -0.5 -179.001s-31.5 -83 -61.5 -109
s-67.667 -44.167 -113 -54.5s-96.666 -15.5 -153.999 -15.5z" />
    <glyph glyph-name="periodcentered" unicode="&#xb7;" horiz-adv-x="472" 
d="M232 172c-148 0 -222 62.333 -222 187c0 60 19 105.833 57 137.5s94 47.5 168 47.5c151.333 0 227 -61.667 227 -185c0 -60.667 -19.333 -107 -58 -139s-96 -48 -172 -48z" />
    <glyph glyph-name="cedilla" unicode="&#xb8;" horiz-adv-x="496" 
d="M221 -172c-93.333 0 -164.997 7.33203 -214.997 21.999c10 13.333 21 29.5 33 48.5s22.5 40.5 31.5 64.5s13.5 49.667 13.5 77c0 17.333 -2.5 35.333 -7.5 54s-13.167 38 -24.5 58c25.333 9.33301 52.666 16.5 81.999 21.5s58.333 7.5 87 7.5
c45.333 0 88.166 -6 128.499 -18s73.166 -30.333 98.499 -55s38 -56 38 -94c0 -47.333 -10 -84.666 -30 -111.999s-49.667 -46.5 -89 -57.5s-88 -16.5 -146 -16.5z" />
    <glyph glyph-name="uni00B9" unicode="&#xb9;" horiz-adv-x="496" 
d="M28 158c-4.66699 11.333 -8.33398 25.6699 -11.001 43.0029s-4.16699 35.666 -4.5 54.999s0.166992 37.833 1.5 55.5s4 31.834 8 42.501c8.66699 3.33301 16.834 8.83301 24.501 16.5s14 20.167 19 37.5s7.5 42 7.5 74c0 37.333 -4.83301 61.833 -14.5 73.5
s-21.834 17.834 -36.501 18.501c-4.66699 9.33301 -8.16699 22.666 -10.5 39.999s-3.5 36 -3.5 56s1.5 39.167 4.5 57.5s7.16699 33.5 12.5 45.5c49.333 3.33301 97 8.16602 143 14.499l137 19c45.333 6.33301 92 10.166 140 11.499
c5.33301 -15.333 9.16602 -32.333 11.499 -51s3.5 -35 3.5 -49c0 -26 -2.66699 -50 -8 -72s-10.666 -45.5 -15.999 -70.5s-8 -55.5 -8 -91.5c0 -44.667 5.33301 -76.334 16 -95.001s22 -30.334 34 -35.001c5.33301 -17.333 8.5 -38.666 9.5 -63.999s0.333008 -50 -2 -74
s-6.5 -43.333 -12.5 -58c-15.333 2 -35.333 4 -60 6s-51.667 3.66699 -81 5s-58.666 2 -87.999 2c-26.667 0 -53.667 -0.666992 -81 -2s-52.833 -3 -76.5 -5s-43.167 -4 -58.5 -6z" />
    <glyph glyph-name="ordmasculine" unicode="&#xba;" horiz-adv-x="788" 
d="M387 192c-126 0 -220.333 26 -283 78s-94 128.667 -94 230c0 111.333 31.833 193.333 95.5 246s159.167 79 286.5 79c134.667 0 232.667 -25.833 294 -77.5s92 -127.5 92 -227.5c0 -112.667 -32.333 -195.5 -97 -248.5s-162.667 -79.5 -294 -79.5zM372 463h44v91h-44v-91
z" />
    <glyph glyph-name="guillemotright" unicode="&#xbb;" horiz-adv-x="935" 
d="M596 -34l161.501 131.001c43 35.333 76.833 66.166 101.5 92.499s42.167 51.5 52.5 75.5s15.5 50.667 15.5 80s-5.83301 56.166 -17.5 80.499s-30.5 50.333 -56.5 78s-60.167 61.334 -102.5 101.001l-154.5 149.5c-35.333 -7.33301 -70.5 -21.833 -105.5 -43.5
s-63.5 -45.167 -85.5 -70.5c23.333 -22.667 41.666 -47 54.999 -73s20.666 -47 21.999 -63c-26 28.667 -60 62.5 -102 101.5l-154 148.5c-26.667 -5.33301 -54.667 -16 -84 -32s-56.166 -34.167 -80.499 -54.5s-42.166 -39.833 -53.499 -58.5
c0.666992 -8 5.16699 -21.5 13.5 -40.5s18.5 -40.833 30.5 -65.5l37 -74.5l34 -68.5l-34 -68.5l-37 -74.5c-12 -24.667 -22.167 -46.5 -30.5 -65.5s-12.833 -32.5 -13.5 -40.5c7.33301 -16.667 19.5 -33 36.5 -49s36.167 -30.667 57.5 -44s43 -24.5 65 -33.5
s41.667 -15.167 59 -18.5c62.667 50 115 93.5 157 130.5s75.667 68.833 101 95.5l23 -19c-13.333 -14 -29.5 -29.667 -48.5 -47l-56.5 -52c15.333 -17.333 34.5 -33.5 57.5 -48.5s46.667 -27.833 71 -38.5s46.166 -17.667 65.499 -21z" />
    <glyph glyph-name="onequarter" unicode="&#xbc;" horiz-adv-x="1177" 
d="M717 -151c-4.66699 11.333 -7.49805 21.3389 -8.49805 30.0059s-1.5 21.334 -1.5 38.001c20 7.33301 36.167 16.166 48.5 26.499s23.166 23.166 32.499 38.499l-25 16c-7.33301 -12 -16.333 -22.667 -27 -32s-25.167 -16.833 -43.5 -22.5s-42.833 -8.5 -73.5 -8.5h-86
c-48.667 0 -82 -1 -100 -3c-3.33301 8.66699 -6 19.667 -8 33s-3.66699 28 -5 44l-33 -74l-34 -79c-39.333 6.66699 -74.666 18.167 -105.999 34.5s-58 35.166 -80 56.499l65 112l61 111c-8 0.666992 -16.167 1 -24.5 1h-24.5c-26.667 0 -53.667 -0.666992 -81 -2
s-52.833 -3 -76.5 -5s-43.167 -4 -58.5 -6c-4.66699 11.333 -8.33398 25.666 -11.001 42.999s-4.16699 35.666 -4.5 54.999s0.166992 37.833 1.5 55.5s4 31.834 8 42.501c8.66699 3.33301 16.834 8.83301 24.501 16.5s14 20.167 19 37.5s7.5 42 7.5 74
c0 37.333 -4.83301 61.833 -14.5 73.5s-21.834 17.834 -36.501 18.501c-4.66699 9.33301 -8.16699 22.666 -10.5 39.999s-3.5 36 -3.5 56s1.5 39.167 4.5 57.5s7.16699 33.5 12.5 45.5c49.333 3.33301 97 8.16602 143 14.499l137 19c45.333 6.33301 92 10.166 140 11.499
c5.33301 -15.333 9.16602 -32.333 11.499 -51s3.5 -35 3.5 -49c0 -9.33301 -1.83301 -25.333 -5.5 -48l-12 -76c-4.33301 -28 -7.83301 -55.5 -10.5 -82.5s-3.33398 -49.5 -2.00098 -67.5l91.5 198.5l90.5 206.5c39.333 -10.667 74.833 -22.834 106.5 -36.501
s58.5 -31.167 80.5 -52.5l-138 -251c-42.667 -80.667 -84.667 -164.667 -126 -252c28 34 50.667 64.5 68 91.5s33.333 50.667 48 71s31.5 37.166 50.5 50.499s44.5 23.333 76.5 30c24.667 5.33301 54.334 6.16602 89.001 2.49902s68.667 -5.5 102 -5.5
c36 0 67.5 0.166992 94.5 0.5s46.5 1.83301 58.5 4.5c5.33301 -14.667 9 -26.667 11 -36s3 -21 3 -35c0 -15.333 -1.5 -29 -4.5 -41s-6.5 -24.5 -10.5 -37.5s-7.5 -28.5 -10.5 -46.5s-4.5 -41 -4.5 -69c0 -10 0.833008 -21.167 2.5 -33.5s5.83398 -23.666 12.501 -33.999
s17 -17.166 31 -20.499c5.33301 -8.66699 9.5 -22 12.5 -40s4.5 -37.5 4.5 -58.5s-1.16699 -40.833 -3.5 -59.5s-5.83301 -33 -10.5 -43c-12 -0.666992 -21.333 -7 -28 -19s-11.334 -25.333 -14.001 -40s-4 -27 -4 -37c-17.333 0.666992 -41.166 2.5 -71.499 5.5
s-64.833 4.5 -103.5 4.5c-26 0 -52.833 -0.666992 -80.5 -2s-53.334 -3 -77.001 -5s-43.5 -4 -59.5 -6zM702.002 177.006h46v79h-46v-79z" />
    <glyph glyph-name="onehalf" unicode="&#xbd;" horiz-adv-x="1265" 
d="M525 -150c-8.66699 43.333 -13.3301 82.6689 -13.9971 118.002s2.66602 65 9.99902 89c40.667 10 79.5 20.167 116.5 30.5s70 25.333 99 45s51.167 48.834 66.5 87.501l-29 9c-17.333 -42.667 -45.833 -73.167 -85.5 -91.5s-93.167 -27.166 -160.5 -26.499
c-2.66699 17.333 -4.83398 35.5 -6.50098 54.5s-2.83398 37.5 -3.50098 55.5l-80.5 -172.5l-84.5 -192.5c-39.333 6.66699 -74.666 18.167 -105.999 34.5s-58 35.166 -80 56.499l65 112l61 111c-16 1.33301 -35.667 1.66602 -59 0.999023s-47.666 -1.66699 -72.999 -3
s-49.833 -2.83301 -73.5 -4.5s-43.5 -3.5 -59.5 -5.5c-4.66699 11.333 -8.33398 25.666 -11.001 42.999s-4.16699 35.666 -4.5 54.999s0.166992 37.833 1.5 55.5s4 31.834 8 42.501c8.66699 3.33301 16.834 8.83301 24.501 16.5s14 20.167 19 37.5s7.5 42 7.5 74
c0 37.333 -4.83301 61.833 -14.5 73.5s-21.834 17.834 -36.501 18.501c-4.66699 9.33301 -8.16699 22.666 -10.5 39.999s-3.5 36 -3.5 56s1.5 39.167 4.5 57.5s7.16699 33.5 12.5 45.5c49.333 3.33301 97 8.16602 143 14.499l137 19c45.333 6.33301 92 10.166 140 11.499
c5.33301 -15.333 9.16602 -32.333 11.499 -51s3.5 -35 3.5 -49c0 -9.33301 -1.83301 -25.333 -5.5 -48l-12 -76c-4.33301 -28 -7.83301 -55.5 -10.5 -82.5s-3.33398 -49.5 -2.00098 -67.5l91.5 198.5l90.5 206.5c39.333 -10.667 74.833 -22.834 106.5 -36.501
s58.5 -31.167 80.5 -52.5l-95 -171l-88 -168c26.667 34 56 55.667 88 65s66.333 11.333 103 6c-8.66699 -14.667 -15.334 -30.667 -20.001 -48s-4 -33.666 2 -48.999c7.33301 30 21.333 53.833 42 71.5s46 30.334 76 38.001s62 11.5 96 11.5
c50.667 0 94.667 -6.33301 132 -19s66.5 -34 87.5 -64s31.5 -71 31.5 -123c0 -34 -5.5 -61.5 -16.5 -82.5s-26.167 -38.5 -45.5 -52.5s-41.166 -27 -65.499 -39s-49.833 -25.667 -76.5 -41l18 -24c34 19.333 65.833 35.5 95.5 48.5s57.5 17.167 83.5 12.5
c4 -16 6.83301 -37.333 8.5 -64s2.16699 -54.5 1.5 -83.5s-2.16699 -55.667 -4.5 -80s-5.83301 -42.5 -10.5 -54.5c-40.667 1.33301 -78.5 2.83301 -113.5 4.5l-110 5c-38.333 1.66699 -83.166 2.5 -134.499 2.5c-74.667 0 -135.167 -0.666992 -181.5 -2
s-83 -2.83301 -110 -4.5s-49.5 -3.5 -67.5 -5.5z" />
    <glyph glyph-name="threequarters" unicode="&#xbe;" horiz-adv-x="1432" 
d="M972 -151c-4.66699 11.333 -7.5 21.3389 -8.5 30.0059s-1.5 21.334 -1.5 38.001c20 7.33301 36.167 16.166 48.5 26.499s23.166 23.166 32.499 38.499l-25 16c-7.33301 -12 -16.333 -22.667 -27 -32s-25.167 -16.833 -43.5 -22.5s-42.833 -8.5 -73.5 -8.5h-86
c-48.667 0 -82 -1 -100 -3c-3.33301 8.66699 -6 19.667 -8 33s-3.66699 28 -5 44l-33 -74l-34 -79c-39.333 6.66699 -74.666 18.167 -105.999 34.5s-58 35.166 -80 56.499l64 111l61 110c-24.667 -4.66699 -51.334 -8.16699 -80.001 -10.5s-60 -3.5 -94 -3.5
c-116.667 0 -206.667 14.167 -270 42.5s-95 75.833 -95 142.5c0 48 15 84.333 45 109s72.667 37 128 37c53.333 0 91.666 -10.167 114.999 -30.5s38.666 -48.833 45.999 -85.5l29 4c-5.33301 27.333 -12.666 47.833 -21.999 61.5s-18.333 24.167 -27 31.5v64h38v45h-54v-63
l-141 -5.5c-44.667 -1.66699 -94 -1.16699 -148 1.5c-6.66699 61.333 -9.66699 117.166 -9 167.499s5 95.166 13 134.499c21.333 0 48 -0.5 80 -1.5s64.833 -1.83301 98.5 -2.5s63.5 -1.33398 89.5 -2.00098c-7.33301 -12 -13.5 -27.5 -18.5 -46.5
s-4.83301 -36.167 0.5 -51.5c10.667 45.333 37.5 76.5 80.5 93.5s97.5 25.5 163.5 25.5c21.333 0 44.666 -1.83301 69.999 -5.5s49.333 -11.167 72 -22.5s41.334 -28.666 56.001 -51.999s22 -54.666 22 -93.999c0 -18.667 -3 -37.834 -9 -57.501s-13.667 -37.5 -23 -53.5
s-18.666 -28.667 -27.999 -38c10.667 -6.66699 20 -13.334 28 -20.001l82 180l82 187c39.333 -10.667 74.833 -22.834 106.5 -36.501s58.5 -31.167 80.5 -52.5l-138 -251c-42.667 -80.667 -84.667 -164.667 -126 -252c28 34 50.667 64.5 68 91.5s33.333 50.667 48 71
s31.5 37.166 50.5 50.499s44.5 23.333 76.5 30c24.667 5.33301 54.334 6.16602 89.001 2.49902s68.667 -5.5 102 -5.5c36 0 67.5 0.166992 94.5 0.5s46.5 1.83301 58.5 4.5c5.33301 -14.667 9 -26.667 11 -36s3 -21 3 -35c0 -15.333 -1.5 -29 -4.5 -41
s-6.5 -24.5 -10.5 -37.5s-7.5 -28.5 -10.5 -46.5s-4.5 -41 -4.5 -69c0 -10 0.833008 -21.167 2.5 -33.5s5.83398 -23.666 12.501 -33.999s17 -17.166 31 -20.499c5.33301 -8.66699 9.5 -22 12.5 -40s4.5 -37.5 4.5 -58.5s-1.16699 -40.833 -3.5 -59.5
s-5.83301 -33 -10.5 -43c-12 -0.666992 -21.333 -7 -28 -19s-11.334 -25.333 -14.001 -40s-4 -27 -4 -37c-17.333 0.666992 -41.166 2.5 -71.499 5.5s-64.833 4.5 -103.5 4.5c-26 0 -52.833 -0.666992 -80.5 -2s-53.334 -3 -77.001 -5s-43.5 -4 -59.5 -6zM957 177.006h46v79
h-46v-79z" />
    <glyph glyph-name="questiondown" unicode="&#xbf;" horiz-adv-x="856" 
d="M453 731c78 0 135.999 -14.9971 173.999 -44.9971s57 -73.333 57 -130c0 -24.667 -4.16699 -46.834 -12.5 -66.501s-17.833 -35.834 -28.5 -48.501c-14 23.333 -32.667 40.666 -56 51.999s-47.166 17 -71.499 17s-44.166 -4.33301 -59.499 -13
c56 -2.66699 99.167 -17.334 129.5 -44.001s45.5 -57.667 45.5 -93c0 -24.667 -3.66699 -46.5 -11 -65.5s-18.5 -39.667 -33.5 -62l-56.5 -83.5l25 -14c26 38.667 52 69.334 78 92.001s55 38.834 87 48.501s70.667 14.834 116 15.501c4.66699 -32.667 8 -69.334 10 -110.001
s2.5 -82.167 1.5 -124.5s-3 -82 -6 -119s-6.5 -68.5 -10.5 -94.5c-38 1.33301 -77.167 2.83301 -117.5 4.5s-83.833 3.16699 -130.5 4.5c12 14.667 21.167 33.167 27.5 55.5s6.16602 43.166 -0.500977 62.499c-8.66699 -36.667 -25.667 -65.667 -51 -87
s-56.5 -36.666 -93.5 -45.999s-76.5 -14 -118.5 -14c-114 0 -199 17.167 -255 51.5s-84 93.833 -84 178.5c0 40 7 74.333 21 103s32 53.167 54 73.5s45.5 38.166 70.5 53.499l70.5 43c22 13.333 40 26.833 54 40.5s21 29.5 21 47.5c0 10 -3.33301 19.833 -10 29.5
s-14.5 20.167 -23.5 31.5s-16.833 24.166 -23.5 38.499s-10 30.833 -10 49.5c0 50.667 19 91.334 57 122.001s92.667 46 164 46z" />
    <glyph glyph-name="Agrave" unicode="&#xc0;" horiz-adv-x="1106" 
d="M27 -17c-5.33301 14 -9.66797 31.667 -13.001 53s-5.16602 43.5 -5.49902 66.5s0.333984 45.167 2.00098 66.5s4.83398 39 9.50098 53c21.333 4.66699 37.833 14.5 49.5 29.5s20.167 33.333 25.5 55s9.66602 44.167 12.999 67.5c4 24.667 6.66699 48.5 8 71.5
s-1.16699 42.5 -7.5 58.5s-19.833 25.667 -40.5 29c-6 12 -10.333 28.333 -13 49s-3.83398 42.834 -3.50098 66.501s2.16602 46.667 5.49902 69s8.33301 41.5 15 57.5c20 -2 43 -3.83301 69 -5.5s57.667 -3.16699 95 -4.5c21.333 -58.667 48.333 -104.834 81 -138.501
s69.334 -56.834 110.001 -69.501c-24 19.333 -47.333 42.333 -70 69s-41.834 55.334 -57.501 86.001s-26.167 61 -31.5 91c11.333 14.667 29.833 27.5 55.5 38.5s55.167 19.667 88.5 26s67.333 9.5 102 9.5c24.667 0 48.667 -1.83301 72 -5.5s44.666 -9.5 63.999 -17.5
c6.66699 -8.66699 13.334 -19.167 20.001 -31.5s12.334 -25.833 17.001 -40.5c41.333 2 81.666 3 120.999 3c45.333 0 81.166 -9.5 107.499 -28.5s46.166 -43.833 59.499 -74.5s22 -63.667 26 -99s5.83301 -69.833 5.5 -103.5s-0.5 -62.834 -0.5 -87.501
c0 -39.333 3.66699 -70.5 11 -93.5s17.166 -40.167 29.499 -51.5s25.5 -19.666 39.5 -24.999c4.66699 -14 7.83398 -31.667 9.50098 -53s2.33398 -43.5 2.00098 -66.5s-2.16602 -45.167 -5.49902 -66.5s-7.66602 -39 -12.999 -53l-98.5 10c-38.333 4 -84.5 6 -138.5 6
c-55.333 0 -107.5 -2 -156.5 -6s-87.167 -7.33301 -114.5 -10c-2.66699 14 -5 31.667 -7 53s-3.33301 43.5 -4 66.5s-0.666992 45.167 0 66.5s2 39 4 53h28v50h-87v-50h28c2.66699 -14 4.5 -31.667 5.5 -53s1.16699 -43.5 0.5 -66.5s-2 -45.167 -4 -66.5s-5 -39 -9 -53
l-57.5 6.5c-20.333 2.33301 -44 4.5 -71 6.5s-60.167 3 -99.5 3c-62 0 -115.333 -1.83301 -160 -5.5s-81.667 -7.16699 -111 -10.5zM511.998 419h72v47h-72v-47z" />
    <glyph glyph-name="Aacute" unicode="&#xc1;" horiz-adv-x="1106" 
d="M27 -17c-5.33301 14 -9.66602 31.667 -12.999 53s-5.16602 43.5 -5.49902 66.5s0.333984 45.167 2.00098 66.5s4.83398 39 9.50098 53c21.333 4.66699 37.833 14.5 49.5 29.5s20.167 33.333 25.5 55s9.66602 44.167 12.999 67.5c4 24.667 6.66699 48.5 8 71.5
s-1.16699 42.5 -7.5 58.5s-19.833 25.667 -40.5 29c-6 12 -10.333 28.333 -13 49s-3.83398 42.834 -3.50098 66.501s2.16602 46.667 5.49902 69s8.33301 41.5 15 57.5c17.333 -1.33301 35.666 -2.83301 54.999 -4.5s43.333 -3 72 -4s65.667 -1.83301 111 -2.5
c-6 -17.333 -10.167 -37 -12.5 -59s-1.5 -44 2.5 -66s12.333 -41.833 25 -59.5s31 -31.167 55 -40.5c-20.667 22.667 -34.5 51.667 -41.5 87s-6 73.166 3 113.499s26.5 78.5 52.5 114.5c19.333 8 40.666 13.833 63.999 17.5s47.333 5.5 72 5.5
c34.667 0 68.667 -3.16699 102 -9.5s62.833 -15 88.5 -26s44.167 -23.833 55.5 -38.5c0 -2.66699 -0.333008 -5.5 -1 -8.5s-1.66699 -6.16699 -3 -9.5h36c45.333 0 81.166 -9.5 107.499 -28.5s46.166 -43.833 59.499 -74.5s22 -63.667 26 -99s5.83301 -69.833 5.5 -103.5
s-0.5 -62.834 -0.5 -87.501c0 -39.333 3.66699 -70.5 11 -93.5s17.166 -40.167 29.499 -51.5s25.5 -19.666 39.5 -24.999c4.66699 -14 7.83398 -31.667 9.50098 -53s2.33398 -43.5 2.00098 -66.5s-2.16602 -45.167 -5.49902 -66.5s-7.66602 -39 -12.999 -53l-98.5 10
c-38.333 4 -84.5 6 -138.5 6c-55.333 0 -107.5 -2 -156.5 -6s-87.167 -7.33301 -114.5 -10c-2.66699 14 -5 31.667 -7 53s-3.33301 43.5 -4 66.5s-0.666992 45.167 0 66.5s2 39 4 53h28v50h-87v-50h28c2.66699 -14 4.5 -31.667 5.5 -53s1.16699 -43.5 0.5 -66.5
s-2 -45.167 -4 -66.5s-5 -39 -9 -53l-57.5 6.5c-20.333 2.33301 -44 4.5 -71 6.5s-60.167 3 -99.5 3c-62 0 -115.333 -1.83301 -160 -5.5s-81.667 -7.16699 -111 -10.5zM512 419h72v47h-72v-47z" />
    <glyph glyph-name="Acircumflex" unicode="&#xc2;" horiz-adv-x="1106" 
d="M27 -17c-5.33301 14 -9.66797 31.6689 -13.001 53.002s-5.16602 43.5 -5.49902 66.5s0.333984 45.167 2.00098 66.5s4.83398 39 9.50098 53c21.333 4.66699 37.833 14.5 49.5 29.5s20.167 33.333 25.5 55s9.66602 44.167 12.999 67.5c4 24.667 6.66699 48.5 8 71.5
s-1.16699 42.5 -7.5 58.5s-19.833 25.667 -40.5 29c-6 12 -10.333 28.333 -13 49s-3.83398 42.834 -3.50098 66.501s2.16602 46.667 5.49902 69s8.33301 41.5 15 57.5c12 -0.666992 28.333 -1.83398 49 -3.50098s43 -3.33398 67 -5.00098s47 -3.16699 69 -4.5
c-9.33301 -18.667 -16.333 -41.334 -21 -68.001s-6 -52.334 -4 -77.001s7.33301 -44 16 -58c-2.66699 42.667 2.83301 84.334 16.5 125.001s32 77 55 109s47.167 56.667 72.5 74c19.333 3.33301 42.833 5.5 70.5 6.5s55.5 1.5 83.5 1.5c30.667 0 59.5 -0.666992 86.5 -2
s47.5 -3.33301 61.5 -6c26.667 -18.667 53 -46 79 -82h35c45.333 0 81.166 -9.5 107.499 -28.5s46.166 -43.833 59.499 -74.5s22 -63.667 26 -99s5.83301 -69.833 5.5 -103.5s-0.5 -62.834 -0.5 -87.501c0 -39.333 3.66699 -70.5 11 -93.5s17.166 -40.167 29.499 -51.5
s25.5 -19.666 39.5 -24.999c4.66699 -14 7.83398 -31.667 9.50098 -53s2.33398 -43.5 2.00098 -66.5s-2.16602 -45.167 -5.49902 -66.5s-7.66602 -39 -12.999 -53l-98.5 10c-38.333 4 -84.5 6 -138.5 6c-55.333 0 -107.5 -2 -156.5 -6s-87.167 -7.33301 -114.5 -10
c-2.66699 14 -5 31.667 -7 53s-3.33301 43.5 -4 66.5s-0.666992 45.167 0 66.5s2 39 4 53h28v50h-87v-50h28c2.66699 -14 4.5 -31.667 5.5 -53s1.16699 -43.5 0.5 -66.5s-2 -45.167 -4 -66.5s-5 -39 -9 -53l-57.5 6.5c-20.333 2.33301 -44 4.5 -71 6.5s-60.167 3 -99.5 3
c-62 0 -115.333 -1.83301 -160 -5.5s-81.667 -7.16699 -111 -10.5zM522.998 419.002h34v121h-34v-121z" />
    <glyph glyph-name="Atilde" unicode="&#xc3;" horiz-adv-x="1106" 
d="M27 -17c-5.33301 14 -9.66895 31.6641 -13.002 52.9971s-5.16602 43.5 -5.49902 66.5s0.333984 45.167 2.00098 66.5s4.83398 39 9.50098 53c21.333 4.66699 37.833 14.5 49.5 29.5s20.167 33.333 25.5 55s9.66602 44.167 12.999 67.5c4 24.667 6.66699 48.5 8 71.5
s-1.16699 42.5 -7.5 58.5s-19.833 25.667 -40.5 29c-6 12 -10.333 28.333 -13 49s-3.83398 42.834 -3.50098 66.501s2.16602 46.667 5.49902 69s8.33301 41.5 15 57.5c17.333 -1.33301 36.333 -2.66602 57 -3.99902s45.334 -2.66602 74.001 -3.99902
c-9.33301 -38.667 -12.5 -76 -9.5 -112s9.83301 -62.333 20.5 -79c2 99.333 17 170 45 212s69.333 63 124 63c24 0 46.167 -2.5 66.5 -7.5l58.5 -15c18.667 -5 36.334 -7.5 53.001 -7.5c18 0 33 3 45 9s21.333 14.333 28 25c14 0 32 -1.16699 54 -3.5s43.667 -5.5 65 -9.5
s37.666 -9 48.999 -15v-21.5c0 -7 -0.333008 -13.833 -1 -20.5h7c45.333 0 81.166 -9.5 107.499 -28.5s46.166 -43.833 59.499 -74.5s22 -63.667 26 -99s5.83301 -69.833 5.5 -103.5s-0.5 -62.834 -0.5 -87.501c0 -39.333 3.66699 -70.5 11 -93.5
s17.166 -40.167 29.499 -51.5s25.5 -19.666 39.5 -24.999c4.66699 -14 7.83398 -31.667 9.50098 -53s2.33398 -43.5 2.00098 -66.5s-2.16602 -45.167 -5.49902 -66.5s-7.66602 -39 -12.999 -53l-98.5 10c-38.333 4 -84.5 6 -138.5 6c-55.333 0 -107.5 -2 -156.5 -6
s-87.167 -7.33301 -114.5 -10c-2.66699 14 -5 31.667 -7 53s-3.33301 43.5 -4 66.5s-0.666992 45.167 0 66.5s2 39 4 53h28v50h-87v-50h28c2.66699 -14 4.5 -31.667 5.5 -53s1.16699 -43.5 0.5 -66.5s-2 -45.167 -4 -66.5s-5 -39 -9 -53l-57.5 6.5
c-20.333 2.33301 -44 4.5 -71 6.5s-60.167 3 -99.5 3c-62 0 -115.333 -1.83301 -160 -5.5s-81.667 -7.16699 -111 -10.5zM511.997 418.997h72v47h-72v-47z" />
    <glyph glyph-name="Adieresis" unicode="&#xc4;" horiz-adv-x="1106" 
d="M27 -17c-5.33301 14 -9.66797 31.6611 -13.001 52.9941s-5.16602 43.5 -5.49902 66.5s0.333984 45.167 2.00098 66.5s4.83398 39 9.50098 53c21.333 4.66699 37.833 14.5 49.5 29.5s20.167 33.333 25.5 55s9.66602 44.167 12.999 67.5c4 24.667 6.66699 48.5 8 71.5
s-1.16699 42.5 -7.5 58.5s-19.833 25.667 -40.5 29c-6 12 -10.333 28.333 -13 49s-3.83398 42.834 -3.50098 66.501s2.16602 46.667 5.49902 69s8.33301 41.5 15 57.5c13.333 -1.33301 29.666 -2.5 48.999 -3.5s39.333 -2.16699 60 -3.5
c-9.33301 -42.667 -9 -80.167 1 -112.5s27.167 -58 51.5 -77s52.5 -30.167 84.5 -33.5c-31.333 14 -57.333 35.333 -78 64s-31 61.334 -31 98.001c0 26.667 6.83301 52.834 20.5 78.501s36.667 47.167 69 64.5s75.833 26 130.5 26c16.667 0 32.167 -1 46.5 -3
s27.5 -4.33301 39.5 -7c-22 -14.667 -36.5 -31.667 -43.5 -51s-8.5 -37.666 -4.5 -54.999c10.667 31.333 32.667 58.5 66 81.5s82 34.5 146 34.5c56.667 0 101.167 -9.66699 133.5 -29s54.833 -43.666 67.5 -72.999c29.333 -10.667 52.666 -27.167 69.999 -49.5
s30 -48 38 -77s13.167 -59 15.5 -90s3.33301 -61 3 -90s-0.5 -54.167 -0.5 -75.5c0 -39.333 3.66699 -70.5 11 -93.5s17.166 -40.167 29.499 -51.5s25.5 -19.666 39.5 -24.999c4.66699 -14 7.83398 -31.667 9.50098 -53s2.33398 -43.5 2.00098 -66.5
s-2.16602 -45.167 -5.49902 -66.5s-7.66602 -39 -12.999 -53l-98.5 10c-38.333 4 -84.5 6 -138.5 6c-55.333 0 -107.5 -2 -156.5 -6s-87.167 -7.33301 -114.5 -10c-2.66699 14 -5 31.667 -7 53s-3.33301 43.5 -4 66.5s-0.666992 45.167 0 66.5s2 39 4 53h28v50h-87v-50h28
c2.66699 -14 4.5 -31.667 5.5 -53s1.16699 -43.5 0.5 -66.5s-2 -45.167 -4 -66.5s-5 -39 -9 -53l-57.5 6.5c-20.333 2.33301 -44 4.5 -71 6.5s-60.167 3 -99.5 3c-62 0 -115.333 -1.83301 -160 -5.5s-81.667 -7.16699 -111 -10.5zM511.998 418.994h72v47h-72v-47z" />
    <glyph glyph-name="Aring" unicode="&#xc5;" horiz-adv-x="1106" 
d="M27 -17c-5.33301 14 -9.66797 31.666 -13.001 52.999s-5.16602 43.5 -5.49902 66.5s0.333984 45.167 2.00098 66.5s4.83398 39 9.50098 53c21.333 4.66699 37.833 14.5 49.5 29.5s20.167 33.333 25.5 55s9.66602 44.167 12.999 67.5c4 24.667 6.66699 48.5 8 71.5
s-1.16699 42.5 -7.5 58.5s-19.833 25.667 -40.5 29c-6 12 -10.333 28.333 -13 49s-3.83398 42.834 -3.50098 66.501s2.16602 46.667 5.49902 69s8.33301 41.5 15 57.5c24 -2.66699 52.667 -4.83398 86 -6.50098s76.333 -3.16699 129 -4.5
c-11.333 -54.667 -6.33301 -99.167 15 -133.5s51.333 -56.166 90 -65.499c-22 16 -39.833 36.167 -53.5 60.5s-20.5 51.5 -20.5 81.5c0 27.333 6.5 53.833 19.5 79.5s34.833 47 65.5 64s72 25.5 124 25.5c53.333 0 96.833 -7.66699 130.5 -23s59.167 -38.333 76.5 -69
c12.667 0 25.167 0.166992 37.5 0.5s24.5 0.5 36.5 0.5c45.333 0 81.166 -9.5 107.499 -28.5s46.166 -43.833 59.499 -74.5s22 -63.667 26 -99s5.83301 -69.833 5.5 -103.5s-0.5 -62.834 -0.5 -87.501c0 -39.333 3.66699 -70.5 11 -93.5s17.166 -40.167 29.499 -51.5
s25.5 -19.666 39.5 -24.999c4.66699 -14 7.83398 -31.667 9.50098 -53s2.33398 -43.5 2.00098 -66.5s-2.16602 -45.167 -5.49902 -66.5s-7.66602 -39 -12.999 -53l-98.5 10c-38.333 4 -84.5 6 -138.5 6c-55.333 0 -107.5 -2 -156.5 -6s-87.167 -7.33301 -114.5 -10
c-2.66699 14 -5 31.667 -7 53s-3.33301 43.5 -4 66.5s-0.666992 45.167 0 66.5s2 39 4 53h28v50h-87v-50h28c2.66699 -14 4.5 -31.667 5.5 -53s1.16699 -43.5 0.5 -66.5s-2 -45.167 -4 -66.5s-5 -39 -9 -53l-57.5 6.5c-20.333 2.33301 -44 4.5 -71 6.5s-60.167 3 -99.5 3
c-62 0 -115.333 -1.83301 -160 -5.5s-81.667 -7.16699 -111 -10.5zM524.998 667.999h32v76h-32v-76zM511.998 418.999h72v47h-72v-47z" />
    <glyph glyph-name="AE" unicode="&#xc6;" horiz-adv-x="1479" 
d="M571 -18c-2.66699 14 -4.99902 31.6699 -6.99902 53.0029s-3.33301 43.666 -4 66.999s-0.666992 45.666 0 66.999s2 39 4 53h28v50h-87v-50h28c2.66699 -14 4.5 -31.667 5.5 -53s1.16699 -43.5 0.5 -66.5s-2 -45.167 -4 -66.5s-5 -39 -9 -53l-57.5 6.5
c-20.333 2.33301 -44 4.5 -71 6.5s-60.167 3 -99.5 3c-62 0 -115.333 -1.83301 -160 -5.5s-81.667 -7.16699 -111 -10.5c-5.33301 14 -9.66602 31.667 -12.999 53s-5.16602 43.5 -5.49902 66.5s0.333984 45.167 2.00098 66.5s4.83398 39 9.50098 53
c21.333 4.66699 37.833 14.5 49.5 29.5s20.167 33.333 25.5 55s9.66602 44.167 12.999 67.5c4 24.667 6.66699 48.5 8 71.5s-1.16699 42.5 -7.5 58.5s-19.833 25.667 -40.5 29c-6 12 -10.333 28.333 -13 49s-3.83398 42.834 -3.50098 66.501s2.16602 46.667 5.49902 69
s8.33301 41.5 15 57.5c80 -6 165.5 -9.5 256.5 -10.5s190.167 -1.5 297.5 -1.5c83.333 0 165.166 0.666992 245.499 2s156.833 2.83301 229.5 4.5l199 4.5c60 1.33301 111 2 153 2c3.33301 -12.667 6.33301 -31 9 -55s4.66699 -50.667 6 -80s2 -59 2 -89s-1 -57.5 -3 -82.5
s-5 -44.5 -9 -58.5c-31.333 -4 -66 -6.66699 -104 -8s-76.5 -1.33301 -115.5 0s-75.833 4 -110.5 8c-8 31.333 -8 62.333 0 93h-116v-42h93v-139h-94v-43h117c-8 31.333 -8 62.666 0 93.999c56 3.33301 113.333 5 172 5s113.334 -1.66699 164.001 -5
c2 -12 3.66699 -31.167 5 -57.5s2 -56 2 -89s-0.5 -66.167 -1.5 -99.5s-2.5 -63 -4.5 -89s-4.66699 -44.667 -8 -56c-70 1.33301 -146 4.16602 -228 8.49902s-162.333 6.5 -241 6.5c-34.667 0 -73 -0.5 -115 -1.5s-83.333 -2.33301 -124 -4s-76.834 -3.5 -108.501 -5.5
s-54.834 -3.66699 -69.501 -5zM512.001 419.003h72v47h-72v-47z" />
    <glyph glyph-name="Ccedilla" unicode="&#xc7;" horiz-adv-x="1009" 
d="M455 -172c-93.333 0 -165.002 7.33496 -215.002 22.002c9.33301 13.333 20.166 29.833 32.499 49.5s23.166 42 32.499 67s13.833 52 13.5 81s-8.83301 59.5 -25.5 91.5c7.33301 -56 0.333008 -102 -21 -138c-92 31.333 -158.667 80.666 -200 147.999s-62 147 -62 239
c0 86 16.667 159.333 50 220s79.5 107 138.5 139s126.833 48 203.5 48c52.667 0 97.667 -5.33301 135 -16s66.166 -29 86.499 -55s30.833 -62 31.5 -108c9.33301 25.333 12.833 51.166 10.5 77.499s-4.83301 52.833 -7.5 79.5c32 0.666992 68.333 1.5 109 2.5
s80.334 2.16699 119.001 3.5s71.334 2 98.001 2c4.66699 -20.667 8.33398 -46.5 11.001 -77.5s4.16699 -64.167 4.5 -99.5s-0.5 -70 -2.5 -104s-5.33301 -64.333 -10 -91c-20.667 -3.33301 -46.667 -6 -78 -8s-65.166 -3.16699 -101.499 -3.5s-72.333 -0.333008 -108 0
s-68.5 1.5 -98.5 3.5s-54.667 4.66699 -74 8l-1 41h-53v-129h53v47c77.333 4 153.5 6 228.5 6s154.833 -2 239.5 -6c-4 -105.333 -27.5 -189.5 -70.5 -252.5s-111.167 -106.167 -204.5 -129.5c-6 -60.667 -31.167 -102.167 -75.5 -124.5s-107.166 -33.5 -188.499 -33.5z" />
    <glyph glyph-name="Egrave" unicode="&#xc8;" horiz-adv-x="980" 
d="M32 -17c-5.33301 14 -9.66699 31.667 -13 53s-5.16602 43.5 -5.49902 66.5s0.333984 45.167 2.00098 66.5s4.83398 39 9.50098 53c10.667 4 21 10.833 31 20.5s18.333 25.334 25 47.001s10 52.167 10 91.5c0 42.667 -3.83301 74.834 -11.5 96.501
s-16.667 36.334 -27 44.001s-19.5 11.5 -27.5 11.5c-6 12 -10.333 28.333 -13 49s-3.83398 42.834 -3.50098 66.501s2.16602 46.667 5.49902 69s8.33301 41.5 15 57.5c12.667 -0.666992 33.667 -1.66699 63 -3s63 -2.66602 101 -3.99902
c19.333 -56.667 44.666 -100.834 75.999 -132.501s65.666 -53.834 102.999 -66.501c-22 20 -43.167 42.833 -63.5 68.5s-37.666 52.667 -51.999 81s-23.833 56.5 -28.5 84.5c11.333 14.667 29.833 27.5 55.5 38.5s55.167 19.667 88.5 26s67.333 9.5 102 9.5
c24.667 0 48.667 -1.83301 72 -5.5s44.666 -9.5 63.999 -17.5c7.33301 -10.667 14.833 -23.5 22.5 -38.5s14.167 -31.167 19.5 -48.5l150.5 4c51 1.33301 101.5 3 151.5 5c3.33301 -12.667 6.33301 -31 9 -55s4.66699 -50.667 6 -80s2 -59 2 -89s-1 -57.5 -3 -82.5
s-5 -44.5 -9 -58.5c-31.333 -4 -66 -6.66699 -104 -8s-76.5 -1.33301 -115.5 0s-75.833 4 -110.5 8c-8 31.333 -8 62.333 0 93h-116v-42h93v-139h-94v-43h117c-8 31.333 -8 62.666 0 93.999c56 3.33301 113.333 5 172 5s113.334 -1.66699 164.001 -5
c2 -12 3.66699 -31.167 5 -57.5s2 -56 2 -89s-0.5 -66.167 -1.5 -99.5s-2.5 -63 -4.5 -89s-4.66699 -44.667 -8 -56c-70 1.33301 -146 4.16602 -228 8.49902s-162.333 6.5 -241 6.5c-42.667 0 -87.5 -0.5 -134.5 -1.5s-92.333 -2.33301 -136 -4s-82 -3.33398 -115 -5.00098
s-56.833 -3.16699 -71.5 -4.5z" />
    <glyph glyph-name="Eacute" unicode="&#xc9;" horiz-adv-x="980" 
d="M32 -17c-5.33301 14 -9.66699 31.6709 -13 53.0039s-5.16602 43.5 -5.49902 66.5s0.333984 45.167 2.00098 66.5s4.83398 39 9.50098 53c10.667 4 21 10.833 31 20.5s18.333 25.334 25 47.001s10 52.167 10 91.5c0 42.667 -3.83301 74.834 -11.5 96.501
s-16.667 36.334 -27 44.001s-19.5 11.5 -27.5 11.5c-6 12 -10.333 28.333 -13 49s-3.83398 42.834 -3.50098 66.501s2.16602 46.667 5.49902 69s8.33301 41.5 15 57.5c11.333 -0.666992 30.666 -1.5 57.999 -2.5s59 -2 95 -3s72 -1.83301 108 -2.5
c-6 -18.667 -10.167 -39.334 -12.5 -62.001s-1.5 -44.834 2.5 -66.501s12.167 -41.334 24.5 -59.001s30.5 -30.834 54.5 -39.501c-20.667 22.667 -34.334 51.667 -41.001 87s-5.5 73 3.5 113s26.167 78 51.5 114c19.333 8 40.666 13.833 63.999 17.5s47.333 5.5 72 5.5
c34.667 0 68.667 -3.16699 102 -9.5s62.833 -15 88.5 -26s44.167 -23.833 55.5 -38.5c-0.666992 -4.66699 -1.83398 -9.83398 -3.50098 -15.501l-5.5 -18.5c34.667 1.33301 68.834 2.5 102.501 3.5s68.834 2.16699 105.501 3.5c3.33301 -12.667 6.33301 -31 9 -55
s4.66699 -50.667 6 -80s2 -59 2 -89s-1 -57.5 -3 -82.5s-5 -44.5 -9 -58.5c-31.333 -4 -66 -6.66699 -104 -8s-76.5 -1.33301 -115.5 0s-75.833 4 -110.5 8c-8 31.333 -8 62.333 0 93h-116v-42h93v-139h-94v-43h117c-8 31.333 -8 62.666 0 93.999
c56 3.33301 113.333 5 172 5s113.334 -1.66699 164.001 -5c2 -12 3.66699 -31.167 5 -57.5s2 -56 2 -89s-0.5 -66.167 -1.5 -99.5s-2.5 -63 -4.5 -89s-4.66699 -44.667 -8 -56c-70 1.33301 -146 4.16602 -228 8.49902s-162.333 6.5 -241 6.5
c-42.667 0 -87.5 -0.5 -134.5 -1.5s-92.333 -2.33301 -136 -4s-82 -3.33398 -115 -5.00098s-56.833 -3.16699 -71.5 -4.5z" />
    <glyph glyph-name="Ecircumflex" unicode="&#xca;" horiz-adv-x="980" 
d="M32 -17c-5.33301 14 -9.66699 31.667 -13 53s-5.16602 43.5 -5.49902 66.5s0.333984 45.167 2.00098 66.5s4.83398 39 9.50098 53c10.667 4 21 10.833 31 20.5s18.333 25.334 25 47.001s10 52.167 10 91.5c0 42.667 -3.83301 74.834 -11.5 96.501
s-16.667 36.334 -27 44.001s-19.5 11.5 -27.5 11.5c-6 12 -10.333 28.333 -13 49s-3.83398 42.834 -3.50098 66.501s2.16602 46.667 5.49902 69s8.33301 41.5 15 57.5c9.33301 -0.666992 24.666 -1.5 45.999 -2.5s45.833 -1.83301 73.5 -2.5l82.5 -2
c-10.667 -18 -18.334 -40.833 -23.001 -68.5s-6.16699 -54.5 -4.5 -80.5s7.16699 -46 16.5 -60c-2.66699 42.667 2.83301 84.334 16.5 125.001s32 77 55 109s47.167 56.667 72.5 74c19.333 3.33301 42.833 5.5 70.5 6.5s55.5 1.5 83.5 1.5c30.667 0 59.5 -0.666992 86.5 -2
s47.5 -3.33301 61.5 -6c15.333 -10.667 30.833 -24.334 46.5 -41.001s29.834 -35.667 42.501 -57c36.667 0.666992 72.167 1.66699 106.5 3s65.166 2.66602 92.499 3.99902c3.33301 -12.667 6.33301 -31 9 -55s4.66699 -50.667 6 -80s2 -59 2 -89s-1 -57.5 -3 -82.5
s-5 -44.5 -9 -58.5c-31.333 -4 -66 -6.66699 -104 -8s-76.5 -1.33301 -115.5 0s-75.833 4 -110.5 8c-8 31.333 -8 62.333 0 93h-116v-42h93v-139h-94v-43h117c-8 31.333 -8 62.666 0 93.999c56 3.33301 113.333 5 172 5s113.334 -1.66699 164.001 -5
c2 -12 3.66699 -31.167 5 -57.5s2 -56 2 -89s-0.5 -66.167 -1.5 -99.5s-2.5 -63 -4.5 -89s-4.66699 -44.667 -8 -56c-70 1.33301 -146 4.16602 -228 8.49902s-162.333 6.5 -241 6.5c-42.667 0 -87.5 -0.5 -134.5 -1.5s-92.333 -2.33301 -136 -4s-82 -3.33398 -115 -5.00098
s-56.833 -3.16699 -71.5 -4.5z" />
    <glyph glyph-name="Edieresis" unicode="&#xcb;" horiz-adv-x="980" 
d="M32 -17c-5.33301 14 -9.66992 31.6621 -13.0029 52.9951s-5.16602 43.5 -5.49902 66.5s0.333984 45.167 2.00098 66.5s4.83398 39 9.50098 53c10.667 4 21 10.833 31 20.5s18.333 25.334 25 47.001s10 52.167 10 91.5c0 42.667 -3.83301 74.834 -11.5 96.501
s-16.667 36.334 -27 44.001s-19.5 11.5 -27.5 11.5c-6 12 -10.333 28.333 -13 49s-3.83398 42.834 -3.50098 66.501s2.16602 46.667 5.49902 69s8.33301 41.5 15 57.5c9.33301 -0.666992 25 -1.5 47 -2.5s49.333 -1.83301 82 -2.5c-10 -43.333 -10 -81.166 0 -113.499
s27.333 -58 52 -77s53.334 -30.167 86.001 -33.5c-31.333 13.333 -57.333 34.333 -78 63s-31 61.334 -31 98.001c0 26.667 6.83301 52.834 20.5 78.501s36.667 47.167 69 64.5s75.833 26 130.5 26c16.667 0 32.167 -1 46.5 -3s27.5 -4.33301 39.5 -7
c-22 -14.667 -36.5 -31.667 -43.5 -51s-8.5 -37.666 -4.5 -54.999c10.667 31.333 32.667 58.5 66 81.5s82 34.5 146 34.5c57.333 0 102 -10 134 -30s54.333 -44.667 67 -74l48.5 2l47.5 2c3.33301 -12.667 6.33301 -31 9 -55s4.66699 -50.667 6 -80s2 -59 2 -89
s-1 -57.5 -3 -82.5s-5 -44.5 -9 -58.5c-31.333 -4 -66 -6.66699 -104 -8s-76.5 -1.33301 -115.5 0s-75.833 4 -110.5 8c-8 31.333 -8 62.333 0 93h-116v-42h93v-139h-94v-43h117c-8 31.333 -8 62.666 0 93.999c56 3.33301 113.333 5 172 5s113.334 -1.66699 164.001 -5
c2 -12 3.66699 -31.167 5 -57.5s2 -56 2 -89s-0.5 -66.167 -1.5 -99.5s-2.5 -63 -4.5 -89s-4.66699 -44.667 -8 -56c-70 1.33301 -146 4.16602 -228 8.49902s-162.333 6.5 -241 6.5c-42.667 0 -87.5 -0.5 -134.5 -1.5s-92.333 -2.33301 -136 -4s-82 -3.33398 -115 -5.00098
s-56.833 -3.16699 -71.5 -4.5z" />
    <glyph glyph-name="Igrave" unicode="&#xcc;" horiz-adv-x="612" 
d="M33 -17c-6 14 -10.667 31.6641 -14 52.9971s-5.33301 43.5 -6 66.5s0.166016 45.167 2.49902 66.5s5.83301 39 10.5 53c10 4 20.167 10.833 30.5 20.5s18.833 25.334 25.5 47.001s10 52.167 10 91.5c0 42.667 -4 74.834 -12 96.501s-17.167 36.334 -27.5 44.001
s-19.166 11.5 -26.499 11.5c-6 12 -10.5 28 -13.5 48s-4.5 41.833 -4.5 65.5s1.66699 46.167 5 67.5c18 -40.667 43.333 -76.5 76 -107.5s70.334 -52.167 113.001 -63.5c-26.667 18.667 -52.5 42.167 -77.5 70.5s-46.5 58.833 -64.5 91.5s-30 65.334 -36 98.001
c11.333 14.667 29.833 27.5 55.5 38.5s55.167 19.667 88.5 26s67.333 9.5 102 9.5c24.667 0 48.667 -1.83301 72 -5.5s44.666 -9.5 63.999 -17.5c8 -10.667 15.833 -23.667 23.5 -39s14.167 -32 19.5 -50c27.333 1.33301 52.666 3 75.999 5l59 5
c6.66699 -16 11.667 -35.167 15 -57.5s5 -45.5 5 -69.5s-1.33301 -46.333 -4 -67s-7 -37 -13 -49c-10 0 -20 -3.83301 -30 -11.5s-18.333 -22.167 -25 -43.5s-10 -53.333 -10 -96c0 -39.333 3.5 -69.833 10.5 -91.5s15.5 -37.334 25.5 -47.001s20 -16.5 30 -20.5
c5.33301 -14 9 -31.667 11 -53s2.66699 -43.5 2 -66.5s-2.66699 -45.167 -6 -66.5s-8 -39 -14 -53c-20 2 -45.667 4.16699 -77 6.5s-64.666 4.5 -99.999 6.5s-69.666 3 -102.999 3c-30.667 0 -62.834 -1 -96.501 -3s-65.667 -4.16699 -96 -6.5s-55.5 -4.5 -75.5 -6.5z" />
    <glyph glyph-name="Iacute" unicode="&#xcd;" horiz-adv-x="612" 
d="M33 -17c-6 14 -10.666 31.6641 -13.999 52.9971s-5.33301 43.5 -6 66.5s0.166016 45.167 2.49902 66.5s5.83301 39 10.5 53c10 4 20.167 10.833 30.5 20.5s18.833 25.334 25.5 47.001s10 52.167 10 91.5c0 42.667 -4 74.834 -12 96.501s-17.167 36.334 -27.5 44.001
s-19.166 11.5 -26.499 11.5c-6 12 -10.667 28.333 -14 49s-4.83301 42.834 -4.5 66.501s2.33301 46.667 6 69s9.16699 41.5 16.5 57.5l25 -2c8 -0.666992 17 -1.66699 27 -3c-6 -25.333 -9.33301 -52.833 -10 -82.5s4.33301 -57.334 15 -83.001s29.667 -45.167 57 -58.5
c-19.333 23.333 -31.833 52.333 -37.5 87s-3.83398 71.334 5.49902 110.001s26.333 75.667 51 111c19.333 8 40.666 13.833 63.999 17.5s47.333 5.5 72 5.5c34.667 0 68.667 -3.16699 102 -9.5s62.833 -15 88.5 -26s44.167 -23.833 55.5 -38.5
c-0.666992 -4.66699 -1.66699 -9.5 -3 -14.5s-3 -10.5 -5 -16.5l47 3c6.66699 -16 11.667 -35.167 15 -57.5s5 -45.5 5 -69.5s-1.33301 -46.333 -4 -67s-7 -37 -13 -49c-10 0 -20 -3.83301 -30 -11.5s-18.333 -22.167 -25 -43.5s-10 -53.333 -10 -96
c0 -39.333 3.5 -69.833 10.5 -91.5s15.5 -37.334 25.5 -47.001s20 -16.5 30 -20.5c5.33301 -14 9 -31.667 11 -53s2.66699 -43.5 2 -66.5s-2.66699 -45.167 -6 -66.5s-8 -39 -14 -53c-20 2 -45.667 4.16699 -77 6.5s-64.666 4.5 -99.999 6.5s-69.666 3 -102.999 3
c-30.667 0 -62.834 -1 -96.501 -3s-65.667 -4.16699 -96 -6.5s-55.5 -4.5 -75.5 -6.5z" />
    <glyph glyph-name="Icircumflex" unicode="&#xce;" horiz-adv-x="612" 
d="M33 -17c-6 14 -10.666 31.666 -13.999 52.999s-5.33301 43.5 -6 66.5s0.166016 45.167 2.49902 66.5s5.83301 39 10.5 53c10 4 20.167 10.833 30.5 20.5s18.833 25.334 25.5 47.001s10 52.167 10 91.5c0 32.667 -2.5 58.834 -7.5 78.501s-11.167 34.834 -18.5 45.501
c19.333 -2 39.166 -2.33301 59.499 -1s37.833 6.33301 52.5 15c-14 0.666992 -32 2.16699 -54 4.5s-43.667 5.66602 -65 9.99902s-38 9.5 -50 15.5c-2.66699 46 2 90 14 132s29.167 79.167 51.5 111.5s46.5 57.166 72.5 74.499c20.667 3.33301 45.334 5.5 74.001 6.5
s57.667 1.5 87 1.5c32 0 62 -0.666992 90 -2s49.333 -3.33301 64 -6c20.667 -15.333 41.667 -37.5 63 -66.5s39.166 -60.833 53.499 -95.5s21.5 -69 21.5 -103c0 -29.333 -4.33301 -52.666 -13 -69.999c-10 0 -20 -3.83301 -30 -11.5s-18.333 -22.167 -25 -43.5
s-10 -53.333 -10 -96c0 -39.333 3.5 -69.833 10.5 -91.5s15.5 -37.334 25.5 -47.001s20 -16.5 30 -20.5c5.33301 -14 9 -31.667 11 -53s2.66699 -43.5 2 -66.5s-2.66699 -45.167 -6 -66.5s-8 -39 -14 -53c-20 2 -45.667 4.16699 -77 6.5s-64.666 4.5 -99.999 6.5
s-69.666 3 -102.999 3c-30.667 0 -62.834 -1 -96.501 -3s-65.667 -4.16699 -96 -6.5s-55.5 -4.5 -75.5 -6.5z" />
    <glyph glyph-name="Idieresis" unicode="&#xcf;" horiz-adv-x="612" 
d="M33 -17c-6 14 -10.6689 31.668 -14.002 53.001s-5.33301 43.5 -6 66.5s0.166016 45.167 2.49902 66.5s5.83301 39 10.5 53c10 4 20.167 10.833 30.5 20.5s18.833 25.334 25.5 47.001s10 52.167 10 91.5c0 37.333 -4 68.333 -12 93s-16.667 45 -26 61
c23.333 -6.66699 49.833 -10 79.5 -10s55.834 4 78.501 12c-36.667 -4 -70.5 0.666992 -101.5 14s-55.833 33.333 -74.5 60s-28 57.334 -28 92.001c0 36 8.66699 67 26 93s40.5 45.833 69.5 59.5s61.5 20.5 97.5 20.5c26.667 0 51.334 -3 74.001 -9
c-22 -14.667 -36.667 -31.834 -44 -51.501s-9.33301 -38.167 -6 -55.5c10 31.333 29.667 58.5 59 81.5s70.333 34.5 123 34.5c46 0 83.5 -10 112.5 -30s50.333 -46 64 -78s20.5 -66 20.5 -102c0 -64.667 -5.66699 -109.334 -17 -134.001c-10 0 -20 -3.83301 -30 -11.5
s-18.333 -22.167 -25 -43.5s-10 -53.333 -10 -96c0 -39.333 3.5 -69.833 10.5 -91.5s15.5 -37.334 25.5 -47.001s20 -16.5 30 -20.5c5.33301 -14 9 -31.667 11 -53s2.66699 -43.5 2 -66.5s-2.66699 -45.167 -6 -66.5s-8 -39 -14 -53c-20 2 -45.667 4.16699 -77 6.5
s-64.666 4.5 -99.999 6.5s-69.666 3 -102.999 3c-30.667 0 -62.834 -1 -96.501 -3s-65.667 -4.16699 -96 -6.5s-55.5 -4.5 -75.5 -6.5z" />
    <glyph glyph-name="Eth" unicode="&#xd0;" horiz-adv-x="1013" 
d="M525 -24c-53.333 0 -100.001 0.831055 -140.001 2.49805s-77.667 3.33398 -113 5.00098s-72 2.66699 -110 3s-81.667 -0.5 -131 -2.5c-5.33301 14 -9.66602 31.5 -12.999 52.5s-5.16602 43.167 -5.49902 66.5s0.333984 45.5 2.00098 66.5s4.83398 38.5 9.50098 52.5
c13.333 3.33301 25 9.16602 35 17.499s18 20.833 24 37.5h-60c-4.66699 11.333 -8.33398 26.666 -11.001 45.999s-4 40.166 -4 62.499s1.33301 43.333 4 63s6.33398 34.834 11.001 45.501h161c-16.667 8.66699 -35.5 15.5 -56.5 20.5s-40.833 9.16699 -59.5 12.5l-44 8
c-6.66699 19.333 -11.334 43.833 -14.001 73.5s-2.5 60 0.5 91s8.83301 57.5 17.5 79.5c42.667 -4 83.167 -6 121.5 -6s77.833 0.833008 118.5 2.5s85 3.33398 133 5.00098s103 2.5 165 2.5c141.333 0 249.5 -29.333 324.5 -88s112.5 -152.667 112.5 -282
c0 -43.333 -3.83301 -86.166 -11.5 -128.499s-21.334 -82 -41.001 -119s-47.5 -69.667 -83.5 -98s-81.833 -50.666 -137.5 -66.999s-123.834 -24.5 -204.501 -24.5zM479.999 287.998h61v195h-61v-42h41v-112h-41v-41z" />
    <glyph glyph-name="Ntilde" unicode="&#xd1;" horiz-adv-x="1069" 
d="M32 -17c-5.33301 14 -9.6748 31.6641 -13.0078 52.9971s-5.16602 43.5 -5.49902 66.5s0.333984 45.167 2.00098 66.5s4.83398 39 9.50098 53c10.667 4 21 10.833 31 20.5s18.333 25.334 25 47.001s10 52.167 10 91.5c0 42.667 -3.83301 74.834 -11.5 96.501
s-16.667 36.334 -27 44.001s-19.5 11.5 -27.5 11.5c-6 12 -10.333 28.333 -13 49s-3.83398 42.834 -3.50098 66.501s2.16602 46.667 5.49902 69s8.33301 41.5 15 57.5l82.5 -7c32.333 -2.66699 63.833 -4.66699 94.5 -6c-8.66699 -38 -11.667 -74.5 -9 -109.5
s9.33398 -60.833 20.001 -77.5c2 99.333 17 170.166 45 212.499s69.333 63.5 124 63.5c24 0 46.167 -2.5 66.5 -7.5l58.5 -15c18.667 -5 36.334 -7.5 53.001 -7.5c18 0 33 3 45 9s21.333 14.333 28 25c14 0 32 -1.16699 54 -3.5s43.667 -5.5 65 -9.5s37.666 -9 48.999 -15
c0 -12 -0.166992 -23.5 -0.5 -34.5s-0.833008 -21.5 -1.5 -31.5c5.33301 -0.666992 11 -1 17 -1h18c41.333 0 78.833 1.83301 112.5 5.5s64.167 6.83398 91.5 9.50098c6 -16 10.667 -35.167 14 -57.5s5 -45.5 5 -69.5s-1.33301 -46.333 -4 -67s-6.66699 -37 -12 -49
c-8 0 -17.167 -3.83301 -27.5 -11.5s-19.166 -22.167 -26.499 -43.5s-11 -53.333 -11 -96c0 -39.333 3.33301 -69.833 10 -91.5s15 -37.334 25 -47.001s20.333 -16.5 31 -20.5c4.66699 -14 7.83398 -31.667 9.50098 -53s2.33398 -43.5 2.00098 -66.5
s-2.16602 -45.167 -5.49902 -66.5s-7.66602 -39 -12.999 -53c-26.667 3.33301 -60.167 6.83301 -100.5 10.5s-82.166 5.5 -125.499 5.5c-56 0 -110.333 -2 -163 -6s-109.667 -7.33301 -171 -10c9.33301 44 13 81 11 111s-11 56.5 -27 79.5s-40 44.833 -72 65.5l-16 -24
c28.667 -19.333 49.667 -39.5 63 -60.5s20.5 -45.333 21.5 -73s-2.83301 -60.5 -11.5 -98.5l-80.5 10c-31.667 4 -69.167 6 -112.5 6c-40.667 0 -81.167 -2 -121.5 -6zM708.991 498.997h33v56h-33v-56z" />
    <glyph glyph-name="Ograve" unicode="&#xd2;" horiz-adv-x="1008" 
d="M495 -35c-160 0 -280.832 34 -362.499 102s-122.5 168.667 -122.5 302c0 178.667 62.333 300.667 187 366c20 -46.667 45.333 -85.167 76 -115.5s67.334 -51.5 110.001 -63.5c-24.667 20 -48.334 43.333 -71.001 70s-41.834 55.334 -57.501 86.001s-26.167 61 -31.5 91
c11.333 14.667 29.833 27.5 55.5 38.5s55.167 19.667 88.5 26s67.333 9.5 102 9.5c24.667 0 48.667 -1.83301 72 -5.5s44.666 -9.5 63.999 -17.5c6.66699 -8.66699 13 -18.834 19 -30.501s11.667 -24.167 17 -37.5c122.667 -16.667 212.834 -58 270.501 -124
s86.5 -155 86.5 -267c0 -148.667 -42.333 -257.5 -127 -326.5s-210 -103.5 -376 -103.5zM473.001 316h61v129h-61v-129z" />
    <glyph glyph-name="Oacute" unicode="&#xd3;" horiz-adv-x="1008" 
d="M495 -35c-160 0 -280.828 33.9971 -362.495 101.997s-122.5 168.667 -122.5 302c0 108 22.833 194.833 68.5 260.5s112.834 111.834 201.501 138.501c-4.66699 -14.667 -8.33398 -33.334 -11.001 -56.001s-2.16699 -46.167 1.5 -70.5s12.667 -46.666 27 -66.999
s36.5 -35.833 66.5 -46.5c-25.333 20.667 -42.5 49.334 -51.5 86.001s-9.33301 76.334 -1 119.001s26.166 83 53.499 121c19.333 8 40.666 13.833 63.999 17.5s47.333 5.5 72 5.5c34.667 0 68.667 -3.16699 102 -9.5s62.833 -15 88.5 -26s44.167 -23.833 55.5 -38.5
c-0.666992 -4.66699 -1.83398 -10.334 -3.50098 -17.001s-3.83398 -13.667 -6.50098 -21c89.333 -26.667 155.166 -71.167 197.499 -133.5s63.5 -141.166 63.5 -236.499c0 -148.667 -42.333 -257.5 -127 -326.5s-210 -103.5 -376 -103.5zM473.005 315.997h61v129h-61v-129z
" />
    <glyph glyph-name="Ocircumflex" unicode="&#xd4;" horiz-adv-x="1008" 
d="M495 -35c-160 0 -280.831 34.001 -362.498 102.001s-122.5 168.667 -122.5 302c0 86 15.667 160.333 47 223s82.333 112.334 153 149.001c-4.66699 -18.667 -8 -39.834 -10 -63.501s-2 -46.334 0 -68.001s6.66699 -38.5 14 -50.5c6 69.333 22 131.5 48 186.5
s58 95.5 96 121.5c19.333 3.33301 42.666 5.5 69.999 6.5s55.333 1.5 84 1.5c30.667 0 59.5 -0.666992 86.5 -2s47.5 -3.33301 61.5 -6c33.333 -22.667 64.666 -57.667 93.999 -105c82.667 -28 144 -72.667 184 -134s60 -139 60 -233c0 -148.667 -42.333 -257.5 -127 -326.5
s-210 -103.5 -376 -103.5zM473.002 316.001h61v129h-61v-129z" />
    <glyph glyph-name="Otilde" unicode="&#xd5;" horiz-adv-x="1008" 
d="M495 -35c-160 0 -280.833 33.999 -362.5 101.999s-122.5 168.667 -122.5 302c0 81.333 13.167 150.333 39.5 207s66.833 102.334 121.5 137.001c-2 -19.333 -2 -40.166 0 -62.499s5.66699 -43.5 11 -63.5s12 -36 20 -48c-0.666992 107.333 12.5 186.166 39.5 236.499
s68.833 75.5 125.5 75.5c24 0 46.167 -2.5 66.5 -7.5l58.5 -15c18.667 -5 36.334 -7.5 53.001 -7.5c18 0 33 3 45 9s21.333 14.333 28 25c14 0 32 -1.16699 54 -3.5s43.667 -5.5 65 -9.5s37.666 -9 48.999 -15c0 -26.667 -1 -51.667 -3 -75
c74.667 -29.333 129.167 -73.833 163.5 -133.5s51.5 -134.167 51.5 -223.5c0 -148.667 -42.333 -257.5 -127 -326.5s-210 -103.5 -376 -103.5zM473 315.999h61v129h-61v-129z" />
    <glyph glyph-name="Odieresis" unicode="&#xd6;" horiz-adv-x="1008" 
d="M495 -35c-160 0 -280.832 34 -362.499 102s-122.5 168.667 -122.5 302c0 76 11.167 141.333 33.5 196s55.166 99.334 98.499 134.001c3.33301 -52.667 22.5 -93.667 57.5 -123s77.5 -43 127.5 -41c-39.333 9.33301 -72.666 29.666 -99.999 60.999s-41 68.333 -41 111
c0 26.667 6.83301 52.834 20.5 78.501s36.667 47.167 69 64.5s75.833 26 130.5 26c16.667 0 32.167 -1 46.5 -3s27.5 -4.33301 39.5 -7c-22 -14.667 -36.5 -31.667 -43.5 -51s-8.5 -37.666 -4.5 -54.999c10.667 31.333 32.667 58.5 66 81.5s82 34.5 146 34.5
c52.667 0 94.667 -8.33301 126 -25s54.166 -38.334 68.499 -65.001s21.5 -55.334 21.5 -86.001c84 -66 126 -167.667 126 -305c0 -148.667 -42.333 -257.5 -127 -326.5s-210 -103.5 -376 -103.5zM473.001 316h61v129h-61v-129z" />
    <glyph glyph-name="multiply" unicode="&#xd7;" horiz-adv-x="624" 
d="M426 42l-114.998 115.997l-114 -114c-8.66699 3.33301 -21.834 12.333 -39.501 27s-36.667 32.167 -57 52.5s-39.166 40.5 -56.499 60.5s-30 37 -38 51l114 114l-113 112c4 9.33301 13.833 22.833 29.5 40.5s33.667 36.834 54 57.501s40.333 39.5 60 56.5
s35.834 29.5 48.501 37.5l176 -176c-22.667 28.667 -31 55.334 -25 80.001s18.333 45.334 37 62.001l38 35c8.66699 -4 22 -13.667 40 -29s37.167 -33.166 57.5 -53.499s39.166 -40.333 56.499 -60s29.666 -35.834 36.999 -48.501l-113 -113l115 -116
c-4 -8.66699 -13.833 -22 -29.5 -40s-33.667 -37.333 -54 -58s-40.333 -39.5 -60 -56.5s-35.834 -29.5 -48.501 -37.5z" />
    <glyph glyph-name="Oslash" unicode="&#xd8;" horiz-adv-x="1004" 
d="M193 -109c-82.667 48 -138 98.001 -166 150.001l68 63c-56.667 65.333 -85 153.666 -85 264.999c0 146.667 41.333 254.334 124 323.001s204.667 103 366 103c90 0 168 -9.66699 234 -29l39.5 46.5l38.5 47.5c82.667 -48 138 -98 166 -150l-72.5 -68l-72.5 -69
c50.667 13.333 90.834 2.66602 120.501 -32.001s44.5 -87 44.5 -157c0 -142.667 -42.333 -248.167 -127 -316.5s-210 -102.5 -376 -102.5c-84.667 0 -157.334 9.33301 -218.001 28l-41.5 -50.5zM426 399.001h58v74h-58v-74zM516 275.001h58v74h-58v-74z" />
    <glyph glyph-name="Ugrave" unicode="&#xd9;" horiz-adv-x="1076" 
d="M533 -35c-79.333 0 -150.164 6.33301 -212.497 19s-113.166 35.167 -152.499 67.5s-64.333 77.833 -75 136.5c-6.66699 38.667 -8.66699 75.667 -6 111s4 72.666 4 111.999c0 32.667 -3.16699 57.667 -9.5 75s-14.5 29.5 -24.5 36.5s-20.667 10.5 -32 10.5
c-6 12 -10.333 28.333 -13 49s-3.83398 42.834 -3.50098 66.501s2.16602 46.667 5.49902 69s8.33301 41.5 15 57.5c12.667 -1.33301 29.5 -2.66602 50.5 -3.99902s43.667 -2.66602 68 -3.99902l70.5 -4c19.333 -52.667 43.833 -94.5 73.5 -125.5
s62.834 -53.167 99.501 -66.5c-33.333 30 -63.5 65.667 -90.5 107s-44.167 83 -51.5 125c11.333 14.667 29.833 27.5 55.5 38.5s55.167 19.667 88.5 26s67.333 9.5 102 9.5c24.667 0 48.667 -1.83301 72 -5.5s44.666 -9.5 63.999 -17.5
c16 -21.333 30.333 -50.666 43 -87.999c15.333 -1.33301 32.666 -2.5 51.999 -3.5s41.333 -1.5 66 -1.5c31.333 0 63.166 0.833008 95.499 2.5s62.5 3.66699 90.5 6s51 4.16602 69 5.49902c6.66699 -16 11.667 -35.167 15 -57.5s5.16602 -45.333 5.49902 -69
s-0.833984 -45.834 -3.50098 -66.501s-7 -37 -13 -49c-16.667 -0.666992 -31.834 -8 -45.501 -22s-20.5 -40.667 -20.5 -80c0 -42 1.33301 -82.167 4 -120.5s0.333984 -74.5 -6.99902 -108.5c-13.333 -61.333 -38.166 -109.333 -74.499 -144
s-85.166 -58.834 -146.499 -72.501s-137.333 -20.5 -228 -20.5zM513.002 319h44v191h-44v-191z" />
    <glyph glyph-name="Uacute" unicode="&#xda;" horiz-adv-x="1076" 
d="M533 -35c-79.333 0 -150.166 6.33496 -212.499 19.002s-113.166 35.167 -152.499 67.5s-64.333 77.833 -75 136.5c-6.66699 38.667 -8.66699 75.667 -6 111s4 72.666 4 111.999c0 32.667 -3.16699 57.667 -9.5 75s-14.5 29.5 -24.5 36.5s-20.667 10.5 -32 10.5
c-6 12 -10.333 28.333 -13 49s-3.83398 42.834 -3.50098 66.501s2.16602 46.667 5.49902 69s8.33301 41.5 15 57.5c18.667 -1.33301 41.834 -3.16602 69.501 -5.49902s57.667 -4.33301 90 -6s64.166 -2.5 95.499 -2.5c10 0 20 0.166992 30 0.5s19.667 0.5 29 0.5
c-5.33301 -20.667 -8.5 -43.834 -9.5 -69.501s3.16699 -50.167 12.5 -73.5s26 -41.333 50 -54c-14 24 -22.5 52.333 -25.5 85s0.333008 66.834 10 102.501s25.834 69.5 48.501 101.5c19.333 8 40.666 13.833 63.999 17.5s47.333 5.5 72 5.5
c34.667 0 68.667 -3.16699 102 -9.5s62.833 -15 88.5 -26s44.167 -23.833 55.5 -38.5c-2 -10.667 -5.66699 -24.667 -11 -42c30.667 0 61.667 0.833008 93 2.5s60.333 3.66699 87 6s49 4.16602 67 5.49902c6.66699 -16 11.667 -35.167 15 -57.5s5.16602 -45.333 5.49902 -69
s-0.833984 -45.834 -3.50098 -66.501s-7 -37 -13 -49c-16.667 -0.666992 -31.834 -8 -45.501 -22s-20.5 -40.667 -20.5 -80c0 -42 1.33301 -82.167 4 -120.5s0.333984 -74.5 -6.99902 -108.5c-13.333 -61.333 -38.166 -109.333 -74.499 -144
s-85.166 -58.834 -146.499 -72.501s-137.333 -20.5 -228 -20.5zM513 319.002h44v191h-44v-191z" />
    <glyph glyph-name="Ucircumflex" unicode="&#xdb;" horiz-adv-x="1076" 
d="M533 -35c-79.333 0 -150.167 6.33789 -212.5 19.0049s-113.166 35.167 -152.499 67.5s-64.333 77.833 -75 136.5c-6.66699 38.667 -8.66699 75.667 -6 111s4 72.666 4 111.999c0 32.667 -3.16699 57.667 -9.5 75s-14.5 29.5 -24.5 36.5s-20.667 10.5 -32 10.5
c-6 12 -10.333 28.333 -13 49s-3.83398 42.834 -3.50098 66.501s2.16602 46.667 5.49902 69s8.33301 41.5 15 57.5c25.333 -2.66699 59.833 -5.5 103.5 -8.5s87.834 -4.83301 132.501 -5.5c-12 -31.333 -19 -64.833 -21 -100.5s3.33301 -66.167 16 -91.5
c-2.66699 39.333 2.83301 78.666 16.5 117.999s32 74.833 55 106.5s47.167 56.167 72.5 73.5c19.333 3.33301 42.833 5.5 70.5 6.5s55.5 1.5 83.5 1.5c30.667 0 59.5 -0.666992 86.5 -2s47.5 -3.33301 61.5 -6c34.667 -24 66 -59.333 94 -106
c30.667 0.666992 61.667 1.66699 93 3s60.333 3.16602 87 5.49902s49 4.16602 67 5.49902c6.66699 -16 11.667 -35.167 15 -57.5s5.16602 -45.333 5.49902 -69s-0.833984 -45.834 -3.50098 -66.501s-7 -37 -13 -49c-16.667 -0.666992 -31.834 -8 -45.501 -22
s-20.5 -40.667 -20.5 -80c0 -42 1.33301 -82.167 4 -120.5s0.333984 -74.5 -6.99902 -108.5c-13.333 -61.333 -38.166 -109.333 -74.499 -144s-85.166 -58.834 -146.499 -72.501s-137.333 -20.5 -228 -20.5zM514.999 319.005h40v257h-40v-257z" />
    <glyph glyph-name="Udieresis" unicode="&#xdc;" horiz-adv-x="1076" 
d="M533 -35c-79.333 0 -150.164 6.33496 -212.497 19.002s-113.166 35.167 -152.499 67.5s-64.333 77.833 -75 136.5c-6.66699 38.667 -8.66699 75.667 -6 111s4 72.666 4 111.999c0 32.667 -3.16699 57.667 -9.5 75s-14.5 29.5 -24.5 36.5s-20.667 10.5 -32 10.5
c-6 12 -10.333 28.333 -13 49s-3.83398 42.834 -3.50098 66.501s2.16602 46.667 5.49902 69s8.33301 41.5 15 57.5c18.667 -2 42 -4 70 -6s58 -3.66699 90 -5c-8.66699 -42 -7.83398 -78.833 2.49902 -110.5s27.666 -56.834 51.999 -75.501s52.5 -29.667 84.5 -33
c-32 14 -58.333 35.333 -79 64s-31 61.334 -31 98.001c0 26.667 6.83301 52.834 20.5 78.501s36.667 47.167 69 64.5s75.833 26 130.5 26c16.667 0 32.167 -1 46.5 -3s27.5 -4.33301 39.5 -7c-22 -14.667 -36.5 -31.667 -43.5 -51s-8.5 -37.666 -4.5 -54.999
c10.667 31.333 32.667 58.5 66 81.5s82 34.5 146 34.5c59.333 0 105.333 -10.833 138 -32.5s55 -48.167 67 -79.5c30.667 1.33301 59.5 3.16602 86.5 5.49902s49.5 4.16602 67.5 5.49902c6.66699 -16 11.667 -35.167 15 -57.5s5.16602 -45.333 5.49902 -69
s-0.833984 -45.834 -3.50098 -66.501s-7 -37 -13 -49c-16.667 -0.666992 -31.834 -8 -45.501 -22s-20.5 -40.667 -20.5 -80c0 -42 1.33301 -82.167 4 -120.5s0.333984 -74.5 -6.99902 -108.5c-13.333 -61.333 -38.166 -109.333 -74.499 -144
s-85.166 -58.834 -146.499 -72.501s-137.333 -20.5 -228 -20.5zM513.002 319.002h44v191h-44v-191z" />
    <glyph glyph-name="Yacute" unicode="&#xdd;" horiz-adv-x="1096" 
d="M282 -17c-7.33301 19.333 -12.5039 43.333 -15.5039 72s-3.83301 57.167 -2.5 85.5s5 51.5 11 69.5c15.333 -3.33301 30.666 -6 45.999 -8s31 -3.66699 47 -5l3 28c-41.333 2.66699 -80.166 10.167 -116.499 22.5s-67.166 32.833 -92.499 61.5s-43 69 -53 121
c-5.33301 29.333 -15.166 53.666 -29.499 72.999s-32.5 29.333 -54.5 30c-6 12 -10.333 28.333 -13 49s-3.83398 42.834 -3.50098 66.501s2.16602 46.667 5.49902 69s8.33301 41.5 15 57.5c49.333 -4.66699 101.333 -8.16699 156 -10.5s107.334 -3.5 158.001 -3.5
c-5.33301 -20.667 -8.66602 -43.834 -9.99902 -69.501s2.5 -50 11.5 -73s25.5 -41.167 49.5 -54.5c-14 24.667 -22.5 53.334 -25.5 86.001s0.333008 66.834 10 102.501s25.834 69.5 48.501 101.5c19.333 8 40.666 13.833 63.999 17.5s47.333 5.5 72 5.5
c34.667 0 68.667 -3.16699 102 -9.5s62.833 -15 88.5 -26s44.167 -23.833 55.5 -38.5c-2 -10.667 -5.66699 -24.667 -11 -42c45.333 0 91.333 1.66699 138 5l131 9c6.66699 -16 11.667 -35.167 15 -57.5s5.16602 -45.333 5.49902 -69s-0.833984 -45.834 -3.50098 -66.501
s-7 -37 -13 -49c-16.667 2 -30.5 -2.83301 -41.5 -14.5s-19.5 -25.5 -25.5 -41.5s-10.333 -29.667 -13 -41c-15.333 -66 -42.5 -114.833 -81.5 -146.5s-85.5 -53.167 -139.5 -64.5l8 -27c16 3.33301 31 7.33301 45 12c4.66699 -11.333 7.83398 -26.666 9.50098 -45.999
s2.33398 -40.333 2.00098 -63s-2.16602 -44.5 -5.49902 -65.5s-7.66602 -38.5 -12.999 -52.5c-29.333 3.33301 -66.5 6.83301 -111.5 10.5s-99.833 5.5 -164.5 5.5c-44.667 0 -82.5 -0.833008 -113.5 -2.5s-57.833 -3.83398 -80.5 -6.50098s-44 -5 -64 -7zM550.996 427h35
v83h-35v-83z" />
    <glyph glyph-name="Thorn" unicode="&#xde;" horiz-adv-x="1028" 
d="M34 -17c-6 14 -10.666 31.6631 -13.999 52.9961s-5.33301 43.5 -6 66.5s0.166016 45.167 2.49902 66.5s5.83301 39 10.5 53c10 4 19.833 10.833 29.5 20.5s17.834 25.334 24.501 47.001s10 52.167 10 91.5c0 42.667 -3.83301 74.834 -11.5 96.501
s-16.667 36.334 -27 44.001s-19.5 11.5 -27.5 11.5c-6 12 -10.333 28.333 -13 49s-3.83398 42.834 -3.50098 66.501s2.16602 46.667 5.49902 69s8.33301 41.5 15 57.5c18.667 -2 43.167 -4.16699 73.5 -6.5s64 -4.33301 101 -6s74.167 -2.83398 111.5 -3.50098
c76 -0.666992 143 1 201 5s103.333 7.33301 136 10c8 -34.667 10 -66 6 -94c-3.33301 -0.666992 -11.833 -3.16699 -25.5 -7.5s-29.667 -10.166 -48 -17.499s-36.166 -16.333 -53.499 -27l14 -23c30.667 20 65.167 33 103.5 39s72.833 9 103.5 9s61.5 -3.16699 92.5 -9.5
s59.667 -18.333 86 -36s47.5 -43.834 63.5 -78.501s24 -80.667 24 -138c0 -54 -8.16699 -99.167 -24.5 -135.5s-38.833 -65 -67.5 -86s-61.667 -36.167 -99 -45.5s-77 -14 -119 -14c-26.667 0 -54.167 2 -82.5 6s-55.166 13.333 -80.499 28l-16 -27
c17.333 -10.667 37 -18.667 59 -24s45.333 -8.66602 70 -9.99902c1.33301 -16.667 2 -30.334 2 -41.001s-0.666992 -20.167 -2 -28.5s-3.33301 -18.166 -6 -29.499c-32.667 2.66699 -78 6 -136 10s-125 5.66699 -201 5c-37.333 0 -74 -1 -110 -3
s-68.833 -4.16699 -98.5 -6.5s-53.834 -4.5 -72.501 -6.5zM503.001 334.996h61v67h-61v-67z" />
    <glyph glyph-name="germandbls" unicode="&#xdf;" horiz-adv-x="1067" 
d="M788 -23c-63.333 0 -116.338 2.16699 -159.005 6.5s-71.667 8.16602 -87 11.499c-2.66699 13.333 -4.83398 32 -6.50098 56s-2.66699 50.167 -3 78.5s0.166992 55.666 1.5 81.999s3.33301 48.166 6 65.499h57v48h-57v90h56v64c-36.667 -4.66699 -60.667 -18.5 -72 -41.5
s-17 -53.833 -17 -92.5v-348c-10 0 -28.667 0.166992 -56 0.5s-61 0.5 -101 0.5c-54.667 0 -107.5 -1.16699 -158.5 -3.5s-105.833 -6.16602 -164.5 -11.499c-5.33301 13.333 -9.66602 30.5 -12.999 51.5s-5.16602 43.167 -5.49902 66.5s0.333984 45.5 2.00098 66.5
s4.83398 38.167 9.50098 51.5c9.33301 3.33301 18.5 9.33301 27.5 18s16.5 22.834 22.5 42.501s9.66699 47.834 11 84.501h-65c-3.33301 18.667 -5.66602 40.667 -6.99902 66s-1.33301 50.5 0 75.5s3.66602 46.833 6.99902 65.5h142c-29.333 3.33301 -51.333 15.5 -66 36.5
s-17 45.833 -7 74.5c9.33301 26 33.666 49.833 72.999 71.5s91.333 38.834 156 51.501s139 19 223 19c88.667 0 162.167 -4.66699 220.5 -14s104.166 -22.666 137.499 -39.999s56.833 -38 70.5 -62s20.5 -51 20.5 -81c0 -28 -4.33301 -51.833 -13 -71.5
s-17.5 -37.334 -26.5 -53.001s-13.5 -31.5 -13.5 -47.5c0 -14 4.33301 -27 13 -39s19.334 -24.5 32.001 -37.5s25.334 -27.833 38.001 -44.5s23.334 -36.5 32.001 -59.5s13 -50.833 13 -83.5c0 -40.667 -5.66699 -74.334 -17 -101.001s-26.666 -47.667 -45.999 -63
s-40.833 -26.5 -64.5 -33.5s-48 -11.5 -73 -13.5s-49.167 -3 -72.5 -3z" />
    <glyph glyph-name="agrave" unicode="&#xe0;" horiz-adv-x="967" 
d="M325 -34c-80 0 -143.165 10.3291 -189.498 30.9961s-79.5 47.667 -99.5 81s-30 69.333 -30 108c0 58.667 20.667 106.334 62 143.001s107.333 55.334 198 56.001l212 2v53h-55v-27l-201 -8c-66 -2.66699 -131.667 -1.66699 -197 3c-16.667 104 -15 204.667 5 302
c20 -0.666992 45 -1.16699 75 -1.5s61 -1.16602 93 -2.49902c17.333 -44 41.833 -80.333 73.5 -109s69.5 -47.667 113.5 -57c-26.667 18.667 -52.834 42.167 -78.501 70.5s-47.667 59.166 -66 92.499s-30.5 66.666 -36.5 99.999c11.333 14.667 29.833 27.5 55.5 38.5
s55.167 19.667 88.5 26s67.333 9.5 102 9.5c24.667 0 48.667 -1.83301 72 -5.5s44.666 -9.5 63.999 -17.5c10.667 -14 20.834 -32 30.501 -54s16.834 -45.667 21.501 -71c72.667 -4.66699 129 -20 169 -46s67 -62.333 81 -109c8 -24.667 11.5 -51.167 10.5 -79.5
s-3.16699 -55.833 -6.5 -82.5s-5 -50.667 -5 -72c0 -40.667 6.5 -69.5 19.5 -86.5s26.833 -28.167 41.5 -33.5c6 -19.333 9.5 -43.666 10.5 -72.999s0.166992 -58.666 -2.5 -87.999s-7.33398 -54.666 -14.001 -75.999c-29.333 -6.66699 -60 -11.167 -92 -13.5
s-58 -3.5 -78 -3.5c-50.667 0 -90.334 6 -119.001 18s-43 34 -43 66c0 11.333 2.16699 23.333 6.5 36s9.5 26.334 15.5 41.001l-26 13c-12 -29.333 -28.5 -57.333 -49.5 -84s-50 -48.334 -87 -65.001s-85.167 -25 -144.5 -25zM423.002 258.996h55v63h-55v-63z" />
    <glyph glyph-name="aacute" unicode="&#xe1;" horiz-adv-x="967" 
d="M325 -34c-80 0 -143.162 10.3291 -189.495 30.9961s-79.5 47.667 -99.5 81s-30 69.333 -30 108c0 58.667 20.667 106.334 62 143.001s107.333 55.334 198 56.001l212 2v53h-55v-27l-201 -8c-66 -2.66699 -131.667 -1.66699 -197 3c-16.667 104 -15 204.667 5 302
c36 -0.666992 65 -1.33398 87 -2.00098s40.5 -1.16699 55.5 -1.5s29.5 -0.833008 43.5 -1.5s30.667 -1.33398 50 -2.00098c-2 -12 -3 -26.667 -3 -44s2.66699 -35.333 8 -54s15.166 -35.334 29.499 -50.001s35.166 -25.667 62.499 -33c-20.667 14.667 -36.5 34.5 -47.5 59.5
s-17 52.833 -18 83.5s3.33301 62.334 13 95.001s25.167 64 46.5 94c19.333 8 40.666 13.833 63.999 17.5s47.333 5.5 72 5.5c34.667 0 68.667 -3.16699 102 -9.5s62.833 -15 88.5 -26s44.167 -23.833 55.5 -38.5c-1.33301 -10.667 -4.66602 -23.667 -9.99902 -39l-16 -45
c48.667 -10.667 87.167 -28.167 115.5 -52.5s48.166 -55.166 59.499 -92.499c8 -24.667 11.5 -51.167 10.5 -79.5s-3.16699 -55.833 -6.5 -82.5s-5 -50.667 -5 -72c0 -40.667 6.5 -69.5 19.5 -86.5s26.833 -28.167 41.5 -33.5c6 -19.333 9.5 -43.666 10.5 -72.999
s0.166992 -58.666 -2.5 -87.999s-7.33398 -54.666 -14.001 -75.999c-29.333 -6.66699 -60 -11.167 -92 -13.5s-58 -3.5 -78 -3.5c-50.667 0 -90.334 6 -119.001 18s-43 34 -43 66c0 11.333 2.16699 23.333 6.5 36s9.5 26.334 15.5 41.001l-26 13
c-12 -29.333 -28.5 -57.333 -49.5 -84s-50 -48.334 -87 -65.001s-85.167 -25 -144.5 -25zM423.005 258.996h55v63h-55v-63z" />
    <glyph glyph-name="acircumflex" unicode="&#xe2;" horiz-adv-x="967" 
d="M325 -34c-80 0 -143.162 10.3301 -189.495 30.9971s-79.5 47.667 -99.5 81s-30 69.333 -30 108c0 58.667 20.667 106.334 62 143.001s107.333 55.334 198 56.001l212 2v53h-55v-27l-201 -8c-66 -2.66699 -131.667 -1.66699 -197 3c-16.667 104 -15 204.667 5 302
c15.333 0 34.166 -0.333008 56.499 -1s48.166 -1.33398 77.499 -2.00098c-2.66699 -26.667 -3.5 -53 -2.5 -79s8.5 -52.333 22.5 -79c-2.66699 46 2.83301 90 16.5 132s32 79.167 55 111.5s47.167 57.166 72.5 74.499c19.333 3.33301 42.833 5.5 70.5 6.5s55.5 1.5 83.5 1.5
c30.667 0 59.5 -0.666992 86.5 -2s47.5 -3.33301 61.5 -6c21.333 -14.667 43.166 -36.5 65.499 -65.5s40.833 -60.167 55.5 -93.5c37.333 -12 67 -29.167 89 -51.5s38 -49.833 48 -82.5c8 -24.667 11.5 -51.167 10.5 -79.5s-3.16699 -55.833 -6.5 -82.5s-5 -50.667 -5 -72
c0 -40.667 6.5 -69.5 19.5 -86.5s26.833 -28.167 41.5 -33.5c6 -19.333 9.5 -43.666 10.5 -72.999s0.166992 -58.666 -2.5 -87.999s-7.33398 -54.666 -14.001 -75.999c-29.333 -6.66699 -60 -11.167 -92 -13.5s-58 -3.5 -78 -3.5c-50.667 0 -90.334 6 -119.001 18
s-43 34 -43 66c0 11.333 2.16699 23.333 6.5 36s9.5 26.334 15.5 41.001l-26 13c-12 -29.333 -28.5 -57.333 -49.5 -84s-50 -48.334 -87 -65.001s-85.167 -25 -144.5 -25zM423.005 258.997h55v63h-55v-63z" />
    <glyph glyph-name="atilde" unicode="&#xe3;" horiz-adv-x="967" 
d="M325 -34c-80 0 -143.165 10.3301 -189.498 30.9971s-79.5 47.667 -99.5 81s-30 69.333 -30 108c0 58.667 20.667 106.334 62 143.001s107.333 55.334 198 56.001l212 2v53h-55v-27l-201 -8c-66 -2.66699 -131.667 -1.66699 -197 3c-16.667 104 -15 204.667 5 302
c13.333 0 31 -0.166992 53 -0.5s43.333 -0.833008 64 -1.5c-4 -24 -4.16699 -49.833 -0.5 -77.5s11.5 -49.834 23.5 -66.501c1.33301 103.333 15.833 177 43.5 221s69.5 66 125.5 66c24 0 46.167 -2.5 66.5 -7.5l58.5 -15c18.667 -5 36.334 -7.5 53.001 -7.5c18 0 33 3 45 9
s21.333 14.333 28 25c14 0 32 -1.16699 54 -3.5s43.667 -5.5 65 -9.5s37.666 -9 48.999 -15c0 -22.667 -0.5 -43.834 -1.5 -63.501s-2.83301 -38.167 -5.5 -55.5c37.333 -12.667 67 -30 89 -52s38 -49.333 48 -82c8 -24.667 11.5 -51.167 10.5 -79.5
s-3.16699 -55.833 -6.5 -82.5s-5 -50.667 -5 -72c0 -40.667 6.5 -69.5 19.5 -86.5s26.833 -28.167 41.5 -33.5c6 -19.333 9.5 -43.666 10.5 -72.999s0.166992 -58.666 -2.5 -87.999s-7.33398 -54.666 -14.001 -75.999c-29.333 -6.66699 -60 -11.167 -92 -13.5
s-58 -3.5 -78 -3.5c-50.667 0 -90.334 6 -119.001 18s-43 34 -43 66c0 11.333 2.16699 23.333 6.5 36s9.5 26.334 15.5 41.001l-26 13c-12 -29.333 -28.5 -57.333 -49.5 -84s-50 -48.334 -87 -65.001s-85.167 -25 -144.5 -25zM423.002 258.997h55v63h-55v-63z" />
    <glyph glyph-name="adieresis" unicode="&#xe4;" horiz-adv-x="967" 
d="M325 -34c-80 0 -143.165 10.3281 -189.498 30.9951s-79.5 47.667 -99.5 81s-30 69.333 -30 108c0 58.667 20.667 106.334 62 143.001s107.333 55.334 198 56.001l212 2v53h-55v-27l-201 -8c-66 -2.66699 -131.667 -1.66699 -197 3c-16.667 104 -15 204.667 5 302
c8 0 17 -0.333008 27 -1s23.333 -1 40 -1c-2.66699 -41.333 5.66602 -76.833 24.999 -106.5s45.833 -50.834 79.5 -63.501s69.5 -15.334 107.5 -8.00098c-32 1.33301 -61.5 9.83301 -88.5 25.5s-48.667 36.667 -65 63s-24.5 55.833 -24.5 88.5
c0 26.667 6.83301 52.834 20.5 78.501s36.667 47.167 69 64.5s75.833 26 130.5 26c16.667 0 32.167 -1 46.5 -3s27.5 -4.33301 39.5 -7c-22 -14.667 -36.5 -31.667 -43.5 -51s-8.5 -37.666 -4.5 -54.999c10.667 31.333 32.667 58.5 66 81.5s82 34.5 146 34.5
c52.667 0 94.834 -8.5 126.501 -25.5s54.5 -39 68.5 -66s21 -55.833 21 -86.5v-10.5c0 -3.66699 -0.333008 -7.5 -1 -11.5c35.333 -24.667 59.333 -58.667 72 -102c8 -24.667 11.5 -51.167 10.5 -79.5s-3.16699 -55.833 -6.5 -82.5s-5 -50.667 -5 -72
c0 -40.667 6.5 -69.5 19.5 -86.5s26.833 -28.167 41.5 -33.5c6 -19.333 9.5 -43.666 10.5 -72.999s0.166992 -58.666 -2.5 -87.999s-7.33398 -54.666 -14.001 -75.999c-29.333 -6.66699 -60 -11.167 -92 -13.5s-58 -3.5 -78 -3.5c-50.667 0 -90.334 6 -119.001 18
s-43 34 -43 66c0 11.333 2.16699 23.333 6.5 36s9.5 26.334 15.5 41.001l-26 13c-12 -29.333 -28.5 -57.333 -49.5 -84s-50 -48.334 -87 -65.001s-85.167 -25 -144.5 -25zM423.002 258.995h55v63h-55v-63z" />
    <glyph glyph-name="aring" unicode="&#xe5;" horiz-adv-x="967" 
d="M325 -34c-80 0 -143.164 10.3262 -189.497 30.9932s-79.5 47.667 -99.5 81s-30 69.333 -30 108c0 58.667 20.667 106.334 62 143.001s107.333 55.334 198 56.001l212 2v53h-55v-27l-201 -8c-66 -2.66699 -131.667 -1.66699 -197 3c-16.667 104 -15 204.667 5 302
c20.667 -0.666992 48.5 -1.16699 83.5 -1.5s68.833 -1.16602 101.5 -2.49902c-2 -33.333 3.5 -62 16.5 -86s31.5 -42.667 55.5 -56s50.667 -20.666 80 -21.999c-34 12.667 -62.167 33.667 -84.5 63s-33.5 63.333 -33.5 102c0 27.333 6.5 53.833 19.5 79.5s34.833 47 65.5 64
s72 25.5 124 25.5c65.333 0 116.666 -12.833 153.999 -38.5s62.333 -63.5 75 -113.5c57.333 -8.66699 102 -25.667 134 -51s54.333 -58.333 67 -99c8 -24.667 11.5 -51.167 10.5 -79.5s-3.16699 -55.833 -6.5 -82.5s-5 -50.667 -5 -72c0 -40.667 6.5 -69.5 19.5 -86.5
s26.833 -28.167 41.5 -33.5c6 -19.333 9.5 -43.666 10.5 -72.999s0.166992 -58.666 -2.5 -87.999s-7.33398 -54.666 -14.001 -75.999c-29.333 -6.66699 -60 -11.167 -92 -13.5s-58 -3.5 -78 -3.5c-50.667 0 -90.334 6 -119.001 18s-43 34 -43 66
c0 11.333 2.16699 23.333 6.5 36s9.5 26.334 15.5 41.001l-26 13c-12 -29.333 -28.5 -57.333 -49.5 -84s-50 -48.334 -87 -65.001s-85.167 -25 -144.5 -25zM450.003 667.993h32v76h-32v-76zM423.003 258.993h55v63h-55v-63z" />
    <glyph glyph-name="ae" unicode="&#xe6;" horiz-adv-x="1429" 
d="M325 -34c-80 0 -143.163 10.335 -189.496 31.002s-79.5 47.667 -99.5 81s-30 69.333 -30 108c0 58.667 20.667 106.334 62 143.001s107.333 55.334 198 56.001l212 2v53h-55v-27l-201 -8c-66 -2.66699 -131.667 -1.66699 -197 3c-16.667 104 -15 204.667 5 302
c19.333 0 42.833 -0.333008 70.5 -1s57 -1.5 88 -2.5s61.5 -1.83301 91.5 -2.5s56.667 -1.33398 80 -2.00098c-8.66699 -20 -13.5 -40 -14.5 -60s1.83301 -39.333 8.5 -58c3.33301 55.333 24.166 93.666 62.499 114.999s91.833 32 160.5 32
c19.333 0 41.166 -2.66699 65.499 -8s46.666 -13.333 66.999 -24s33.833 -23.667 40.5 -39c25.333 16.667 62.666 32.5 111.999 47.5s113.666 22.5 192.999 22.5c46 0 90.5 -5 133.5 -15s81.833 -25 116.5 -45s62.167 -44.667 82.5 -74s30.5 -63.333 30.5 -102
c0 -18.667 -2.83301 -37.5 -8.5 -56.5s-17.167 -36.167 -34.5 -51.5s-43.333 -27.666 -78 -36.999s-81 -14 -139 -14c-38.667 0 -73.5 0.5 -104.5 1.5s-59.5 2.83301 -85.5 5.5h-50v-74h49v40c141.333 6.66699 290.666 6.66699 447.999 0c0 -74 -15.833 -136.333 -47.5 -187
s-82 -89.167 -151 -115.5s-159.833 -39.5 -272.5 -39.5c-39.333 0 -78.5 3.33301 -117.5 10s-74.167 16.167 -105.5 28.5s-55.666 27.166 -72.999 44.499c-23.333 -16.667 -52.5 -31.334 -87.5 -44.001s-72.667 -22.334 -113 -29.001s-81.166 -10 -122.499 -10z
M918.004 394.002h49v58h-49v-58zM423.004 259.002h55v63h-55v-63z" />
    <glyph glyph-name="ccedilla" unicode="&#xe7;" horiz-adv-x="956" 
d="M437 -172c-93.333 0 -164.997 7.33008 -214.997 21.9971c9.33301 13.333 20.166 29.833 32.499 49.5s23.166 42 32.499 67s13.833 52 13.5 81s-8.83301 59.5 -25.5 91.5c3.33301 -28 3.5 -54 0.5 -78s-9.83301 -45 -20.5 -63c-86 29.333 -148.333 74.833 -187 136.5
s-58 134.834 -58 219.501c0 77.333 15.5 143.833 46.5 199.5s74.5 98.667 130.5 129s121.333 45.5 196 45.5c72.667 0 129.167 -11.5 169.5 -34.5s61.5 -66.167 63.5 -129.5c7.33301 23.333 10.166 46.833 8.49902 70.5s-3.83398 46.834 -6.50098 69.501
c22 0 47.167 0.333008 75.5 1s57.5 1.5 87.5 2.5s58.333 1.83301 85 2.5s49.334 1 68.001 1c4 -18 7.16699 -40.833 9.5 -68.5s3.83301 -57.667 4.5 -90s0 -64.166 -2 -95.499s-5 -59.333 -9 -84c-19.333 -2.66699 -44 -4.83398 -74 -6.50098s-62.333 -2.83398 -97 -3.50098
s-69.334 -0.666992 -104.001 0s-66.5 1.83398 -95.5 3.50098s-52.167 3.83398 -69.5 6.50098l-1 37h-48v-117h48v41c142.667 6.66699 291.667 6.66699 447 0c-3.33301 -92.667 -23.666 -167.5 -60.999 -224.5s-97.666 -97.167 -180.999 -120.5
c-4.66699 -61.333 -29.334 -103.5 -74.001 -126.5s-108 -34.5 -190 -34.5z" />
    </font>
</defs>
</svg>
