<svg id="Capa_1" enable-background="new 0 0 512 512" height="25" viewBox="0 0 512 512" width="25"
    xmlns="http://www.w3.org/2000/svg">
    <g>
        <g>
            <g>
                <g fill="#0a617d">
                    <path
                        d="m494.176 111.989h-138.328l-17.013 41.226h155.34c5.426 0 9.824-4.398 9.824-9.824v-21.577c.001-5.426-4.398-9.825-9.823-9.825z" />
                    <path
                        d="m177.415 111.989h-159.591c-5.426 0-9.824 4.399-9.824 9.824v21.577c0 5.426 4.399 9.824 9.824 9.824h142.577z" />
                </g>
                <path
                    d="m494.176 135.215h-147.912l-7.428 18h155.34c5.426 0 9.825-4.398 9.825-9.824v-18c-.001 5.426-4.4 9.824-9.825 9.824z"
                    fill="#08475e" />
                <path
                    d="m17.825 135.215c-5.426 0-9.825-4.398-9.825-9.824v18c0 5.426 4.399 9.824 9.825 9.824h142.577l7.428-18z"
                    fill="#08475e" />
                <path
                    d="m278.302 191.83 67.774-164.232 52.686-19.598-82.352 199.556c-4.343 10.523-16.394 15.534-26.917 11.191-10.524-4.343-15.534-16.394-11.191-26.917z"
                    fill="#0a789b" />
                <path
                    d="m322.942 83.673-51.123 123.883c-4.343 10.523-16.394 15.534-26.918 11.191-10.523-4.343-15.534-16.394-11.191-26.917l51.123-123.883c4.343-10.523 16.394-15.534 26.918-11.191 10.523 4.343 15.534 16.394 11.191 26.917z"
                    fill="#0a617d" />
                <path
                    d="m278.32 83.673-51.123 123.883c-4.343 10.523-16.394 15.534-26.918 11.191-10.523-4.343-15.534-16.394-11.191-26.917l51.124-123.883c4.343-10.523 16.394-15.534 26.917-11.191 10.523 4.343 15.534 16.394 11.191 26.917z"
                    fill="#0a789b" />
                <path
                    d="m235.121 188.302c-4.343 10.523-16.394 15.534-26.917 11.191-10.402-4.292-15.401-16.115-11.321-26.55l-7.794 18.887c-4.343 10.523.668 22.575 11.191 26.917 10.523 4.343 22.575-.667 26.917-11.191z"
                    fill="#0a617d" />
                <path
                    d="m324.345 188.302c-4.343 10.523-16.394 15.534-26.918 11.191-10.402-4.292-15.401-16.115-11.321-26.55l-7.794 18.887c-4.343 10.523.668 22.575 11.191 26.917 10.523 4.343 22.575-.667 26.918-11.191z"
                    fill="#0a617d" />
                <path
                    d="m279.741 188.302c-4.343 10.523-16.394 15.534-26.918 11.191-10.402-4.292-15.401-16.115-11.321-26.55l-7.794 18.887c-4.343 10.523.668 22.575 11.191 26.917 10.523 4.343 22.575-.667 26.917-11.191z"
                    fill="#08475e" />
                <path
                    d="m233.698 83.673-67.774 164.232-52.686 19.598 82.352-199.556c4.343-10.523 16.394-15.534 26.917-11.191 10.524 4.343 15.534 16.394 11.191 26.917z"
                    fill="#0a617d" />
                <path d="m122.013 246.239-8.775 21.264 52.686-19.598 8.775-21.264z" fill="#08475e" />
            </g>
            <g>
                <g fill="#0a617d">
            
                </g>
            </g>
        </g>
            <path
                d="m494.642 104.368h-127.368l38.714-93.928c2.622-5.807-3.679-12.342-9.567-9.923l-52.789 19.661c-1.96.73-3.528 2.245-4.326 4.181l-13.675 33.179c-2.891-3.484-6.603-6.234-10.904-8.011-6.957-2.874-14.613-2.864-21.56.028-4.632 1.928-8.573 4.988-11.54 8.874-2.982-3.907-6.949-6.977-11.609-8.903-6.957-2.874-14.613-2.864-21.559.028-4.632 1.928-8.574 4.989-11.541 8.875-2.982-3.907-6.949-6.978-11.61-8.903-6.957-2.874-14.614-2.864-21.559.028-6.947 2.892-12.354 8.32-15.224 15.283l-16.293 39.53h-154.874c-9.571.001-17.358 7.798-17.358 17.381v21.646c0 9.583 7.787 17.38 17.358 17.38h131.626l-11.126 26.994c-1.583 3.841.243 8.24 4.079 9.825.938.388 1.909.571 2.864.571 2.952 0 5.753-1.754 6.949-4.656l50.667-122.93c2.561-6.591 10.682-9.977 17.157-7.143 6.584 2.563 9.963 10.697 7.134 17.178-.057.138-66.656 161.724-66.656 161.724l-33.582 12.507 13.806-33.499c1.583-3.842-.244-8.24-4.079-9.825-3.839-1.587-8.231.244-9.813 4.084l-20.372 49.43c-2.633 5.809 3.707 12.345 9.567 9.922l52.789-19.661c1.96-.73 3.528-2.245 4.326-4.181l13.685-33.202c2.895 3.495 6.614 6.254 10.925 8.035 3.467 1.432 7.106 2.148 10.746 2.148 3.664 0 7.329-.726 10.813-2.177 4.632-1.928 8.573-4.988 11.54-8.874 2.982 3.907 6.949 6.977 11.609 8.903 3.505 1.448 7.134 2.133 10.71 2.133 8.677 0 17.005-4.055 22.362-11.034 2.982 3.906 6.948 6.976 11.608 8.901 3.467 1.432 7.106 2.148 10.746 2.148 3.664 0 7.329-.726 10.813-2.177 6.947-2.892 12.354-8.32 15.224-15.283l20.551-49.862h150.616c9.572 0 17.358-7.796 17.358-17.38v-21.646c0-9.582-7.787-17.379-17.358-17.379zm-339.259 41.343h-137.559c-1.281 0-2.324-1.044-2.324-2.327v-21.604c0-1.283 1.043-2.327 2.324-2.327h148.382zm109.503 59.053c-2.553 6.579-10.665 9.956-17.124 7.129-6.571-2.557-9.942-10.676-7.119-17.145l24.55-59.564c1.58-3.834-.242-8.224-4.071-9.806-3.832-1.584-8.215.243-9.794 4.076l-31.063 75.309c-2.555 6.579-10.663 9.956-17.123 7.129-6.571-2.557-9.943-10.678-7.12-17.145l51.124-124.038c2.556-6.579 10.662-9.957 17.123-7.129 6.571 2.558 9.943 10.676 7.12 17.144-.055.133-8.609 20.945-8.609 20.945-1.58 3.834.243 8.224 4.071 9.806.937.387 1.905.57 2.858.57 2.946 0 5.742-1.75 6.936-4.646l15.122-36.69c2.554-6.579 10.664-9.957 17.124-7.129 6.533 2.542 9.91 10.587 7.158 17.037zm44.592 0c-2.759 6.693-10.442 9.89-17.123 7.129-3.238-1.338-5.762-3.858-7.107-7.097-1.328-3.199-1.344-6.719-.056-9.928 0 0 44.736-108.557 44.765-108.628l21.803-52.899 33.516-12.482zm187.022-61.38c0 1.283-1.043 2.327-2.324 2.327h-144.132l10.823-26.258h133.309c1.281 0 2.324 1.044 2.324 2.327z" />
        
    </g>
</svg>