<?xml version="1.0" encoding="iso-8859-1"?>
<!-- Generator: Adobe Illustrator 19.0.0, SVG Export Plug-In . SVG Version: 6.00 Build 0)  -->
<svg  width="50" height="50" version="1.1" id="Capa_1" xmlns="http://www.w3.org/2000/svg" xmlns:xlink="http://www.w3.org/1999/xlink" x="0px" y="0px"
	 viewBox="0 0 510.921 510.921" style="enable-background:new 0 0 510.921 510.921;" xml:space="preserve">
<g>
	<g>
		<g>
			<path d="M369.746,416.128l22.857-11.429v27.427l-36.571,18.286v-36.57l4.571,2.286v-21.239l-352-176v21.239l18.286,9.143v97.079
				c0,5.049,4.093,9.143,9.143,9.143c5.049,0,9.143-4.093,9.143-9.143v-30.92l49.804-24.902c2.147-1.082,3.674-2.898,4.449-4.988
				l238.319,119.16v97.079c0,5.049,4.093,9.143,9.143,9.143s9.143-4.093,9.143-9.143v-30.92l91.429-45.714v21.777
				c0,5.049,4.093,9.143,9.143,9.143s9.143-4.093,9.143-9.143v-78.793v-3.493v-17.746l-96,48V416.128z M45.175,294.984v-36.57
				l36.57,18.285L45.175,294.984z M447.461,404.698l-36.571,18.286v-27.427l36.571-18.286V404.698z"/>
			<path d="M391.523,373.778l-46.679-23.339c-1.465-0.728-2.429-2.184-2.529-3.817c-0.099-1.633,0.682-3.195,2.047-4.095
				c1.366-0.9,3.109-1.002,4.57-0.267l52.812,26.406l26.348-13.174l-138.107-69.054c-1.465-0.728-2.429-2.184-2.529-3.817
				s0.681-3.195,2.047-4.095c1.366-0.9,3.109-1.002,4.57-0.267l144.241,72.121l21.237-10.618L141.657,180.814l-32.482-16.241
				l-21.237,10.618l96.424,48.212c2.252,1.133,3.162,3.874,2.035,6.129s-3.867,3.171-6.124,2.049L77.715,180.303l-26.348,13.174
				l78.138,39.069c2.252,1.133,3.162,3.874,2.035,6.129c-1.127,2.255-3.867,3.172-6.124,2.049l-84.272-42.136l-26.348,13.174
				l350.379,175.19L391.523,373.778z M241.264,293.537L241.264,293.537c-1.13,2.258-3.875,3.173-6.134,2.045l-73.143-36.571
				c-2.252-1.133-3.162-3.874-2.035-6.129c1.127-2.255,3.867-3.171,6.124-2.049l73.143,36.571c1.085,0.542,1.909,1.493,2.293,2.643
				C241.896,291.197,241.807,292.453,241.264,293.537z M259.55,266.109L259.55,266.109c-1.13,2.258-3.875,3.173-6.134,2.045
				l-36.571-18.286c-2.252-1.133-3.162-3.874-2.035-6.129c1.127-2.255,3.867-3.171,6.124-2.049l36.571,18.286
				c1.085,0.542,1.909,1.493,2.293,2.643C260.182,263.769,260.092,265.024,259.55,266.109z M314.407,330.109L314.407,330.109
				c-1.13,2.258-3.875,3.173-6.134,2.045l-36.571-18.286c-2.252-1.133-3.162-3.874-2.035-6.129c1.127-2.255,3.867-3.171,6.124-2.049
				l36.571,18.286c1.085,0.542,1.909,1.493,2.293,2.643C315.039,327.769,314.949,329.024,314.407,330.109z"/>
			<path d="M118.318,44.095l29.473,14.737c2.252,1.133,3.162,3.874,2.035,6.129c-1.127,2.255-3.867,3.171-6.124,2.049
				l-25.384-12.692v26.348l66.045,33.022c2.252,1.133,3.162,3.874,2.035,6.129c-1.127,2.255-3.867,3.171-6.124,2.049L118.318,90.89
				v21.237l31.518,15.759l320.482,160.241V266.89l-52.33-26.165c-1.465-0.728-2.429-2.184-2.529-3.817
				c-0.099-1.633,0.682-3.195,2.047-4.095s3.109-1.002,4.57-0.267l48.241,24.121v-26.348l-70.616-35.308
				c-1.465-0.728-2.429-2.184-2.529-3.817s0.682-3.195,2.047-4.095s3.109-1.002,4.57-0.267l66.527,33.263v-26.348l-352-176V44.095z
				 M259.55,156.394c-1.13,2.258-3.875,3.173-6.134,2.045l-36.571-18.286c-2.252-1.133-3.162-3.874-2.035-6.129
				c1.127-2.255,3.867-3.171,6.124-2.049l36.571,18.286c1.085,0.542,1.909,1.493,2.293,2.643
				C260.182,154.054,260.092,155.31,259.55,156.394z M306.228,143.162L306.228,143.162c1.132-2.255,3.875-3.17,6.134-2.045
				l54.857,27.429c2.252,1.133,3.162,3.874,2.035,6.129c-1.127,2.255-3.867,3.172-6.124,2.049l-54.857-27.429
				c-1.085-0.542-1.909-1.493-2.293-2.643C305.597,145.502,305.686,144.247,306.228,143.162z M287.943,170.591L287.943,170.591
				c1.134-2.254,3.875-3.167,6.134-2.045l91.429,45.714c2.252,1.133,3.162,3.874,2.035,6.129c-1.127,2.255-3.867,3.171-6.124,2.049
				l-91.429-45.714c-1.085-0.542-1.909-1.493-2.293-2.643C287.311,172.931,287.4,171.675,287.943,170.591z M178.228,79.162
				L178.228,79.162c1.133-2.255,3.875-3.169,6.134-2.045l91.429,45.714c2.252,1.133,3.162,3.874,2.035,6.129
				c-1.127,2.255-3.867,3.171-6.124,2.049l-91.429-45.714c-1.085-0.542-1.909-1.493-2.293-2.643
				C177.597,81.502,177.686,80.247,178.228,79.162z"/>
			<polygon points="479.461,193.746 479.461,288.128 502.318,276.699 502.318,182.318 			"/>
			<polygon points="145.746,0 124.507,10.624 474.889,185.81 496.128,175.195 			"/>
			<polygon points="447.461,313.271 447.461,297.143 141.659,144.247 136.603,141.714 136.603,157.842 149.833,164.453 			"/>
		</g>
	</g>
</g>
<g>
</g>
<g>
</g>
<g>
</g>
<g>
</g>
<g>
</g>
<g>
</g>
<g>
</g>
<g>
</g>
<g>
</g>
<g>
</g>
<g>
</g>
<g>
</g>
<g>
</g>
<g>
</g>
<g>
</g>
</svg>
