<?xml version="1.0" standalone="no"?>
<!DOCTYPE svg PUBLIC "-//W3C//DTD SVG 20010904//EN"
 "http://www.w3.org/TR/2001/REC-SVG-20010904/DTD/svg10.dtd">
<svg version="1.0" xmlns="http://www.w3.org/2000/svg"
 width="25.000000pt" height="25.000000pt" viewBox="0 0 25.000000 25.000000"
 preserveAspectRatio="xMidYMid meet">

<g transform="translate(0.000000,25.000000) scale(0.100000,-0.100000)"
fill="#000000" stroke="none">
<path d="M65 243 c-38 -9 -42 -26 -5 -18 19 4 37 7 40 7 26 1 27 -5 3 -26 -15
-13 -28 -34 -28 -47 -1 -13 -5 -34 -9 -45 -5 -16 2 -35 24 -68 42 -62 58 -61
105 8 16 24 24 45 19 55 -3 9 -8 30 -10 46 -2 19 -17 41 -41 62 -37 31 -55 36
-98 26z"/>
</g>
</svg>
